<?xml version="1.0" encoding="utf-8"?>
<!-- Generator: Adobe Illustrator 24.1.2, SVG Export Plug-In . SVG Version: 6.00 Build 0)  -->
<svg version="1.1" id="Layer_1" xmlns="http://www.w3.org/2000/svg" xmlns:xlink="http://www.w3.org/1999/xlink" x="0px" y="0px"
	 viewBox="0 0 255.1 255.1" style="enable-background:new 0 0 255.1 255.1;" xml:space="preserve">
<style type="text/css">
	.st0{fill:#FFFFFF;}
	.st1{fill:#7360F2;}
	.st2{fill:none;stroke:#FFFFFF;stroke-width:6.2564;stroke-linecap:round;stroke-linejoin:round;}
</style>
<path class="st0" d="M218.5,28c-6.1-5.7-31-23.7-86.3-23.9c0,0-65.2-3.9-97,25.2C17.4,47,11.2,72.9,10.6,105S9,197.4,67.1,213.7h0.1
	l0,24.9c0,0-0.4,10.1,6.3,12.1c8,2.5,12.7-5.2,20.4-13.4c4.2-4.5,10-11.2,14.4-16.3c39.7,3.3,70.2-4.3,73.7-5.4
	c8-2.6,53.3-8.4,60.7-68.6C250.2,85,238.9,45.7,218.5,28z"/>
<path class="st1" d="M205.6,40.6c-5.2-4.7-27.6-18.8-74.4-19c0,0-55.4-3.6-82.3,20.7c-15,14.8-20,36.8-20.6,63.6
	c-0.6,26.8-3.4,78.1,45.6,91.7l0,0c0,0-0.2,38-0.2,41.4c0,2.3,0.4,3.9,1.7,4.3c1,0.2,2.4-0.3,3.6-1.5c7.8-7.9,33-38.2,33-38.2
	c33.7,2.2,60.5-4.5,63.4-5.4c6.8-2.2,43.6-5.3,49.8-55.6C231.6,90.7,222.8,55.3,205.6,40.6z"/>
<path class="st2" d="M154.9,103.6c-0.6-12.3-6.8-18.7-18.7-19.3"/>
<path class="st2" d="M171,109c0.2-11.4-3.1-21-10.2-28.6c-7.1-7.7-16.8-11.9-29.3-12.9"/>
<path class="st2" d="M187.4,115.5c-0.2-19.8-6.1-35.5-17.8-46.9c-11.7-11.4-26.3-17.2-43.7-17.3"/>
<path class="st0" d="M136.9,145.5c0,0,4.4,0.4,6.8-2.5l4.6-5.8c2.2-2.9,7.6-4.7,12.9-1.8c3.9,2.2,7.8,4.7,11.5,7.3
	c3.5,2.6,10.6,8.5,10.7,8.5c3.4,2.9,4.2,7.1,1.9,11.6c0,0,0,0.1,0,0.1c-2.6,4.4-5.8,8.4-9.6,11.8c0,0,0,0-0.1,0.1
	c-3.3,2.8-6.6,4.3-9.8,4.7c-0.5,0.1-0.9,0.1-1.4,0.1c-1.4,0-2.8-0.2-4.1-0.6l-0.1-0.2c-4.9-1.4-13.1-4.9-26.8-12.4
	c-7.9-4.3-15.5-9.3-22.5-14.9c-3.5-2.8-6.9-5.8-10.1-9l-0.3-0.3l-0.3-0.3l0,0l-0.3-0.3c-0.1-0.1-0.2-0.2-0.3-0.3
	c-3.2-3.2-6.2-6.6-9-10.1c-5.6-7.1-10.6-14.6-14.9-22.5c-7.5-13.7-11-21.9-12.4-26.8l-0.2-0.1c-0.4-1.3-0.6-2.7-0.6-4.1
	c0-0.5,0-1,0.1-1.4c0.4-3.2,2-6.4,4.7-9.8c0,0,0,0,0.1-0.1c3.4-3.8,7.4-7.1,11.8-9.6c0,0,0.1,0,0.1,0c4.5-2.3,8.7-1.5,11.5,1.9
	c0,0,6,7.2,8.5,10.7c2.6,3.7,5.1,7.5,7.3,11.5c2.9,5.3,1.1,10.6-1.8,12.9L98.7,98c-2.9,2.4-2.5,6.8-2.5,6.8S104.7,137.3,136.9,145.5
	z"/>
</svg>
