<?xml version="1.0" encoding="utf-8"?><svg xmlns="http://www.w3.org/2000/svg" xmlns:xlink="http://www.w3.org/1999/xlink"><symbol viewBox="0 0 255.1 255.1" id="check" xmlns="http://www.w3.org/2000/svg"><path d="M133.2 13.6c1.6.2 3.3.3 4.9.5 14.2 1.1 27.8 4.8 40.7 10.9 3.7 1.8 7.3 3.7 11.3 5.8-1.6 1.5-3 2.8-4.3 4.2-4 3.9-8 7.9-11.8 11.9-.9.9-1.5 1-2.6.4-9.1-4.9-18.7-8.5-28.9-10.4-15.2-2.7-30-1.4-44.6 3.4-15.2 5-28.2 13.4-39 25.2C47 78.6 39.4 93.8 36.8 111.3c-3.9 25.4 1.6 48.6 16.8 69.3 12.5 17 29 28.6 49.3 34 31.4 8.3 60 2.2 84.7-19 16.1-13.8 25.6-31.6 29.7-52.3.2-1 .5-2 .5-2.9 0-1.6.7-1.9 2.2-1.9 6.8.1 13.6 0 20.4 0 .4 0 .8 0 1.1-.1v1.1c-.1.3-.2.5-.3.8-.8 4.3-1.3 8.6-2.3 12.9-7.1 28.7-22.8 51.6-47.1 68.5-15.6 10.8-32.9 17.1-51.7 19.2-2.3.3-4.7.5-7 .7h-10.8c-.5-.1-.9-.2-1.4-.2-10.2-.5-20.2-2.5-29.9-5.8-21-7.2-38.6-19.4-52.5-36.8-14.2-17.7-22.2-38-24.3-60.6-.2-1.7-.3-3.4-.5-5.1v-10.8c.1-.5.2-.9.2-1.4.4-3.7.6-7.4 1.2-11 2.6-17.2 8.9-33 18.8-47.3C44.6 47.1 58.3 35 75 26.4c13.2-6.8 27.2-10.9 42-12.2 1.7-.1 3.4-.3 5.1-.5 3.7-.1 7.4-.1 11.1-.1z"/><path d="M241.5 63.8l-6.6 6C220 83.9 205.2 98 190.3 112.1c-16.4 15.6-32.9 31.2-49.3 46.9-7.4 7-14.7 14-22.1 21-.2.2-.4.4-.7.6-19.2-19.7-38.4-39.4-57.5-59 5.2-5.2 10.4-10.3 15.6-15.4C90.1 120 104 134 118.1 148.1c36-33.9 71.8-67.7 107.8-101.5 5.3 5.7 10.4 11.4 15.6 17v.2z"/></symbol><symbol viewBox="0 0 255.1 255.1" id="close" xmlns="http://www.w3.org/2000/svg"><path class="bst0" d="M216 39.1C167.3-9.6 87.9-9.6 39.1 39.1c-23.6 23.6-36.6 55-36.6 88.4s13 64.8 36.6 88.4c24.4 24.4 56.4 36.6 88.4 36.6s64.1-12.2 88.4-36.6c48.9-48.7 48.9-128 .1-176.8zm-13.7 163.2c-41.2 41.2-108.3 41.2-149.5 0-20-20-30.9-46.5-30.9-74.7s11-54.8 30.9-74.7c41.2-41.2 108.3-41.2 149.5 0 41.2 41.1 41.2 108.2 0 149.4z"/><path class="bst1" d="M169.3 154.3l-27.4-27.4 27.4-27.4c3.8-3.8 3.8-9.9 0-13.7-3.8-3.8-9.9-3.8-13.7 0l-27.4 27.4-27.4-27.4c-3.8-3.8-9.9-3.8-13.7 0-3.8 3.8-3.8 9.9 0 13.7l27.4 27.4L87 154.3c-3.8 3.8-3.8 9.9 0 13.7 1.9 1.9 4.4 2.8 6.9 2.8s5-.9 6.8-2.8l27.4-27.4 27.4 27.4c1.9 1.9 4.4 2.8 6.8 2.8s5-.9 6.9-2.8c3.9-3.8 3.9-9.9.1-13.7z"/></symbol><symbol viewBox="0 0 255.1 255.1" id="creative" xmlns="http://www.w3.org/2000/svg"><path d="M57.1 111.9c-8-13 .1-27.3 12.6-30.7-.2-6.7 2.1-12.4 7.2-16.7 5-4.3 10.8-6.3 17.5-4.7 3.6-5.9 8.3-10.3 15.4-11 7-.7 12.8 1.9 17.6 6.9 1.4-1.2 2.8-2.5 4.3-3.5 9.5-6.3 21-4.1 27.4 5.5 1.1 1.6 1.9 2.1 3.9 1.7 4.7-.8 9 .7 12.8 3.3 6.4 4.4 9.5 10.6 9.5 18.5 6.4 1.9 11.4 5.7 14.1 12 2.7 6.4 2.1 12.6-1.7 18.5 5 4.1 8.6 9 8.6 15.8 0 6.7-3.6 11.6-8.5 15.7 7.7 12.3.8 26.9-12.6 30.7.9 14.4-13.6 24.7-24.6 21.3-3.6 5.8-8.2 10.3-15.4 11.1-7 .8-12.8-1.9-17.6-7-1.2 1-2.3 2.1-3.6 3-10.4 7.3-22.3 4.7-29.1-6.2-.3-.6-.5-1-1.4-.8-6.1 1.4-11.3-.5-16-4.2-5.3-4.1-8.1-10.5-7.8-17.3-6.4-1.9-11.4-5.7-14.2-12-2.8-6.4-2.1-12.6 1.6-18.6-4.9-4.2-8.6-9-8.5-15.8.1-6.6 3.6-11.5 8.5-15.5zm75.7 23.8c.5-.3.8-.4 1.1-.6 3-1.6 6.3-2.4 9.7-2.4 2.3 0 4.1 1.3 4.8 3.4 1.2 3.7-1.1 6.8-5.2 7.1-6.4.4-10.4 4.6-10.4 11.1v30.9c0 5.2 3.8 9.6 8.7 10.4 5.3.8 10-2.1 11.7-7.1 1.3-3.9 3.6-5 7.6-3.9 1.7.5 3.7.7 5.4.5 6.4-1 10-7.2 8.1-13.5-1.3-4.3 1.2-7.6 5.4-7.4 4.3.2 7.6-1.7 9.6-5.4s1.8-7.5-.6-11c-3.2-4.7-9.3-5.6-13.7-2.1-.7.5-1.3 1.1-2 1.7-2.1 1.8-5 1.7-7-.3s-2.3-5-.4-7c5.8-6.2 15.3-9.7 24.5-4.7 1.1.6 1.7.4 2.5-.3 5.5-5 3.9-14.1-3.1-17.2-.9-.4-1.9-.9-2.5-1.6-2-2.2-1.8-5.2.4-7.5 5.6-5.7 3.8-14.5-3.5-17.4-.9-.3-1.4-.3-1.9.6-1.8 3.1-4.4 5.3-7.5 6.9-3.2 1.6-6.7 2.4-10.3 2.3-3-.1-5-2.2-5-5.2s1.9-5.2 4.9-5.3c2.6-.1 5.2-.2 7.2-2.1 3.1-3 4.2-6.7 3.3-10.8-1.3-6-7.2-9.4-13.2-7.7-1.2.3-2.5.8-3.6.6-2.4-.3-3.7-1.9-4.5-4.2-2.4-7.1-10.4-9.7-16.2-5.3-3.1 2.3-4.2 5.6-4.2 9.4v45.9c-.1 6.4-.1 12.7-.1 19.2zm-10.5-29.3v-3.5c0-11.1.1-22.2 0-33.4 0-5.2-3.8-9.5-8.8-10.3-5.2-.8-9.9 2-11.6 7.1-1.4 4-3.8 5.2-7.8 3.9-3.5-1.2-6.9-.7-9.8 1.7-3.5 2.8-4.8 7.2-3.5 11.4 1.6 4.7 5 7.3 10 7.4 3.2.1 5.2 2.2 5.2 5.3 0 3.2-2.1 5.3-5.4 5.3-7.3-.1-13.1-3.1-17.2-9.2-.7-1-1.2-1.1-2.2-.7-7 2.7-9.1 11.5-4 17 .6.6 1.2 1.2 1.5 1.9 1.7 2.9.3 6.1-3.2 7.7-4.1 1.9-6.4 5.1-6.4 9.6s2.3 7.7 6.4 9.6c4.5 2.1 5.3 5.8 1.9 9.4-4.4 4.7-3.8 12.2 1.3 15.8 3.1 2.2 6.4 2.3 9.9 1.5 4.2-.9 6.3-3.5 6.6-7.7.1-1.1.1-2.1.2-3.2.4-2.9 2.6-4.6 5.6-4.4 2.7.2 4.8 2.3 4.8 5.2 0 1.2-.1 2.4-.2 3.6-1 7.7-6 15-14.3 16.7-1.1.2-1.4.7-1.2 1.7.9 7.1 7.4 11.2 14.1 8.9.9-.3 2-.5 2.9-.4 2.5.3 3.8 1.9 4.5 4.2 1.5 4.7 5.9 7.7 10.4 7.4 5.1-.4 9-3.7 9.8-8.6.4-2.8.3-5.7.3-8.5v-61.9c-1.3.3-2.5.3-3.5.7-4.8 1.8-6.9 5.4-7.1 10.3-.2 3.1-2.3 4.9-5.4 4.8-2.9-.1-5-2.1-5-5.1 0-6.2 2.2-11.4 6.7-15.6 4.1-3.5 8.9-5.4 14.5-5.6zm108 26.4h-8.1c-3.2 0-5.3-2.1-5.3-5.2s2.1-5.2 5.3-5.3h16.3c2.8 0 4.8 2.2 4.9 5.2.1 2.9-2 5.2-4.8 5.2-2.8.1-5.6.1-8.3.1zM25.1 122.3H33c3.1 0 5.3 2.2 5.2 5.3 0 3-2.2 5.1-5.3 5.2h-16c-3.1 0-5.2-2.1-5.2-5.2s2.1-5.3 5.2-5.3h8.2zm12.8 88.8c.4-.7.8-2.1 1.7-3 3.5-3.7 7.1-7.2 10.7-10.7 2.2-2.1 5.4-2.1 7.5 0 2 2.1 2 5.3-.1 7.4-3.6 3.7-7.2 7.3-10.9 10.9-1.6 1.6-3.6 1.8-5.6.9-2-1-3.1-2.6-3.3-5.5zm173.2 6.1c-.7-.4-2-.8-2.8-1.6-3.7-3.6-7.3-7.2-10.9-10.9-2-2-2-5.2 0-7.3 1.9-2 5.2-2.2 7.3-.3 3.8 3.7 7.5 7.4 11.2 11.2 1.5 1.5 1.7 3.4.9 5.3-1.1 2.2-2.8 3.4-5.7 3.6zM53.8 59.7c-1.1-.6-2.5-1.1-3.4-1.9-3.6-3.4-7.1-6.9-10.5-10.4-2.3-2.3-2.4-5.5-.2-7.7 2.1-2.1 5.4-2 7.6.2 3.6 3.5 7.1 7.1 10.6 10.6 1.6 1.6 2 3.5 1.1 5.6-.9 1.8-3 3.3-5.2 3.6zm147.8-.2c-2.8-.3-4.5-1.4-5.4-3.4-1-2.1-.6-4 1-5.6 3.6-3.7 7.2-7.3 10.9-10.9 2-2 5.3-2 7.3 0s2.3 5.2.3 7.3c-3.7 3.8-7.5 7.6-11.3 11.3-.9.7-2.1.9-2.8 1.3zm-68.8-37v5.6c-.1 2.8-2.3 4.9-5.2 4.8-3 0-5.1-2-5.2-4.9-.1-3.8-.1-7.5 0-11.3 0-2.8 2.4-5.1 5.2-5.1 2.8 0 5.2 2.2 5.2 5.1v5.8zm0 210.4v5.5c0 2.9-2.2 5-5.3 5-3 0-5.1-2-5.2-4.9v-11.4c0-2.7 2.4-4.9 5.2-4.9 2.8 0 5 2.1 5.2 4.8v.3c.1 1.8.1 3.7.1 5.6z"/></symbol><symbol viewBox="0 0 255.1 255.1" id="delivery-car" xmlns="http://www.w3.org/2000/svg"><path d="M38 181.4c-7.6 0-15 .2-22.3-.1-4.6-.2-7.7-3.9-7.7-8.6v-54.9c0-5.4 3.2-8.3 8.9-8.4 8.6-.1 17.2 0 25.8 0H88c3.4 0 6.7-.2 9.3-2.7 1.4-1.3 2.3-2.7 2.2-4.7-.1-11.7-.1-23.3 0-35 0-1.4.1-2.9.5-4.3.8-3.3 3.7-5.7 7.1-5.7 7.6-.1 15.2-.2 22.9-.2 7.2 0 14.5.2 21.7-.1 7.2-.2 13.9 1.1 19.9 5.4 3.6 2.6 6.5 5.8 8.4 9.7 4.2 8.4 8.3 16.8 12.4 25.2 2.8 5.8 7.7 8.7 13.5 10.3 6.2 1.7 12.6 2.9 18.8 4.6 10.9 2.9 17.3 11 17.5 22.3.2 9.8-.2 19.7.2 29.5.3 9.9-6 17.2-15.2 17.6-5.4.2-10.8 0-16.4 0 .5-11.1-3.6-20.3-11.6-27.8-6.9-6.5-15.3-9.5-24.8-9.4-17.9.1-35.4 15-35.2 37.1h-29.8c-.2-24.3-19.5-37.2-36-37-17.6.2-35.6 14-35.4 37.2zm147.5-73.7c-1.2-2.1-2.4-4-3.4-5.9-3.4-6.8-6.8-13.6-10.1-20.5-2.2-4.6-5.6-8.2-10.1-10.5-2.9-1.4-6.1-2.7-9.2-2.9-7-.4-14.1-.1-21.2-.1v39.9h54z"/><path d="M175.3 211.9c-17.6-.3-31.8-13.6-32.2-32.1-.3-17.7 14.4-32.3 32.1-32.4 17.8-.1 32.2 14.3 32.3 32.1.2 17.9-14.2 32.3-32.2 32.4zm14-32.3c0-7.7-6.2-13.8-13.9-13.9-7.4-.1-14 6.4-14 14-.1 7.4 6.7 14.1 14 14 7.7-.2 13.9-6.4 13.9-14.1zM73.4 211.8c-17.1.4-33-14.5-31.9-33.9.9-16.8 15-30.8 33.1-30.3 17.3.4 31.5 14.9 31.4 32.4-.3 17.7-14.8 31.9-32.6 31.8zm.2-46c-7.9 0-13.9 6.1-13.9 13.9 0 7.8 6.1 13.9 13.9 13.9 7.7 0 14-6.2 14-13.9 0-7.8-6.2-13.9-14-13.9z"/></symbol><symbol viewBox="0 0 255.1 255.1" id="diamond" xmlns="http://www.w3.org/2000/svg"><path class="est0" d="M183.4 90.9c-1.1-1.5-2.8-2.5-4.7-2.5H79c-1.9 0-3.6.9-4.7 2.5L51 125c-1.4 2.1-1.3 4.9.3 6.8l73.2 89c1.1 1.3 2.7 2.1 4.4 2.1s3.3-.8 4.4-2.1l73.2-89c1.6-1.9 1.7-4.7.3-6.8l-23.4-34.1zm-60.2 26.6L97.3 99.8h25.9v17.7zm11.3-17.7h25.9l-25.9 17.7V99.8zm-11.3 101.6l-55.6-67.5h55.6v67.5zm11.3-67.5h55.6l-55.6 67.5v-67.5zm56.9-11.4h-44.2l30.1-20.6 14.1 20.6zM80.5 102l30.1 20.6H66.4L80.5 102zm-45.8 20.5H22.2c-3.1 0-5.7 2.5-5.7 5.7 0 3.1 2.5 5.7 5.7 5.7h12.5c3.1 0 5.7-2.5 5.7-5.7-.1-3.1-2.6-5.7-5.7-5.7zm200.1 0h-12.5c-3.1 0-5.7 2.5-5.7 5.7 0 3.1 2.5 5.7 5.7 5.7h12.5c3.1 0 5.7-2.5 5.7-5.7 0-3.1-2.6-5.7-5.7-5.7zM128.9 77.8c3.1 0 5.7-2.5 5.7-5.7V59.7c0-3.1-2.5-5.7-5.7-5.7s-5.7 2.5-5.7 5.7v12.5c0 3.1 2.5 5.6 5.7 5.6zM62.6 82c1.1 1.1 2.6 1.7 4 1.7s2.9-.6 4-1.7c2.2-2.2 2.2-5.8 0-8l-8.8-8.8c-2.2-2.2-5.8-2.2-8 0s-2.2 5.8 0 8l8.8 8.8zm128.6 1.7c1.4 0 2.9-.6 4-1.7l8.8-8.8c2.2-2.2 2.2-5.8 0-8s-5.8-2.2-8 0l-8.8 8.8c-2.2 2.2-2.2 5.8 0 8 1.1 1.1 2.5 1.7 4 1.7z"/></symbol><symbol viewBox="0 0 255.1 255.1" id="geotag" xmlns="http://www.w3.org/2000/svg"><path d="M192.7 89c0 3.9.2 7.8-.1 11.7-.3 3.7-.8 7.5-1.7 11.1-1.8 7-3.7 13.9-5.9 20.7-1.7 5.5-3.5 11-5.9 16.2-4.4 9.6-9.1 19-14 28.3-3.5 6.7-7.4 13.2-11.5 19.6-4.8 7.5-9.9 14.8-15.1 22-2.9 4.2-6.1 8.2-9.2 12.3-1.4 1.8-2.3 1.9-3.6.1-7.1-9.7-14.2-19.4-21.1-29.3-2.7-3.9-5-8.1-7.4-12.3-3.6-6.2-7.4-12.3-10.8-18.7-2.8-5.3-5-11-7.8-16.3-3.8-7.4-6.8-15.2-9.3-23.2-2-6.5-3.8-13-5.3-19.7-1-4.2-1.4-8.6-1.7-12.9-.3-5-.5-10.1-.3-15.2.2-6.3 1.6-12.4 3.9-18.3 1.8-4.4 3.6-8.9 6.4-12.8 2.1-3 4.5-5.7 6.8-8.5C84.8 37 92 32.3 99.9 28.5c5.9-2.8 12.1-4.9 18.7-5.3 5.3-.3 10.7-.6 16-.3 6.6.4 12.9 2.2 19 4.9 5.3 2.4 10.4 5.2 14.8 8.9 3.3 2.7 6.1 6 9 9 1.3 1.3 2.6 2.7 3.5 4.2 2.7 4.5 5.5 9 7.7 13.7 2.6 5.5 3.7 11.6 4.4 17.6.3 2.5 0 5.1 0 7.7-.1.1-.2.1-.3.1zm-65.2-40.1c-1.6.2-3.2.3-4.8.5-4.1.5-7.9 1.5-11.6 3.3-5.7 2.9-10.7 6.7-14.7 11.8-3 3.9-5.3 8.2-6.6 13.1-1.2 4.4-1.7 8.9-1.4 13.5.4 5.8 2 11.1 4.7 16.1 2.9 5.3 7 9.8 11.9 13.2 7.5 5.2 15.9 7.4 25 7 5-.2 9.8-1.5 14.1-3.6 3.8-1.9 7.1-4.9 10.6-7.4.7-.5 1.2-1.5 1.8-2.1 4.3-4.1 6.7-9.4 8.4-14.9 1.8-5.7 2.2-11.7 1.1-17.6-.9-5.1-2.7-9.9-5.3-14.2-3.4-5.6-8.2-10.1-13.8-13.2-5.8-3.5-12.3-5.6-19.4-5.5z"/></symbol><symbol viewBox="0 0 255.1 255.1" id="quality" xmlns="http://www.w3.org/2000/svg"><path d="M82.7 159c-.2-1.9-.2-3.8-.6-5.6-1.1-4.5-5.5-8.1-10.1-8.3-2.2-.1-4.5-.1-6.7-.1-4.6-.1-8.1-3-9-7.5-.4-2-.1-3.9.9-5.7 1.1-1.9 2.1-3.9 3.2-5.8 2.7-4.6 1.2-12.1-4-15.1l-5.4-3.3c-6-3.6-6.1-11.7-.1-15.5 1.8-1.1 3.6-2.3 5.5-3.3 4.9-2.8 7-10.2 4.1-15.1-1.2-1.9-2.3-3.9-3.3-5.9-2.7-5.3.3-11.6 6.1-12.8 1.1-.2 2.4-.2 3.5-.3 1.9-.1 3.8 0 5.7-.2 5.1-.4 9.7-5.1 10-10.2.1-2.3.1-4.7.2-7 .1-4.7 3.1-8.2 7.7-9 2-.3 4 .1 5.8 1.1l5.4 3c5.1 2.9 12.2 1.1 15.3-3.9 1.1-1.8 2.1-3.6 3.2-5.4 3.7-6.2 12-6.2 15.7 0l3.3 5.4c3.1 5 10 6.8 15.2 3.9 1.8-1 3.6-2 5.5-3 6-3.3 13.2.8 13.4 7.6.1 2.1 0 4.2.1 6.3.1 6.4 5.1 11.3 11.5 11.3 2 0 3.9 0 5.9.1 4.5.1 8.1 3.1 8.9 7.5.4 2 0 3.9-.9 5.7-1.1 1.9-2.2 3.9-3.2 5.8-2.8 5.2-1 12 4 15.1 2.2 1.3 4.4 2.5 6.5 4 4.9 3.7 4.6 11.1-.5 14.5-1.9 1.3-3.9 2.4-5.9 3.6-5.1 3.1-6.9 10-4 15.2 1 1.8 2 3.6 3 5.5 3.4 6.1-.8 13.4-7.8 13.5-2.1 0-4.2.1-6.3.1-5.6-.1-11.1 5.2-11.1 11.1 0 2.1 0 4.1-.1 6.2-.1 4.6-3 8.1-7.5 9-1.9.4-3.8.1-5.5-.8-1.9-1-3.9-2.1-5.8-3.2-5.1-3.1-12.8-1.1-15.6 4.2-1 1.9-2.2 3.7-3.4 5.5-3.5 5.5-11.4 5.5-15 0-1.2-1.9-2.3-3.8-3.4-5.7-3.1-5.2-9.9-7.1-15.2-4.2-2 1.1-4 2.3-6 3.3-5.2 2.7-11.6-.3-12.8-6-.3-1.3-.2-2.7-.3-4v-1.5l-.1-.1zm40.6-49.6c-.4-.4-.5-.6-.7-.8-4.4-4.5-8.9-8.9-13.3-13.4-2.1-2.1-4.6-3-7.5-2.4-3.2.6-5.4 2.6-6.3 5.7-.9 3.1-.1 5.8 2.1 8.1 6.6 6.7 13.3 13.3 20 20 .6.6 1.4 1.1 2.1 1.5 3.2 1.6 6.8.9 9.5-1.8l36.6-36.6c.2-.2.4-.4.5-.6 3.9-4.2 2.1-11.2-3.3-13.1-3.4-1.1-6.3-.3-8.8 2.2l-30.3 30.3c-.2.2-.3.5-.6.9zm81.5 106.8c-1.8-.1-3.4-.3-5.1-.4-5.1-.4-10.2-.9-15.3-1.3-3.3-.3-6.5-.6-9.8-.9-.9-.1-1.6.1-2.2.9-6.5 7.7-13.1 15.4-19.6 23.1-.1.2-.3.3-.5.5-5.8-13.9-11.6-27.7-17.4-41.6 6.9-2.1 12-6.3 15.5-12.7 6.5 3.9 13.3 5.1 20.6 3 7.2-2.1 12.4-6.8 15.9-13.5 5.9 14.3 11.9 28.5 17.9 42.9zm-99.5-32.4c3.4 6.3 8.6 10.5 15.5 12.7-5.8 13.9-11.6 27.7-17.4 41.7-1.5-1.7-2.9-3.4-4.3-5.1-5.5-6.4-10.9-12.8-16.4-19.2-.2-.2-.6-.4-.8-.4-5.8.5-11.5 1-17.3 1.5-4.4.4-8.8.8-13.2 1.1h-.5c6-14.3 11.9-28.5 17.9-42.9 3.5 6.8 8.7 11.4 15.9 13.5 7.3 2.1 14.1 1 20.6-2.9z"/></symbol><symbol viewBox="0 0 255.1 255.1" id="quantity" xmlns="http://www.w3.org/2000/svg"><path d="M84 238.1c-1.1-.1-2.2-.1-3.4-.2-3.7-.2-7.5-.3-11.2-.7-4-.5-7.4-2.5-10.6-4.9-5.5-4.1-9.3-9.5-11.1-16.2-.5-1.9-.6-4-.7-6l-.3-32.1v-74.9c0-9.5.3-18.9.2-28.4-.1-12 9.6-22.5 17.7-25.7 3.2-1.3 6.4-2.2 9.9-2.5.9-.1 1.5.1 1.5 1.1.1 1.5.2 3 .2 4.5v8.7c-1.8.4-3.6.6-5.2 1.2-4.5 1.6-7.3 5.1-9.2 9.2-.3.7-.2 1.6-.2 2.4 0 28.1-.1 56.2-.1 84.3 0 17.6-.1 35.3-.1 52.9 0 2.4 1.3 4.3 2.5 6.2 1.8 2.9 4.7 4.7 7.7 6.2.3.1.7.2 1 .2h110.2c.7 0 1.5-.2 2.1-.5 4.1-1.8 6.9-4.9 8.8-8.9.3-.5.4-1.2.4-1.8V72.9c0-1.8-1-3.1-1.9-4.5-2.2-3.4-5.2-5.8-9.1-6.9-1.1-.3-2.3-.3-3.5-.4V46.6c9.3.1 16.8 4.1 22.7 11.1 3 3.6 5.2 7.6 5.8 12.3.3 2.6.5 5.2.5 7.8.1 14.1.2 28.2.2 42.3 0 14.8.1 29.7 0 44.5 0 15.1-.1 30.3-.2 45.4-.1 10.3-5.3 17.7-13.4 23.4-2.9 2-6.1 3.5-9.5 4.1-1.5.3-3.1.3-4.7.4-2.4.1-4.7.2-7.1.2H84z"/><path d="M130.1 17c2 .4 4.2.6 6.1 1.3 11.1 4.1 18.3 11.6 20.5 23.5.3 1.5.5 2.9.7 4.5h14.7v1.5c-.1 9.1-.3 18.3-.3 27.4 0 3.6-1.7 6-4.8 7.6-.3.2-.8.2-1.2.2H89.6c-.6 0-1.3-.4-1.9-.7-2.5-1.4-3.9-3.5-3.9-6.4-.1-9.7-.2-19.5-.4-29.2 0-.1 0-.1.1-.3h14.6c.5-2.5 1-4.9 1.4-7.2 1.1-5.2 3.7-9.5 7.5-13.2 4-3.9 8.5-6.9 14-8.2 1.5-.3 3-.5 4.5-.8h4.6zm-17 29.3h29.5c-.3-9.5-8.4-15.2-15.6-14.7-9.1.5-14.5 8.7-13.9 14.7zm37.1 100h24.5c3.3 0 4.1.9 4.6 4.6.2 1.3-.2 2.7-.4 4-.2.9-.8 1.5-1.7 1.6-3 .3-6 .7-9 .7-12.3 0-24.5 0-36.8-.1-2.5 0-5-.2-7.4-.3-1 0-1.7-.6-2.1-1.4-1.3-2.4-1.3-5-.2-7.5.4-.9 1.1-1.4 2.1-1.4 5-.1 9.9-.3 14.9-.3 3.9-.1 7.7 0 11.6 0-.1 0-.1 0-.1.1zm-1.1 36.8h23.4c1.3 0 2.5.1 3.8.2 1.1.1 1.8.8 2.2 1.8 1 2.3.9 4.6.1 6.9-.5 1.5-2 1.6-3.3 1.6-6 .2-12 .4-18 .4-10 0-19.9-.1-29.9-.2-1.3 0-2.7 0-3.9-.3-.8-.2-1.6-1-2-1.7-1.1-2.1-1-4.3-.3-6.5.5-1.5 1.3-2 3-2H149c.1-.1.1-.2.1-.2zm.3-73.8h25.3c3.1 0 4.5 1.4 4.6 4.6 0 .8 0 1.7-.2 2.5-.5 2.8-1.3 3.4-4.1 3.5l-20.5.3c-7.5 0-15 0-22.4-.1-2.6 0-5.3-.1-7.9-.2-1.3 0-2.2-.8-2.7-1.9-1-2.2-1-4.4 0-6.6.5-1.2 1.4-1.8 2.8-1.8 8.4-.1 16.8-.3 25.1-.4-.1 0-.1 0 0 .1zm-59.9 81.6c2.3-3 4.5-5.8 6.6-8.6 2.1-2.7 4.2-5.3 6.3-7.9 2.1-2.5 4.2-2.9 7.1-1.5 2.5 1.2 3.8 4 3.1 6.7-.3 1-1 2-1.7 2.7l-13.2 12.9c-1.7 1.7-3.6 3.2-5.5 4.7-1 .8-2.2 1.7-3.6 1.3-1.2-.3-2.5-.9-3.3-1.7-2.7-2.7-5.3-5.5-7.8-8.5-2.1-2.6-1.1-6.6 1.8-8.4 1.5-.9 3.4-.7 4.7.8 1.2 1.4 2.2 2.9 3.3 4.4.7.9 1.4 1.9 2.2 3.1zm0-36.9c2.2-2.9 4.3-5.5 6.3-8.2 2.3-2.9 4.6-5.8 6.9-8.6 2-2.6 5-2.3 6.9-1.2 2.4 1.3 3.8 4.1 3 6.7-.4 1.3-1.3 2.5-2.3 3.4-5.8 5.5-11.6 11-17.5 16.4-3 2.7-5 2.6-7.9-.2-2.7-2.6-5.1-5.6-7.6-8.4-2.4-2.8-.1-7.4 2.5-8.4 1.2-.5 2.4-.4 3.4.5 1.1 1.1 2.1 2.3 3.1 3.5 1.1 1.3 2 2.8 3.2 4.5zm0-37c1.3-1.7 2.5-3.1 3.6-4.6 2.8-3.6 5.6-7.3 8.5-11 1.1-1.4 2.3-2.8 4.4-3.1 3.1-.4 6.3 2 6.7 5.1.3 2.2-.6 3.9-2.1 5.3-4 3.9-8.1 7.9-12.1 11.7-1.9 1.8-3.9 3.4-5.8 5.1-.4.4-.9.6-1.4.9-1.8 1.1-3.5 1-5.1-.3-1.6-1.4-3.3-2.9-4.7-4.5-1.5-1.7-2.9-3.5-4.3-5.3-1.9-2.4.2-7.7 3.7-8.3 1.2-.2 2.2.3 2.9 1.1 1.2 1.4 2.4 3 3.5 4.5.7 1.2 1.4 2.2 2.2 3.4z"/></symbol><symbol viewBox="0 0 22 46" id="sliderArrow" xmlns="http://www.w3.org/2000/svg"><path class="icls-1" d="M0 23L22 0v46z"/></symbol><symbol viewBox="0 0 255.1 255.1" id="watch" xmlns="http://www.w3.org/2000/svg"><path d="M11.4 134.5c.2-.3.5-.5.7-.8 9.4-15.6 18.8-31.2 28.1-46.8.2-.3.3-.5.6-.9 9.8 16.3 19.6 32.5 29.4 48.9H51.1c.2 2.1.4 4 .7 5.9 2.3 15.3 8.4 28.9 18.5 40.7 10.9 12.7 24.4 21.2 40.5 25.7 9.4 2.7 19 3.6 28.8 2.8 13.7-1.1 26.4-5.3 37.9-12.9 18-11.8 30.1-28 35.4-48.9 6.6-26 1.4-49.9-15.1-71-11.8-15.1-27.2-25-45.9-29.5-5.2-1.3-10.5-1.9-15.8-2-1.6-.1-3.3-.2-4.9-.6-3.8-.9-6.1-3.3-6.8-7.2-.4-2.1-.4-4.2.1-6.2 1.3-4.9 5.4-7.9 10.2-7.8 25 .7 47 9 66 25.3 16.4 14.2 27.3 31.9 32.8 52.9 2.9 11 3.9 22.2 2.9 33.5-2.7 31.2-16.6 56.4-41.4 75.5-12.7 9.7-27 15.9-42.7 18.9-3.9.7-7.8 1.2-11.7 1.1-4.8-.1-9.7-.1-14.5 0-5.1.1-10-.6-15-1.6-33.9-7.4-61.9-31.1-74.7-63.4-3.9-9.8-6.1-20.1-6.9-30.6 0-.2 0-.4-.1-.7h-18v-.3z"/><path d="M144.5 103.8c0 9.4-.1 18.8 0 28.2 0 3.5-1.2 6.3-3.6 8.7-9.7 9.6-19.3 19.3-29 29-4.1 4.1-10.3 4.3-14.2.4-4.1-4.1-4.2-10.6 0-14.7 8.5-8.6 17.1-17.1 25.7-25.6.6-.6.8-1.2.8-2V75.1c0-3 .8-5.5 3-7.6 1.6-1.5 3.5-2.4 5.7-2.5 2-.1 4-.2 5.9.7 3.7 1.8 5.7 4.7 5.7 8.8.1 9.7 0 19.5 0 29.3zm-4.6 83c0 3.6-3 6.6-6.6 6.6-3.6 0-6.5-3-6.5-6.6 0-3.6 2.9-6.5 6.5-6.5s6.6 2.9 6.6 6.5zm50.9-65.1c3.7 0 6.5 2.9 6.5 6.6 0 3.6-2.9 6.5-6.5 6.4-3.6 0-6.5-2.9-6.5-6.6 0-3.6 2.9-6.4 6.5-6.4zM176.4 160c3.6 0 6.5 3 6.5 6.6 0 3.6-3 6.5-6.6 6.4-3.6 0-6.5-3-6.5-6.6.1-3.6 3-6.4 6.6-6.4zm6.5-71.5c0 3.6-3 6.6-6.6 6.5-3.6 0-6.5-3-6.5-6.6 0-3.6 2.9-6.5 6.5-6.5 3.7 0 6.6 2.9 6.6 6.6z"/></symbol></svg>