<?xml version="1.0" encoding="utf-8"?>
<!-- Generator: Adobe Illustrator 24.1.2, SVG Export Plug-In . SVG Version: 6.00 Build 0)  -->
<svg version="1.1" id="Layer_1" xmlns="http://www.w3.org/2000/svg" xmlns:xlink="http://www.w3.org/1999/xlink" x="0px" y="0px"
	 viewBox="0 0 255.1 255.1" style="enable-background:new 0 0 255.1 255.1;" xml:space="preserve">
<style type="text/css">
	.st0{fill:#FFFFFF;}
	.st1{fill:url(#shape_3_1_);}
	.st2{fill:url(#SVGID_1_);}
	.st3{fill-rule:evenodd;clip-rule:evenodd;fill:#FFFFFF;}
</style>
<g id="shape_4">
	<path class="st0" d="M21.1,231.5l15.4-56.4C27,158.7,22,140,22,120.8C22.1,60.8,70.9,12,130.9,12c29.1,0,56.4,11.3,77,31.9
		c20.5,20.6,31.8,47.9,31.8,77c0,60-48.8,108.8-108.8,108.8c0,0,0,0,0,0h0c-18.2,0-36.1-4.6-52-13.2L21.1,231.5z M81.5,196.7l3.3,2
		c13.9,8.2,29.8,12.6,46,12.6h0c49.8,0,90.4-40.6,90.4-90.4c0-24.2-9.4-46.9-26.5-64c-17.1-17.1-39.8-26.5-63.9-26.5
		c-49.9,0-90.5,40.6-90.5,90.4c0,17.1,4.8,33.7,13.8,48.1l2.2,3.4l-9.1,33.4L81.5,196.7z"/>
</g>
<linearGradient id="shape_3_1_" gradientUnits="userSpaceOnUse" x1="130.3943" y1="227.7272" x2="130.3943" y2="15.8214">
	<stop  offset="0" style="stop-color:#20B038"/>
	<stop  offset="1" style="stop-color:#60D66A"/>
</linearGradient>
<path id="shape_3" class="st1" d="M24.9,227.7l14.9-54.4c-9.2-15.9-14-34-14-52.5c0-57.9,47.1-105,105-105
	c28.1,0,54.5,10.9,74.3,30.8c19.8,19.8,30.7,46.2,30.7,74.3c0,57.9-47.1,105-105,105c0,0,0,0,0,0h0c-17.6,0-34.9-4.4-50.2-12.8
	L24.9,227.7z"/>
<g id="shape_2">
	<g>
		<linearGradient id="SVGID_1_" gradientUnits="userSpaceOnUse" x1="130.3951" y1="231.5253" x2="130.3951" y2="12.0205">
			<stop  offset="0" style="stop-color:#F9F9F9"/>
			<stop  offset="1" style="stop-color:#FFFFFF"/>
		</linearGradient>
		<path class="st2" d="M21.1,231.5l15.4-56.4C27,158.7,22,140,22,120.8C22.1,60.8,70.9,12,130.9,12c29.1,0,56.4,11.3,77,31.9
			c20.5,20.6,31.8,47.9,31.8,77c0,60-48.8,108.8-108.8,108.8c0,0,0,0,0,0h0c-18.2,0-36.1-4.6-52-13.2L21.1,231.5z M81.5,196.7l3.3,2
			c13.9,8.2,29.8,12.6,46,12.6h0c49.8,0,90.4-40.6,90.4-90.4c0-24.2-9.4-46.9-26.5-64c-17.1-17.1-39.8-26.5-63.9-26.5
			c-49.9,0-90.5,40.6-90.5,90.4c0,17.1,4.8,33.7,13.8,48.1l2.2,3.4l-9.1,33.4L81.5,196.7z"/>
	</g>
</g>
<g id="shape_1">
	
		<image style="overflow:visible;opacity:6.000000e-02;" width="595" height="561" transform="matrix(0.24 0 0 0.24 59.3999 57.2199)">
		</image>
	<g>
		<path class="st3" d="M103.7,75.3c-2-4.5-4.2-4.6-6.1-4.7c-1.6-0.1-3.4-0.1-5.2-0.1c-1.8,0-4.8,0.7-7.2,3.4
			c-2.5,2.7-9.5,9.3-9.5,22.7c0,13.4,9.7,26.3,11.1,28.1c1.4,1.8,18.8,30.1,46.4,41c23,9.1,27.6,7.3,32.6,6.8
			c5-0.5,16.1-6.6,18.4-12.9c2.3-6.3,2.3-11.8,1.6-12.9c-0.7-1.1-2.5-1.8-5.2-3.2c-2.7-1.4-16.1-7.9-18.6-8.8
			c-2.5-0.9-4.3-1.4-6.1,1.4c-1.8,2.7-7,8.8-8.6,10.7c-1.6,1.8-3.2,2-5.9,0.7c-2.7-1.4-11.5-4.2-21.9-13.5
			c-8.1-7.2-13.5-16.1-15.1-18.8c-1.6-2.7-0.2-4.2,1.2-5.5c1.2-1.2,2.7-3.2,4.1-4.8c1.4-1.6,1.8-2.7,2.7-4.5
			c0.9-1.8,0.5-3.4-0.2-4.8S106.1,80.7,103.7,75.3z"/>
	</g>
</g>
</svg>
