<?xml version="1.0" encoding="utf-8"?>
<!-- Generator: Adobe Illustrator 24.1.2, SVG Export Plug-In . SVG Version: 6.00 Build 0)  -->
<svg version="1.1" id="Layer_1" xmlns="http://www.w3.org/2000/svg" xmlns:xlink="http://www.w3.org/1999/xlink" x="0px" y="0px"
	 viewBox="0 0 11.3 11.3" style="enable-background:new 0 0 11.3 11.3;" xml:space="preserve">
<style type="text/css">
	.st0{fill:#fff;}
</style>
<g>
	<g>
		<path class="st0" d="M0,7.5c0-1.4,0-2.8,0-4.1c0,0,0,0,0,0c0-0.2,0-0.4,0-0.6c0-0.1,0-0.2,0-0.2c0,0,0-0.1,0-0.1
			c0-0.1,0-0.2,0-0.4C0.2,1.5,0.4,1,0.9,0.6c0.2-0.2,0.5-0.4,0.8-0.5c0.1,0,0.3-0.1,0.4-0.1c0.1,0,0.2,0,0.4,0c0.1,0,0.2,0,0.3,0
			c0,0,0,0,0,0c1.9,0,3.7,0,5.6,0c0,0,0,0,0,0c0.1,0,0.2,0,0.3,0C8.9,0,9,0,9.1,0c0.2,0,0.4,0.1,0.6,0.2c0.4,0.2,0.8,0.4,1.1,0.8
			c0.2,0.3,0.4,0.6,0.4,0.9c0.1,0.2,0.1,0.5,0.1,0.7c0,0.1,0,0.3,0,0.4c0,0,0,0,0,0c0,1.7,0,3.4,0,5.1c0,0,0,0,0,0
			c0,0.1,0,0.3,0,0.4c0,0.2,0,0.3,0,0.5c0,0.3-0.1,0.5-0.2,0.8c-0.2,0.4-0.5,0.7-0.8,1c-0.3,0.2-0.5,0.3-0.8,0.3
			c-0.3,0.1-0.5,0.1-0.8,0.1c-0.1,0-0.2,0-0.3,0c0,0,0,0,0,0c-1.5,0-3,0-4.4,0c0,0,0,0-0.1,0c-0.3,0-0.6,0-0.9,0c-0.1,0-0.2,0-0.3,0
			c-0.1,0-0.3,0-0.4,0c-0.3,0-0.6-0.1-0.8-0.3c-0.3-0.1-0.5-0.3-0.7-0.6c-0.2-0.3-0.4-0.6-0.5-0.9C0.1,9.3,0,9,0,8.7
			c0-0.2,0-0.4,0-0.6C0,7.9,0,7.7,0,7.5C0,7.5,0,7.5,0,7.5z M9.9,5.7C9.9,5.7,9.9,5.7,9.9,5.7c0-0.1,0-0.3,0-0.4c0-0.2,0-0.5,0-0.7
			c0-0.2,0-0.3,0-0.5c0-0.2,0-0.3,0-0.5c0-0.2-0.1-0.4-0.1-0.6C9.5,2.6,9.3,2.3,9,2C8.8,1.9,8.5,1.7,8.2,1.6C8,1.6,7.7,1.5,7.4,1.5
			c-0.2,0-0.3,0-0.5,0c-0.1,0-0.3,0-0.4,0c-0.3,0-0.5,0-0.8,0c-0.4,0-0.8,0-1.1,0c-0.2,0-0.3,0-0.5,0c-0.1,0-0.3,0-0.4,0
			C3.4,1.6,3.2,1.6,3,1.7C2.6,1.8,2.2,2.1,2,2.5C1.8,2.7,1.7,3,1.6,3.3C1.6,3.5,1.5,3.7,1.5,3.9c0,0.2,0,0.3,0,0.5
			c0,0.1,0,0.3,0,0.4c0,0.7,0,1.3,0,2c0,0.1,0,0.2,0,0.3c0,0.2,0,0.3,0,0.5c0,0.2,0,0.3,0.1,0.5c0,0.2,0.1,0.4,0.2,0.7
			c0.1,0.2,0.3,0.4,0.4,0.6c0.2,0.2,0.4,0.3,0.6,0.4c0.3,0.1,0.6,0.2,1,0.2c0.1,0,0.2,0,0.3,0c0.2,0,0.3,0,0.5,0c0.4,0,0.9,0,1.3,0
			c0.3,0,0.6,0,0.8,0c0.2,0,0.3,0,0.5,0c0.2,0,0.3,0,0.5,0c0.2,0,0.4-0.1,0.6-0.1c0.2-0.1,0.4-0.2,0.6-0.3C9,9.3,9.1,9.2,9.2,9.1
			c0.1-0.1,0.2-0.2,0.3-0.4C9.7,8.3,9.8,8,9.8,7.6c0-0.1,0-0.3,0-0.4c0-0.2,0-0.3,0-0.5C9.9,6.3,9.9,6,9.9,5.7z"/>
		<path class="st0" d="M5.8,9.1c-0.3,0-0.6,0-0.9,0c-0.2,0-0.3,0-0.5,0c-0.2,0-0.3,0-0.5,0C3.8,9.1,3.6,9,3.4,9
			C3.2,8.9,3,8.9,2.9,8.7C2.6,8.6,2.5,8.3,2.4,8.1C2.3,7.9,2.3,7.8,2.3,7.6c0-0.1,0-0.3,0-0.4c0-0.2,0-0.3,0-0.5c0-0.2,0-0.4,0-0.6
			c0-0.4,0-0.9,0-1.3c0-0.2,0-0.4,0-0.5c0-0.1,0-0.2,0-0.4c0-0.2,0.1-0.5,0.1-0.7C2.5,3,2.6,2.8,2.8,2.7c0.2-0.2,0.4-0.3,0.6-0.3
			c0.2,0,0.3-0.1,0.5-0.1c0.1,0,0.3,0,0.4,0c0.4,0,0.7,0,1.1,0c0.4,0,0.9,0,1.3,0c0.2,0,0.3,0,0.5,0c0.1,0,0.2,0,0.3,0
			c0.2,0,0.4,0.1,0.6,0.1C8.4,2.5,8.7,2.7,8.8,3C8.9,3.2,9,3.3,9,3.5c0,0.1,0,0.3,0.1,0.5c0,0.2,0,0.4,0,0.6c0,0.2,0,0.5,0,0.7
			c0,0.5,0,0.9,0,1.4c0,0.2,0,0.3,0,0.5c0,0.1,0,0.3,0,0.4C9,7.8,9,8.1,8.9,8.3c0,0.1-0.1,0.2-0.2,0.3C8.5,8.8,8.3,8.9,8,9
			C7.8,9,7.7,9.1,7.5,9.1c-0.2,0-0.4,0-0.5,0c-0.1,0-0.2,0-0.4,0C6.4,9.1,6.1,9.1,5.8,9.1C5.8,9.1,5.8,9.1,5.8,9.1z M3.5,5.7
			c0,1.2,1,2.1,2.1,2.1c1.2,0,2.1-1,2.1-2.1c0-1.2-1-2.1-2.1-2.1C4.5,3.5,3.5,4.5,3.5,5.7z M8.4,3.4c0-0.3-0.2-0.5-0.5-0.5
			c-0.3,0-0.5,0.2-0.5,0.5c0,0.3,0.2,0.5,0.5,0.5C8.2,3.9,8.4,3.7,8.4,3.4z"/>
		<path class="st0" d="M4.3,5.7c0-0.8,0.6-1.4,1.4-1.4c0.8,0,1.4,0.6,1.4,1.3c0,0.8-0.6,1.4-1.4,1.4C4.9,7.1,4.3,6.5,4.3,5.7z"/>
	</g>
</g>
</svg>
