<?xml version="1.0" encoding="utf-8"?>
<!-- Generator: Adobe Illustrator 24.1.2, SVG Export Plug-In . SVG Version: 6.00 Build 0)  -->
<svg version="1.1" id="Layer_1" xmlns="http://www.w3.org/2000/svg" xmlns:xlink="http://www.w3.org/1999/xlink" x="0px" y="0px"
	 viewBox="0 0 255.1 255.1" style="enable-background:new 0 0 255.1 255.1;" xml:space="preserve">
<style type="text/css">
	.st0{fill:#5181B8;}
	.st1{fill:#FFFFFF;}
</style>
<g>
	<path class="st0" d="M11.3,124.5c0-16,0-32.1,0-48.1c0-10.9-0.2-21.7,0.2-32.6C12,29.3,23.2,15.7,38.7,12.2
		c3.4-0.8,6.9-1.1,10.3-1.1c52.3-0.1,104.7-0.1,157,0c15.7,0,27.6,6.6,34.7,21c2.4,4.9,3.3,10.2,3.3,15.5c0.1,53,0.1,106,0,159
		c0,18.6-11.1,32.6-28.8,36.5c-2.7,0.6-5.6,0.9-8.4,0.9c-52.9,0-105.8,0.1-158.7,0c-19.7,0-33.6-13.4-36.3-29.4
		c-0.5-3.1-0.7-6.3-0.8-9.5c-0.1-8.1,0-16.1,0-24.2c0-14.4,0-28.9,0-43.3c0-4.4,0-8.8,0-13.2C11.1,124.5,11.2,124.5,11.3,124.5z
		 M188.4,174.8C188.4,174.8,188.4,174.8,188.4,174.8c2,0,3.9,0,5.9,0c2.1,0,4.1,0.1,6.2,0c6.9-0.3,9.4-4.7,5.9-10.6
		c-1.1-1.9-2.3-3.9-3.8-5.5c-5.9-6.3-12-12.3-18-18.6c-3.2-3.4-3.5-5.7-0.9-9.5c2.8-4.1,5.9-8,8.8-12c5.4-7.3,11.1-14.4,14.6-22.9
		c2.3-5.6,0.3-8.5-5.7-8.5c-8.8-0.1-17.6,0.1-26.4-0.1c-2.8,0-4.4,1.2-5.5,3.5c-0.6,1.2-1,2.4-1.5,3.6c-4.2,10.4-9.7,20.1-16.7,28.8
		c-1.2,1.4-2.6,2.6-4.1,3.8c-1.6,1.3-3.2,0.9-3.9-0.9c-0.9-2.1-1.7-4.4-1.7-6.7c0-8.6,0.4-17.2,0.4-25.9c0-6.4-2.2-9.1-8.5-9.6
		c-6.8-0.5-13.7-0.6-20.5-0.4c-3.9,0.1-7.9,0.6-10.9,3.7c-2.2,2.2-2,3.1,1,3.9c3.6,1,5.9,3.2,6.4,7c0.4,3,1,6.1,0.9,9.2
		c-0.3,5.9-0.7,11.9-1.6,17.8c-0.5,3.1-3,3.7-5.5,1.8c-1.5-1.1-2.8-2.5-3.9-4c-7-9.2-12.4-19.4-16.8-30.1c-1.6-3.9-4.2-5.6-8.4-5.5
		c-6.9,0.1-13.9,0-20.8,0.1c-5.3,0-7,2.4-4.9,7.1c8.1,18.1,17.2,35.6,28.9,51.7c6.5,8.9,14,16.8,23.9,22.3c10,5.5,20.7,7.2,32,6.7
		c6.6-0.3,8.1-1.5,8.8-8.1c0.3-3,0.7-6.2,1.8-9c1.6-4.3,4.8-5,8.4-2.1c1.3,1.1,2.5,2.3,3.7,3.5c3.2,3.3,6.1,6.8,9.4,10.1
		c3.9,3.8,8.5,6.1,14.1,5.7C182.4,174.6,185.4,174.8,188.4,174.8z"/>
	<path class="st1" d="M188.4,174.8c-3,0-6-0.2-9,0c-5.7,0.4-10.3-1.8-14.1-5.7c-3.3-3.2-6.3-6.7-9.4-10.1c-1.2-1.2-2.3-2.4-3.7-3.5
		c-3.6-2.9-6.8-2.2-8.4,2.1c-1.1,2.8-1.5,6-1.8,9c-0.7,6.6-2.2,7.8-8.8,8.1c-11.3,0.5-22-1.3-32-6.7c-9.9-5.4-17.3-13.3-23.9-22.3
		c-11.7-16.1-20.8-33.6-28.9-51.7c-2.1-4.7-0.4-7.1,4.9-7.1c6.9,0,13.9,0.1,20.8-0.1c4.2-0.1,6.8,1.6,8.4,5.5
		c4.4,10.7,9.8,20.9,16.8,30.1c1.1,1.5,2.4,2.9,3.9,4c2.6,1.9,5.1,1.3,5.5-1.8c0.9-5.9,1.3-11.8,1.6-17.8c0.1-3-0.4-6.1-0.9-9.2
		c-0.5-3.7-2.8-6-6.4-7c-3-0.8-3.1-1.7-1-3.9c3-3.1,7.1-3.6,10.9-3.7c6.8-0.2,13.7-0.1,20.5,0.4c6.3,0.5,8.5,3.3,8.5,9.6
		c0,8.6-0.4,17.2-0.4,25.9c0,2.2,0.8,4.6,1.7,6.7c0.7,1.8,2.4,2.1,3.9,0.9c1.5-1.2,2.9-2.4,4.1-3.8c7-8.8,12.4-18.4,16.7-28.8
		c0.5-1.2,0.9-2.4,1.5-3.6c1.1-2.3,2.7-3.6,5.5-3.5c8.8,0.1,17.6,0,26.4,0.1c6,0,8,2.9,5.7,8.5c-3.5,8.5-9.2,15.6-14.6,22.9
		c-3,4-6,7.9-8.8,12c-2.6,3.8-2.3,6.2,0.9,9.5c5.9,6.2,12.1,12.3,18,18.6c1.5,1.6,2.7,3.6,3.8,5.5c3.5,5.9,1,10.3-5.9,10.6
		c-2.1,0.1-4.1,0-6.2,0C192.4,174.8,190.4,174.8,188.4,174.8C188.4,174.8,188.4,174.8,188.4,174.8z"/>
</g>
</svg>
