<?xml version="1.0" encoding="utf-8"?>
<!-- Generator: Adobe Illustrator 24.1.2, SVG Export Plug-In . SVG Version: 6.00 Build 0)  -->
<svg version="1.1" id="Layer_1" xmlns="http://www.w3.org/2000/svg" xmlns:xlink="http://www.w3.org/1999/xlink" x="0px" y="0px"
	 viewBox="0 0 255.1 255.1" style="enable-background:new 0 0 255.1 255.1;" xml:space="preserve">
<g>
	<path d="M133.2,13.6c1.6,0.2,3.3,0.3,4.9,0.5c14.2,1.1,27.8,4.8,40.7,10.9c3.7,1.8,7.3,3.7,11.3,5.8c-1.6,1.5-3,2.8-4.3,4.2
		c-4,3.9-8,7.9-11.8,11.9c-0.9,0.9-1.5,1-2.6,0.4c-9.1-4.9-18.7-8.5-28.9-10.4c-15.2-2.7-30-1.4-44.6,3.4c-15.2,5-28.2,13.4-39,25.2
		c-11.9,13.1-19.5,28.3-22.1,45.8c-3.9,25.4,1.6,48.6,16.8,69.3c12.5,17,29,28.6,49.3,34c31.4,8.3,60,2.2,84.7-19
		c16.1-13.8,25.6-31.6,29.7-52.3c0.2-1,0.5-2,0.5-2.9c0-1.6,0.7-1.9,2.2-1.9c6.8,0.1,13.6,0,20.4,0c0.4,0,0.8,0,1.1-0.1
		c0,0.4,0,0.8,0,1.1c-0.1,0.3-0.2,0.5-0.3,0.8c-0.8,4.3-1.3,8.6-2.3,12.9c-7.1,28.7-22.8,51.6-47.1,68.5
		c-15.6,10.8-32.9,17.1-51.7,19.2c-2.3,0.3-4.7,0.5-7,0.7c-3.6,0-7.2,0-10.8,0c-0.5-0.1-0.9-0.2-1.4-0.2
		c-10.2-0.5-20.2-2.5-29.9-5.8c-21-7.2-38.6-19.4-52.5-36.8c-14.2-17.7-22.2-38-24.3-60.6c-0.2-1.7-0.3-3.4-0.5-5.1
		c0-3.6,0-7.2,0-10.8c0.1-0.5,0.2-0.9,0.2-1.4c0.4-3.7,0.6-7.4,1.2-11c2.6-17.2,8.9-33,18.8-47.3C44.6,47.1,58.3,35,75,26.4
		c13.2-6.8,27.2-10.9,42-12.2c1.7-0.1,3.4-0.3,5.1-0.5C125.8,13.6,129.5,13.6,133.2,13.6z"/>
	<path d="M241.5,63.8c-2.2,2-4.4,4-6.6,6C220,83.9,205.2,98,190.3,112.1c-16.4,15.6-32.9,31.2-49.3,46.9c-7.4,7-14.7,14-22.1,21
		c-0.2,0.2-0.4,0.4-0.7,0.6c-19.2-19.7-38.4-39.4-57.5-59c5.2-5.2,10.4-10.3,15.6-15.4c13.8,13.8,27.7,27.8,41.8,41.9
		c36-33.9,71.8-67.7,107.8-101.5c5.3,5.7,10.4,11.4,15.6,17C241.5,63.6,241.5,63.7,241.5,63.8z"/>
</g>
</svg>
