<?xml version="1.0" encoding="utf-8"?>
<!-- Generator: Adobe Illustrator 24.1.2, SVG Export Plug-In . SVG Version: 6.00 Build 0)  -->
<svg version="1.1" id="Layer_1" xmlns="http://www.w3.org/2000/svg" xmlns:xlink="http://www.w3.org/1999/xlink" x="0px" y="0px"
	 viewBox="0 0 255.1 255.1" style="enable-background:new 0 0 255.1 255.1;" xml:space="preserve">
<g>
	<g>
		<path class="st0" d="M216,39.1C167.3-9.6,87.9-9.6,39.1,39.1c-23.6,23.6-36.6,55-36.6,88.4s13,64.8,36.6,88.4
			c24.4,24.4,56.4,36.6,88.4,36.6s64.1-12.2,88.4-36.6C264.8,167.2,264.8,87.9,216,39.1z M202.3,202.3
			c-41.2,41.2-108.3,41.2-149.5,0c-20-20-30.9-46.5-30.9-74.7s11-54.8,30.9-74.7c41.2-41.2,108.3-41.2,149.5,0
			C243.5,94,243.5,161.1,202.3,202.3z"/>
	</g>
</g>
<g>
	<g>
		<path class="st1" d="M169.3,154.3l-27.4-27.4l27.4-27.4c3.8-3.8,3.8-9.9,0-13.7c-3.8-3.8-9.9-3.8-13.7,0l-27.4,27.4l-27.4-27.4
			c-3.8-3.8-9.9-3.8-13.7,0c-3.8,3.8-3.8,9.9,0,13.7l27.4,27.4L87,154.3c-3.8,3.8-3.8,9.9,0,13.7c1.9,1.9,4.4,2.8,6.9,2.8
			c2.5,0,5-0.9,6.8-2.8l27.4-27.4l27.4,27.4c1.9,1.9,4.4,2.8,6.8,2.8s5-0.9,6.9-2.8C173.1,164.2,173.1,158.1,169.3,154.3z"/>
	</g>
</g>
</svg>
