<svg version="1.1" id="Layer_1" xmlns="http://www.w3.org/2000/svg" xmlns:xlink="http://www.w3.org/1999/xlink" x="0px" y="0px"
	 viewBox="0 0 255.1 255.1" >
<g>
	<path class="st0" d="M183.4,90.9c-1.1-1.5-2.8-2.5-4.7-2.5H79c-1.9,0-3.6,0.9-4.7,2.5L51,125c-1.4,2.1-1.3,4.9,0.3,6.8l73.2,89
		c1.1,1.3,2.7,2.1,4.4,2.1s3.3-0.8,4.4-2.1l73.2-89c1.6-1.9,1.7-4.7,0.3-6.8L183.4,90.9z M123.2,117.5L97.3,99.8h25.9V117.5z
		 M134.5,99.8h25.9l-25.9,17.7V99.8z M123.2,201.4l-55.6-67.5h55.6V201.4z M134.5,133.9h55.6l-55.6,67.5V133.9z M191.4,122.5h-44.2
		l30.1-20.6L191.4,122.5z M80.5,102l30.1,20.6H66.4L80.5,102z"/>
	<path class="st0" d="M34.7,122.5H22.2c-3.1,0-5.7,2.5-5.7,5.7c0,3.1,2.5,5.7,5.7,5.7h12.5c3.1,0,5.7-2.5,5.7-5.7
		C40.3,125.1,37.8,122.5,34.7,122.5z"/>
	<path class="st0" d="M234.8,122.5h-12.5c-3.1,0-5.7,2.5-5.7,5.7c0,3.1,2.5,5.7,5.7,5.7h12.5c3.1,0,5.7-2.5,5.7-5.7
		C240.5,125.1,237.9,122.5,234.8,122.5z"/>
	<path class="st0" d="M128.9,77.8c3.1,0,5.7-2.5,5.7-5.7V59.7c0-3.1-2.5-5.7-5.7-5.7s-5.7,2.5-5.7,5.7v12.5
		C123.2,75.3,125.7,77.8,128.9,77.8z"/>
	<path class="st0" d="M62.6,82c1.1,1.1,2.6,1.7,4,1.7c1.4,0,2.9-0.6,4-1.7c2.2-2.2,2.2-5.8,0-8l-8.8-8.8c-2.2-2.2-5.8-2.2-8,0
		c-2.2,2.2-2.2,5.8,0,8L62.6,82z"/>
	<path class="st0" d="M191.2,83.7c1.4,0,2.9-0.6,4-1.7l8.8-8.8c2.2-2.2,2.2-5.8,0-8c-2.2-2.2-5.8-2.2-8,0l-8.8,8.8
		c-2.2,2.2-2.2,5.8,0,8C188.3,83.1,189.7,83.7,191.2,83.7z"/>
</g>
</svg>
