<?xml version="1.0" encoding="utf-8"?>
<!-- Generator: Adobe Illustrator 24.1.2, SVG Export Plug-In . SVG Version: 6.00 Build 0)  -->
<svg version="1.1" id="Layer_1" xmlns="http://www.w3.org/2000/svg" xmlns:xlink="http://www.w3.org/1999/xlink" x="0px" y="0px"
	 viewBox="0 0 255.1 255.1" style="enable-background:new 0 0 255.1 255.1;" xml:space="preserve">
<g>
	<path d="M192.7,89c0,3.9,0.2,7.8-0.1,11.7c-0.3,3.7-0.8,7.5-1.7,11.1c-1.8,7-3.7,13.9-5.9,20.7c-1.7,5.5-3.5,11-5.9,16.2
		c-4.4,9.6-9.1,19-14,28.3c-3.5,6.7-7.4,13.2-11.5,19.6c-4.8,7.5-9.9,14.8-15.1,22c-2.9,4.2-6.1,8.2-9.2,12.3
		c-1.4,1.8-2.3,1.9-3.6,0.1c-7.1-9.7-14.2-19.4-21.1-29.3c-2.7-3.9-5-8.1-7.4-12.3c-3.6-6.2-7.4-12.3-10.8-18.7
		c-2.8-5.3-5-11-7.8-16.3c-3.8-7.4-6.8-15.2-9.3-23.2c-2-6.5-3.8-13-5.3-19.7c-1-4.2-1.4-8.6-1.7-12.9C62,93.6,61.8,88.5,62,83.4
		c0.2-6.3,1.6-12.4,3.9-18.3c1.8-4.4,3.6-8.9,6.4-12.8c2.1-3,4.5-5.7,6.8-8.5C84.8,37,92,32.3,99.9,28.5c5.9-2.8,12.1-4.9,18.7-5.3
		c5.3-0.3,10.7-0.6,16-0.3c6.6,0.4,12.9,2.2,19,4.9c5.3,2.4,10.4,5.2,14.8,8.9c3.3,2.7,6.1,6,9,9c1.3,1.3,2.6,2.7,3.5,4.2
		c2.7,4.5,5.5,9,7.7,13.7c2.6,5.5,3.7,11.6,4.4,17.6c0.3,2.5,0,5.1,0,7.7C192.9,89,192.8,89,192.7,89z M127.5,48.9
		c-1.6,0.2-3.2,0.3-4.8,0.5c-4.1,0.5-7.9,1.5-11.6,3.3c-5.7,2.9-10.7,6.7-14.7,11.8c-3,3.9-5.3,8.2-6.6,13.1
		c-1.2,4.4-1.7,8.9-1.4,13.5c0.4,5.8,2,11.1,4.7,16.1c2.9,5.3,7,9.8,11.9,13.2c7.5,5.2,15.9,7.4,25,7c5-0.2,9.8-1.5,14.1-3.6
		c3.8-1.9,7.1-4.9,10.6-7.4c0.7-0.5,1.2-1.5,1.8-2.1c4.3-4.1,6.7-9.4,8.4-14.9c1.8-5.7,2.2-11.7,1.1-17.6c-0.9-5.1-2.7-9.9-5.3-14.2
		c-3.4-5.6-8.2-10.1-13.8-13.2C141.1,50.9,134.6,48.8,127.5,48.9z"/>
</g>
</svg>
