<?xml version="1.0" encoding="utf-8"?>
<!-- Generator: Adobe Illustrator 24.1.2, SVG Export Plug-In . SVG Version: 6.00 Build 0)  -->
<svg version="1.1" id="Layer_1" xmlns="http://www.w3.org/2000/svg" xmlns:xlink="http://www.w3.org/1999/xlink" x="0px" y="0px"
	 viewBox="0 0 255.1 255.1" style="enable-background:new 0 0 255.1 255.1;" xml:space="preserve">
<g>
	<path d="M38,181.4c-7.6,0-15,0.2-22.3-0.1c-4.6-0.2-7.7-3.9-7.7-8.6c0-18.3,0-36.6,0-54.9c0-5.4,3.2-8.3,8.9-8.4
		c8.6-0.1,17.2,0,25.8,0c15.1,0,30.2,0,45.3,0c3.4,0,6.7-0.2,9.3-2.7c1.4-1.3,2.3-2.7,2.2-4.7c-0.1-11.7-0.1-23.3,0-35
		c0-1.4,0.1-2.9,0.5-4.3c0.8-3.3,3.7-5.7,7.1-5.7c7.6-0.1,15.2-0.2,22.9-0.2c7.2,0,14.5,0.2,21.7-0.1c7.2-0.2,13.9,1.1,19.9,5.4
		c3.6,2.6,6.5,5.8,8.4,9.7c4.2,8.4,8.3,16.8,12.4,25.2c2.8,5.8,7.7,8.7,13.5,10.3c6.2,1.7,12.6,2.9,18.8,4.6
		c10.9,2.9,17.3,11,17.5,22.3c0.2,9.8-0.2,19.7,0.2,29.5c0.3,9.9-6,17.2-15.2,17.6c-5.4,0.2-10.8,0-16.4,0
		c0.5-11.1-3.6-20.3-11.6-27.8c-6.9-6.5-15.3-9.5-24.8-9.4c-17.9,0.1-35.4,15-35.2,37.1c-9.9,0-19.9,0-29.8,0
		c-0.2-24.3-19.5-37.2-36-37C55.8,144.4,37.8,158.2,38,181.4z M185.5,107.7c-1.2-2.1-2.4-4-3.4-5.9c-3.4-6.8-6.8-13.6-10.1-20.5
		c-2.2-4.6-5.6-8.2-10.1-10.5c-2.9-1.4-6.1-2.7-9.2-2.9c-7-0.4-14.1-0.1-21.2-0.1c0,13.3,0,26.6,0,39.9
		C149.5,107.7,167.4,107.7,185.5,107.7z"/>
	<path d="M175.3,211.9c-17.6-0.3-31.8-13.6-32.2-32.1c-0.3-17.7,14.4-32.3,32.1-32.4c17.8-0.1,32.2,14.3,32.3,32.1
		C207.7,197.4,193.3,211.8,175.3,211.9z M189.3,179.6c0-7.7-6.2-13.8-13.9-13.9c-7.4-0.1-14,6.4-14,14c-0.1,7.4,6.7,14.1,14,14
		C183.1,193.5,189.3,187.3,189.3,179.6z"/>
	<path d="M73.4,211.8c-17.1,0.4-33-14.5-31.9-33.9c0.9-16.8,15-30.8,33.1-30.3c17.3,0.4,31.5,14.9,31.4,32.4
		C105.7,197.7,91.2,211.9,73.4,211.8z M73.6,165.8c-7.9,0-13.9,6.1-13.9,13.9c0,7.8,6.1,13.9,13.9,13.9c7.7,0,14-6.2,14-13.9
		C87.6,171.9,81.4,165.8,73.6,165.8z"/>
</g>
</svg>
