<?xml version="1.0" encoding="utf-8"?>
<!-- Generator: Adobe Illustrator 24.1.2, SVG Export Plug-In . SVG Version: 6.00 Build 0)  -->
<svg version="1.1" id="Layer_1" xmlns="http://www.w3.org/2000/svg" xmlns:xlink="http://www.w3.org/1999/xlink" x="0px" y="0px"
	 viewBox="0 0 255.1 255.1" style="enable-background:new 0 0 255.1 255.1;" xml:space="preserve">
<g>
	<path d="M82.7,159c-0.2-1.9-0.2-3.8-0.6-5.6c-1.1-4.5-5.5-8.1-10.1-8.3c-2.2-0.1-4.5-0.1-6.7-0.1c-4.6-0.1-8.1-3-9-7.5
		c-0.4-2-0.1-3.9,0.9-5.7c1.1-1.9,2.1-3.9,3.2-5.8c2.7-4.6,1.2-12.1-4-15.1c-1.8-1.1-3.6-2.2-5.4-3.3c-6-3.6-6.1-11.7-0.1-15.5
		c1.8-1.1,3.6-2.3,5.5-3.3c4.9-2.8,7-10.2,4.1-15.1c-1.2-1.9-2.3-3.9-3.3-5.9c-2.7-5.3,0.3-11.6,6.1-12.8c1.1-0.2,2.4-0.2,3.5-0.3
		c1.9-0.1,3.8,0,5.7-0.2c5.1-0.4,9.7-5.1,10-10.2c0.1-2.3,0.1-4.7,0.2-7c0.1-4.7,3.1-8.2,7.7-9c2-0.3,4,0.1,5.8,1.1
		c1.8,1,3.6,2,5.4,3c5.1,2.9,12.2,1.1,15.3-3.9c1.1-1.8,2.1-3.6,3.2-5.4c3.7-6.2,12-6.2,15.7,0c1.1,1.8,2.2,3.6,3.3,5.4
		c3.1,5,10,6.8,15.2,3.9c1.8-1,3.6-2,5.5-3c6-3.3,13.2,0.8,13.4,7.6c0.1,2.1,0,4.2,0.1,6.3c0.1,6.4,5.1,11.3,11.5,11.3
		c2,0,3.9,0,5.9,0.1c4.5,0.1,8.1,3.1,8.9,7.5c0.4,2,0,3.9-0.9,5.7c-1.1,1.9-2.2,3.9-3.2,5.8c-2.8,5.2-1,12,4,15.1
		c2.2,1.3,4.4,2.5,6.5,4c4.9,3.7,4.6,11.1-0.5,14.5c-1.9,1.3-3.9,2.4-5.9,3.6c-5.1,3.1-6.9,10-4,15.2c1,1.8,2,3.6,3,5.5
		c3.4,6.1-0.8,13.4-7.8,13.5c-2.1,0-4.2,0.1-6.3,0.1c-5.6-0.1-11.1,5.2-11.1,11.1c0,2.1,0,4.1-0.1,6.2c-0.1,4.6-3,8.1-7.5,9
		c-1.9,0.4-3.8,0.1-5.5-0.8c-1.9-1-3.9-2.1-5.8-3.2c-5.1-3.1-12.8-1.1-15.6,4.2c-1,1.9-2.2,3.7-3.4,5.5c-3.5,5.5-11.4,5.5-15,0
		c-1.2-1.9-2.3-3.8-3.4-5.7c-3.1-5.2-9.9-7.1-15.2-4.2c-2,1.1-4,2.3-6,3.3c-5.2,2.7-11.6-0.3-12.8-6c-0.3-1.3-0.2-2.7-0.3-4
		c0-0.5,0-1,0-1.5C82.7,159,82.7,159,82.7,159z M123.3,109.4c-0.4-0.4-0.5-0.6-0.7-0.8c-4.4-4.5-8.9-8.9-13.3-13.4
		c-2.1-2.1-4.6-3-7.5-2.4c-3.2,0.6-5.4,2.6-6.3,5.7c-0.9,3.1-0.1,5.8,2.1,8.1c6.6,6.7,13.3,13.3,20,20c0.6,0.6,1.4,1.1,2.1,1.5
		c3.2,1.6,6.8,0.9,9.5-1.8c12.2-12.2,24.4-24.4,36.6-36.6c0.2-0.2,0.4-0.4,0.5-0.6c3.9-4.2,2.1-11.2-3.3-13.1
		c-3.4-1.1-6.3-0.3-8.8,2.2c-10.1,10.1-20.2,20.2-30.3,30.3C123.7,108.7,123.6,109,123.3,109.4z"/>
	<path d="M204.8,216.2c-1.8-0.1-3.4-0.3-5.1-0.4c-5.1-0.4-10.2-0.9-15.3-1.3c-3.3-0.3-6.5-0.6-9.8-0.9c-0.9-0.1-1.6,0.1-2.2,0.9
		c-6.5,7.7-13.1,15.4-19.6,23.1c-0.1,0.2-0.3,0.3-0.5,0.5c-5.8-13.9-11.6-27.7-17.4-41.6c6.9-2.1,12-6.3,15.5-12.7
		c6.5,3.9,13.3,5.1,20.6,3c7.2-2.1,12.4-6.8,15.9-13.5C192.8,187.6,198.8,201.8,204.8,216.2z"/>
	<path d="M105.3,183.8c3.4,6.3,8.6,10.5,15.5,12.7c-5.8,13.9-11.6,27.7-17.4,41.7c-1.5-1.7-2.9-3.4-4.3-5.1
		c-5.5-6.4-10.9-12.8-16.4-19.2c-0.2-0.2-0.6-0.4-0.8-0.4c-5.8,0.5-11.5,1-17.3,1.5c-4.4,0.4-8.8,0.8-13.2,1.1c-0.1,0-0.3,0-0.5,0
		c6-14.3,11.9-28.5,17.9-42.9c3.5,6.8,8.7,11.4,15.9,13.5C92,188.8,98.8,187.7,105.3,183.8z"/>
</g>
</svg>
