<?xml version="1.0" encoding="utf-8"?>
<!-- Generator: Adobe Illustrator 24.1.2, SVG Export Plug-In . SVG Version: 6.00 Build 0)  -->
<svg version="1.1" id="Layer_1" xmlns="http://www.w3.org/2000/svg" xmlns:xlink="http://www.w3.org/1999/xlink" x="0px" y="0px"
	 viewBox="0 0 255.1 255.1" style="enable-background:new 0 0 255.1 255.1;" xml:space="preserve">
<g>
	<path d="M11.4,134.5c0.2-0.3,0.5-0.5,0.7-0.8c9.4-15.6,18.8-31.2,28.1-46.8c0.2-0.3,0.3-0.5,0.6-0.9c9.8,16.3,19.6,32.5,29.4,48.9
		c-6.4,0-12.7,0-19.1,0c0.2,2.1,0.4,4,0.7,5.9c2.3,15.3,8.4,28.9,18.5,40.7c10.9,12.7,24.4,21.2,40.5,25.7c9.4,2.7,19,3.6,28.8,2.8
		c13.7-1.1,26.4-5.3,37.9-12.9c18-11.8,30.1-28,35.4-48.9c6.6-26,1.4-49.9-15.1-71c-11.8-15.1-27.2-25-45.9-29.5
		c-5.2-1.3-10.5-1.9-15.8-2c-1.6-0.1-3.3-0.2-4.9-0.6c-3.8-0.9-6.1-3.3-6.8-7.2c-0.4-2.1-0.4-4.2,0.1-6.2c1.3-4.9,5.4-7.9,10.2-7.8
		c25,0.7,47,9,66,25.3c16.4,14.2,27.3,31.9,32.8,52.9c2.9,11,3.9,22.2,2.9,33.5c-2.7,31.2-16.6,56.4-41.4,75.5
		c-12.7,9.7-27,15.9-42.7,18.9c-3.9,0.7-7.8,1.2-11.7,1.1c-4.8-0.1-9.7-0.1-14.5,0c-5.1,0.1-10-0.6-15-1.6
		c-33.9-7.4-61.9-31.1-74.7-63.4c-3.9-9.8-6.1-20.1-6.9-30.6c0-0.2,0-0.4-0.1-0.7c-6,0-12,0-18,0C11.4,134.7,11.4,134.6,11.4,134.5z
		"/>
	<path d="M144.5,103.8c0,9.4-0.1,18.8,0,28.2c0,3.5-1.2,6.3-3.6,8.7c-9.7,9.6-19.3,19.3-29,29c-4.1,4.1-10.3,4.3-14.2,0.4
		c-4.1-4.1-4.2-10.6,0-14.7c8.5-8.6,17.1-17.1,25.7-25.6c0.6-0.6,0.8-1.2,0.8-2c0-17.6,0-35.2,0-52.7c0-3,0.8-5.5,3-7.6
		c1.6-1.5,3.5-2.4,5.7-2.5c2-0.1,4-0.2,5.9,0.7c3.7,1.8,5.7,4.7,5.7,8.8C144.6,84.2,144.5,94,144.5,103.8z"/>
	<path d="M139.9,186.8c0,3.6-3,6.6-6.6,6.6c-3.6,0-6.5-3-6.5-6.6c0-3.6,2.9-6.5,6.5-6.5C136.9,180.3,139.9,183.2,139.9,186.8z"/>
	<path d="M190.8,121.7c3.7,0,6.5,2.9,6.5,6.6c0,3.6-2.9,6.5-6.5,6.4c-3.6,0-6.5-2.9-6.5-6.6C184.3,124.5,187.2,121.7,190.8,121.7z"
		/>
	<path d="M176.4,160c3.6,0,6.5,3,6.5,6.6c0,3.6-3,6.5-6.6,6.4c-3.6,0-6.5-3-6.5-6.6C169.9,162.8,172.8,160,176.4,160z"/>
	<path d="M182.9,88.5c0,3.6-3,6.6-6.6,6.5c-3.6,0-6.5-3-6.5-6.6c0-3.6,2.9-6.5,6.5-6.5C180,81.9,182.9,84.8,182.9,88.5z"/>
</g>
</svg>
