<?xml version="1.0" encoding="utf-8"?>
<!-- Generator: Adobe Illustrator 24.1.2, SVG Export Plug-In . SVG Version: 6.00 Build 0)  -->
<svg version="1.1" id="Layer_1" xmlns="http://www.w3.org/2000/svg" xmlns:xlink="http://www.w3.org/1999/xlink" x="0px" y="0px"
	 viewBox="0 0 391 395" style="enable-background:new 0 0 391 395;" xml:space="preserve">
<style type="text/css">
	.st0{fill:#78C7CD;stroke:#FFFFFF;stroke-width:2;stroke-miterlimit:10;}
	.st1{fill:#EDBD39;stroke:#FFFFFF;stroke-width:2.4207;stroke-miterlimit:10;}
	.st2{fill:#77B733;stroke:#FFFFFF;stroke-width:2.0001;stroke-miterlimit:10.0004;}
	.st3{fill:none;stroke:#77B733;stroke-width:4.5638;stroke-miterlimit:10;}
	.st4{fill:#EAE22E;stroke:#FFFFFF;stroke-width:2;stroke-miterlimit:10;}
	.st5{fill:#A44A95;stroke:#FFFFFF;stroke-width:2.202;stroke-miterlimit:10;}
	.st6{fill:url(#SVGID_1_);stroke:#FFFFFF;stroke-width:2;stroke-miterlimit:10;}
	.st7{fill:#DFDF4C;stroke:#FFFFFF;stroke-width:9;stroke-miterlimit:10;}
	.st8{fill:#99CB94;stroke:#FFFFFF;stroke-width:9;stroke-miterlimit:10;}
	.st9{fill:#CB82B5;stroke:#FFFFFF;stroke-width:9;stroke-miterlimit:10;}
	.st10{fill:#F9BD75;stroke:#FFFFFF;stroke-width:9;stroke-miterlimit:10;}
	.st11{fill:#EB6594;stroke:#FFFFFF;stroke-width:9;stroke-miterlimit:10;}
	.st12{fill:#A6DAF6;stroke:#FFFFFF;stroke-width:9;stroke-miterlimit:10;}
	.st13{fill:#DFDF4C;stroke:#7B5B7D;stroke-width:3.651;stroke-miterlimit:10;}
	.st14{fill:#99CB94;stroke:#7B5B7D;stroke-width:3.651;stroke-miterlimit:10;}
	.st15{fill:#CB82B5;stroke:#7B5B7D;stroke-width:3.651;stroke-miterlimit:10;}
	.st16{fill:#F9BD75;stroke:#7B5B7D;stroke-width:3.651;stroke-miterlimit:10;}
	.st17{fill:#EB6594;stroke:#7B5B7D;stroke-width:3.651;stroke-miterlimit:10;}
	.st18{fill:#A6DAF6;stroke:#7B5B7D;stroke-width:3.651;stroke-miterlimit:10;}
	.st19{fill:#74B965;stroke:#FFFFFF;stroke-width:1.8255;stroke-miterlimit:10;}
	.st20{fill:#FFFFFF;}
	.st21{fill:#7894CC;stroke:#FFFFFF;stroke-width:2.7383;stroke-miterlimit:10;}
	.st22{fill:#EB6552;stroke:#FFFFFF;stroke-width:4.7055;stroke-miterlimit:10;}
	.st23{fill:none;stroke:#FFFFFF;stroke-width:8.6335;stroke-linecap:round;stroke-miterlimit:10;}
	.st24{fill:#A6DAF6;stroke:#FFFFFF;stroke-width:4.162;stroke-miterlimit:10;}
	.st25{fill:none;stroke:#FFFFFF;stroke-width:7.8734;stroke-linecap:round;stroke-miterlimit:10;}
	.st26{fill:#A4CB79;stroke:#FFFFFF;stroke-width:2.7383;stroke-miterlimit:10;}
	.st27{fill:none;stroke:#FFFFFF;stroke-width:10.9531;stroke-linecap:round;stroke-miterlimit:10;}
	.st28{fill:#E73386;stroke:#FFFFFF;stroke-width:3.651;stroke-miterlimit:10;}
	.st29{fill:#F8EB65;stroke:#FFFFFF;stroke-width:4.5638;stroke-miterlimit:10;}
	.st30{fill:#C378AF;}
	.st31{fill:#A45098;stroke:#FFFFFF;stroke-width:5.3149;stroke-miterlimit:10;}
	.st32{fill:#A45098;}
</style>
<g id="Layer_2_1_">
</g>
<g>
	<g>
		<polygon class="st0" points="72.7,267.9 70.5,211.2 75.5,211.1 77.7,267.8 		"/>
	</g>
	<g>
		<polygon class="st1" points="104.3,266.6 102.8,235.9 108.1,235.8 109.6,266.4 		"/>
	</g>
	<g>
		
			<rect x="230.6" y="213.2" transform="matrix(0.9973 -7.403909e-02 7.403909e-02 0.9973 -17.3541 17.9115)" class="st2" width="4.6" height="59.6"/>
	</g>
	<line class="st3" x1="235.6" y1="191" x2="224" y2="198.5"/>
	<g>
		<polygon class="st4" points="143.7,272.2 138.5,271.9 146.1,181.4 151.3,181.7 		"/>
	</g>
	<g>
		<polygon class="st5" points="295.2,281.8 289.7,281.5 292.7,242.2 298.3,242.5 		"/>
	</g>
	
		<linearGradient id="SVGID_1_" gradientUnits="userSpaceOnUse" x1="135.3444" y1="376.5403" x2="264.2555" y2="153.2599" gradientTransform="matrix(1 0 0 -1 0 402.1102)">
		<stop  offset="0" style="stop-color:#FDCF6F"/>
		<stop  offset="1" style="stop-color:#EE7B4E"/>
	</linearGradient>
	<path class="st6" d="M304,224.2H95.6c-6,0-11-4.9-11-11v-152c0-6,4.9-11,11-11H304c6,0,11,4.9,11,11v152.1
		C315,219.3,310,224.2,304,224.2z"/>
	<g>
		<g>
			<path class="st7" d="M22.5,275.4c3.4-10,7.2-20.2,10.7-30.3c6.7,0,13.6,1.3,20.8,3.8c7.4,2.6,13.2,5.9,17.2,10.2
				c4.2,4.6,6,9.5,5,14.6c-1.1,5.7-5.8,10.3-14,13.4c7.8,3.4,12.4,8.5,14,15.8c0.9,3.4,0.6,6.5-0.7,9.4c-1.5,3.3-4,6-7.6,7.9
				c-8.2,4.5-20.4,5.5-29.3,3.7c-10.5-2.1-20.5-6.6-30.3-11.1C13.6,300.6,18.2,287.9,22.5,275.4z M41.5,275.3
				c6.7,1.1,11.3,0.5,13.5-1.5c4-3.9,3.1-6.9-2.1-9.4c-2.1-1-4.7-1.7-7.9-2C43.6,267.5,42.9,270.1,41.5,275.3z M33.2,304.2
				c3.9,1.6,7.4,2.7,10.3,3c4.2,0.4,7.2-0.8,8.7-3.1c2-3.1,1.1-5.9-2.6-8.5c-3.5-2.5-7.6-3.9-12.4-4.2
				C35.7,296.5,34.9,299.1,33.2,304.2z"/>
			<path class="st8" d="M97.1,262c8.5,2.8,12.8,4,21.4,6.4c-2.8,6.8-4.3,10.2-7.2,17c-2.8,6.9-4.2,10.3-7.1,17.1
				c-0.2,0.8-0.8,2.8-2.1,5.6c-1.1,2.6-1.9,4.8-2.3,6.5c-1.1,5.4,1.2,8.7,7,9.8c4.1,0.8,7.6,0.1,10.5-1.9c2.5-1.7,4-4.4,4.6-7.9
				c0.7-16.1,1.6-32.2,2.6-48.3c8.5,2,12.7,2.9,21.3,4.4c-0.4,10.3-0.5,15.4-0.8,25.7c-0.4,10.4-0.6,15.6-0.9,25.9
				c-0.2,8.4-4.5,14.5-12.8,17.4c-9.4,3.2-20.6,2.6-30.4,1.7c-9.1-0.8-20.4-4.2-24.5-13c-2.8-5.9-1.9-13.6,2-22.6
				C84.8,291.3,91.1,276.7,97.1,262z"/>
			<path class="st9" d="M148.8,307.2c0.5-10.6,1.3-21.4,1.8-32.1c6.3-1.9,13.2-2.6,20.7-2.2c7.7,0.4,14.1,2,19.2,5
				c5.3,3.2,8.4,7.4,8.8,12.6c0.5,5.8-2.6,11.5-9.6,16.8c8.4,1.1,14.2,4.7,17.7,11.3c1.8,3,2.4,6.1,2,9.2c-0.5,3.5-2.1,6.9-5.1,9.7
				c-6.5,6.6-17.9,11-26.8,11.7c-10.6,0.9-21.2-0.6-31.7-2.1C147.4,333.9,148.2,320.4,148.8,307.2z M166.8,301.7
				c6.7-0.9,10.8-2.7,12.4-5.3c2.7-4.8,1-7.5-4.6-8.4c-2.2-0.4-4.9-0.3-8,0.3C166.6,293.7,166.7,296.4,166.8,301.7z M166.9,331.8
				c4.1,0.5,7.7,0.5,10.6,0c4.1-0.8,6.6-2.8,7.4-5.4c1-3.5-0.6-6-4.8-7.5c-4-1.4-8.2-1.6-12.9-0.5
				C167.1,323.8,167.1,326.5,166.9,331.8z"/>
			<path class="st10" d="M212.4,309.4c-1-10.6-1.7-21.4-2.7-32c6-2.7,12.7-4.4,20.1-5c7.7-0.7,14.3,0,19.7,2.3
				c5.7,2.4,9.3,6.2,10.5,11.2c1.3,5.7-1,11.8-7.2,17.9c8.4-0.1,14.7,2.7,19.1,8.7c2.2,2.7,3.2,5.7,3.2,8.9c0,3.6-1.1,7.1-3.7,10.3
				c-5.5,7.4-16.2,13.3-25,15.3c-10.3,2.4-21.1,2.3-31.7,2.3C214.6,336,213.6,322.6,212.4,309.4z M229.4,301.5
				c6.5-1.8,10.3-4.2,11.6-6.9c2-5.2-0.1-7.6-5.7-7.7c-2.3-0.1-4.9,0.4-7.9,1.4C228.1,293.6,228.5,296.3,229.4,301.5z M233.7,331.3
				c4.2-0.1,7.7-0.6,10.5-1.5c4-1.4,6.2-3.7,6.6-6.4c0.5-3.6-1.4-5.8-5.8-6.7c-4.1-0.8-8.4-0.5-12.8,1.3
				C232.8,323.3,233.1,326,233.7,331.3z"/>
			<path class="st11" d="M269.3,270.6c8.4-2.8,12.6-4.3,20.8-7.6c2.2,17.5,4.8,34.8,8.8,52c9.8-3.3,14.6-5.1,24.2-8.9
				c3,7.2,4.5,10.7,7.6,17.9c-16.4,5.6-32.5,12.1-48.7,18.3C277.7,318.4,273.5,294.5,269.3,270.6z"/>
			<path class="st12" d="M351.6,263.8c-3.7,1.8-7.3,3.6-10.7,5.2c0.5,2.3,0.9,4,1.2,5.1c0.5,2,0.8,3,1.3,5c3.5-1.7,5.2-2.6,8.7-4.4
				c3.4-1.9,5-2.9,8.3-4.9c1.4,2.5,2.1,3.8,3.5,6.4c1.5,2.5,2.3,3.8,3.8,6.4c-5.7,3.3-9.6,5.3-11.3,6.2c-3,1.6-5.8,3.1-8.2,4.4
				c1.1,3.7,1.7,5.5,2.9,9.2c5-2.4,7.4-3.6,12.3-6.1s7.3-3.8,12-6.4c2,3.3,3,4.9,5,8.2c2,3.3,2.9,5,4.9,8.3
				c-6.6,3.2-14.1,6.8-22.2,11c-9.1,4.7-18.3,9.4-27.5,14c-1.3-4-3-9.8-5.4-17.5c-2.2-7.1-3.3-10.7-5.4-17.9
				c-3.5-11.8-7-23.6-10.6-35.3c8-3.3,12-5.1,19.9-8.8c7.9-3.7,11.8-5.7,19.5-9.8c1.9,3.3,2.8,4.9,4.8,8.2c1.9,3.3,2.9,5,4.9,8.3
				C359.1,260.3,355.2,262.1,351.6,263.8z"/>
		</g>
	</g>
	<g>
		<g>
			<path class="st13" d="M22.5,275.4c3.4-10,7.2-20.2,10.7-30.3c6.7,0,13.6,1.3,20.8,3.8c7.4,2.6,13.2,5.9,17.2,10.2
				c4.2,4.6,6,9.5,5,14.6c-1.1,5.7-5.8,10.3-14,13.4c7.8,3.4,12.4,8.5,14,15.8c0.9,3.4,0.6,6.5-0.7,9.4c-1.5,3.3-4,6-7.6,7.9
				c-8.2,4.5-20.4,5.5-29.3,3.7c-10.5-2.1-20.5-6.6-30.3-11.1C13.6,300.6,18.2,287.9,22.5,275.4z M41.5,275.3
				c6.7,1.1,11.3,0.5,13.5-1.5c4-3.9,3.1-6.9-2.1-9.4c-2.1-1-4.7-1.7-7.9-2C43.6,267.5,42.9,270.1,41.5,275.3z M33.2,304.2
				c3.9,1.6,7.4,2.7,10.3,3c4.2,0.4,7.2-0.8,8.7-3.1c2-3.1,1.1-5.9-2.6-8.5c-3.5-2.5-7.6-3.9-12.4-4.2
				C35.7,296.5,34.9,299.1,33.2,304.2z"/>
			<path class="st14" d="M97.1,262c8.5,2.8,12.8,4,21.4,6.4c-2.8,6.8-4.3,10.2-7.2,17c-2.8,6.9-4.2,10.3-7.1,17.1
				c-0.2,0.8-0.8,2.8-2.1,5.6c-1.1,2.6-1.9,4.8-2.3,6.5c-1.1,5.4,1.2,8.7,7,9.8c4.1,0.8,7.6,0.1,10.5-1.9c2.5-1.7,4-4.4,4.6-7.9
				c0.7-16.1,1.6-32.2,2.6-48.3c8.5,2,12.7,2.9,21.3,4.4c-0.4,10.3-0.5,15.4-0.8,25.7c-0.4,10.4-0.6,15.6-0.9,25.9
				c-0.2,8.4-4.5,14.5-12.8,17.4c-9.4,3.2-20.6,2.6-30.4,1.7c-9.1-0.8-20.4-4.2-24.5-13c-2.8-5.9-1.9-13.6,2-22.6
				C84.8,291.3,91.1,276.7,97.1,262z"/>
			<path class="st15" d="M148.8,307.2c0.5-10.6,1.3-21.4,1.8-32.1c6.3-1.9,13.2-2.6,20.7-2.2c7.7,0.4,14.1,2,19.2,5
				c5.3,3.2,8.4,7.4,8.8,12.6c0.5,5.8-2.6,11.5-9.6,16.8c8.4,1.1,14.2,4.7,17.7,11.3c1.8,3,2.4,6.1,2,9.2c-0.5,3.5-2.1,6.9-5.1,9.7
				c-6.5,6.6-17.9,11-26.8,11.7c-10.6,0.9-21.2-0.6-31.7-2.1C147.4,333.9,148.2,320.4,148.8,307.2z M166.8,301.7
				c6.7-0.9,10.8-2.7,12.4-5.3c2.7-4.8,1-7.5-4.6-8.4c-2.2-0.4-4.9-0.3-8,0.3C166.6,293.7,166.7,296.4,166.8,301.7z M166.9,331.8
				c4.1,0.5,7.7,0.5,10.6,0c4.1-0.8,6.6-2.8,7.4-5.4c1-3.5-0.6-6-4.8-7.5c-4-1.4-8.2-1.6-12.9-0.5
				C167.1,323.8,167.1,326.5,166.9,331.8z"/>
			<path class="st16" d="M212.4,309.4c-1-10.6-1.7-21.4-2.7-32c6-2.7,12.7-4.4,20.1-5c7.7-0.7,14.3,0,19.7,2.3
				c5.7,2.4,9.3,6.2,10.5,11.2c1.3,5.7-1,11.8-7.2,17.9c8.4-0.1,14.7,2.7,19.1,8.7c2.2,2.7,3.2,5.7,3.2,8.9c0,3.6-1.1,7.1-3.7,10.3
				c-5.5,7.4-16.2,13.3-25,15.3c-10.3,2.4-21.1,2.3-31.7,2.3C214.6,336,213.6,322.6,212.4,309.4z M229.4,301.5
				c6.5-1.8,10.3-4.2,11.6-6.9c2-5.2-0.1-7.6-5.7-7.7c-2.3-0.1-4.9,0.4-7.9,1.4C228.1,293.6,228.5,296.3,229.4,301.5z M233.7,331.3
				c4.2-0.1,7.7-0.6,10.5-1.5c4-1.4,6.2-3.7,6.6-6.4c0.5-3.6-1.4-5.8-5.8-6.7c-4.1-0.8-8.4-0.5-12.8,1.3
				C232.8,323.3,233.1,326,233.7,331.3z"/>
			<path class="st17" d="M269.3,270.6c8.4-2.8,12.6-4.3,20.8-7.6c2.2,17.5,4.8,34.8,8.8,52c9.8-3.3,14.6-5.1,24.2-8.9
				c3,7.2,4.5,10.7,7.6,17.9c-16.4,5.6-32.5,12.1-48.7,18.3C277.7,318.4,273.5,294.5,269.3,270.6z"/>
			<path class="st18" d="M351.6,263.8c-3.7,1.8-7.3,3.6-10.7,5.2c0.5,2.3,0.9,4,1.2,5.1c0.5,2,0.8,3,1.3,5c3.5-1.7,5.2-2.6,8.7-4.4
				c3.4-1.9,5-2.9,8.3-4.9c1.4,2.5,2.1,3.8,3.5,6.4c1.5,2.5,2.3,3.8,3.8,6.4c-5.7,3.3-9.6,5.3-11.3,6.2c-3,1.6-5.8,3.1-8.2,4.4
				c1.1,3.7,1.7,5.5,2.9,9.2c5-2.4,7.4-3.6,12.3-6.1s7.3-3.8,12-6.4c2,3.3,3,4.9,5,8.2c2,3.3,2.9,5,4.9,8.3
				c-6.6,3.2-14.1,6.8-22.2,11c-9.1,4.7-18.3,9.4-27.5,14c-1.3-4-3-9.8-5.4-17.5c-2.2-7.1-3.3-10.7-5.4-17.9
				c-3.5-11.8-7-23.6-10.6-35.3c8-3.3,12-5.1,19.9-8.8c7.9-3.7,11.8-5.7,19.5-9.8c1.9,3.3,2.8,4.9,4.8,8.2c1.9,3.3,2.9,5,4.9,8.3
				C359.1,260.3,355.2,262.1,351.6,263.8z"/>
		</g>
	</g>
	<g>
		<path class="st19" d="M204.5,12.9c3.1-2.6,14.8,16.4,18.3,17.3s13.5-10.5,18-7.3c4.6,3.2-10,15.1-9.6,18.9
			c0.5,3.9,15.7,16.4,14.1,19.6s-17.8-9.1-21.7-8.2c-3.9,0.9-8.2,21.2-14.8,19.9c-6.6-1.4,3.4-17.3-0.2-22.4c-3.7-5-22.9,2.8-24-2.5
			s20.3-9.1,22.1-13.5C208.6,30.5,201.7,15.2,204.5,12.9z"/>
		<path class="st20" d="M218.8,40L218.8,40c-2.1,0-3.8-1.7-3.8-3.8l0,0c0-2.1,1.7-3.8,3.8-3.8l0,0c2.1,0,3.8,1.7,3.8,3.8l0,0
			C222.6,38.3,220.9,40,218.8,40z"/>
	</g>
	<g>
		<path class="st21" d="M344.8,65.7c0.3,6-33.2,3-37.4,6.3c-4.2,3.3,0.5,25.7-7.5,28.3c-8,2.6-9.1-25.7-14.2-28.6
			c-5.1-3-34,4.1-36.4-0.7c-2.4-4.8,27.1-13.2,29.5-18.7s-18.1-29-10.5-35.8c7.6-6.7,17.8,19.8,27.1,19.9
			c9.3,0.1,17.3-30.1,24.6-26.6c7.4,3.5-7.3,32.7-3.8,38.8S344.6,60.4,344.8,65.7z"/>
		<path class="st20" d="M299.4,58.6L299.4,58.6c1.9-2.5,5.5-3,8-1.1l0,0c2.5,1.9,3,5.5,1.1,8l0,0c-1.9,2.5-5.5,3-8,1.1l0,0
			C298,64.7,297.5,61.1,299.4,58.6z"/>
	</g>
	<g>
		<path class="st22" d="M73.3,211.2c5.3-0.9,10.6-6,10.6-7.8s-7.8-7.4-7.8-7.4s35.3-22.2,29.4-53S77,90.3,51.5,94.4
			S11.3,124.2,16,152c5.5,33.3,49.7,46.5,49.7,46.5s-4.1,4-3.6,7.2C62.6,208.9,69.6,211.8,73.3,211.2z"/>
		<path class="st23" d="M31.6,145.7c0,0-4.6-22.8,10.4-29.6"/>
	</g>
	<g>
		<path class="st24" d="M295.2,242.3c4.9,0.4,10.7-3,11.1-4.6s-5.2-8.3-5.2-8.3s36.2-11.8,37.8-40.3s-13.4-53-37-55
			s-42.2,17.4-44.3,43c-2.5,30.7,33.6,52.2,33.6,52.2s-4.6,2.6-4.8,5.5C286.3,238,291.9,242.1,295.2,242.3z"/>
		<path class="st25" d="M273,175.2c0,0,1-21.2,15.8-23.8"/>
	</g>
	<g>
		<path class="st26" d="M147.6,180.6c6.9,0,14.5-5.2,15-7.5s-8.1-10.9-8.1-10.9s49-20.1,48.2-59.8s-24.1-72.1-57-72.5
			S89,58.4,88.7,94.2c-0.3,42.8,52,68.9,52,68.9s-6,4.1-6,8.2C134.7,175.5,142.9,180.6,147.6,180.6z"/>
		<path class="st27" d="M109.8,89.8c0,0-0.8-29.5,19.5-34.7"/>
	</g>
	<g>
		<path class="st28" d="M230.7,213.3c0,0,13.7-0.3,13.4-6.1c-0.3-5.8-7.9-13.4-7.9-13.4s39-10.4,50.9-47.8s-4-55.6-17.7-60.5
			c-11.9-4.2-30.9,5.1-37.7,17.1c-1,1.8-3.7,1.8-4.8,0c-7.8-12.8-26.9-20.2-41.6-13.5c-16.7,7.6-20.9,31.3-13.6,54.8
			c4.9,15.6,29.1,42.4,51.3,50.6c-5.8,4-7.9,8.1-7.9,10.6C215.2,207.5,220.1,213.3,230.7,213.3z"/>
		<path class="st20" d="M254.9,107.3L254.9,107.3c2.7-3.6,7.8-4.3,11.3-1.6l0,0c3.6,2.7,4.3,7.8,1.6,11.3l0,0
			c-2.7,3.6-7.8,4.3-11.3,1.6l0,0C253,116,252.3,110.9,254.9,107.3z"/>
	</g>
	<g>
		<path class="st29" d="M105.7,235.8c0,0,10.3-0.7,9.9-5.1c-0.4-4.4-6.5-9.8-6.5-9.8s29.1-9.3,36.8-38s-5-41.9-15.6-45.1
			c-9.1-2.8-23.2,4.9-27.9,14.3c-0.7,1.4-2.7,1.5-3.6,0.2c-6.3-9.4-21.1-14.3-31.9-8.7c-12.4,6.4-14.7,24.4-8.3,41.9
			c4.2,11.6,23.5,31,40.6,36.4c-4.2,3.2-5.7,6.4-5.6,8.3C93.7,232,97.6,236.2,105.7,235.8z"/>
		<path class="st30" d="M120.2,154.8L120.2,154.8c1.9-2.8,5.7-3.5,8.5-1.6l0,0c2.8,1.9,3.5,5.7,1.6,8.5l0,0
			c-1.9,2.8-5.7,3.5-8.5,1.6l0,0C119.1,161.4,118.3,157.6,120.2,154.8z"/>
	</g>
	<g>
		<g>
			<g>
				<path class="st31" d="M22.6,353.7c-0.2,0.5-0.5,1.1-0.7,1.6s-0.5,1.1-0.7,1.6c-2.2-0.7-4.4-1.3-6.6-1.9s-4.5-1.1-6.7-1.5
					c0.2-1.1,0.4-2.3,0.7-3.4c0.5,0.1,1.1,0.2,1.6,0.3c2.5-3.6,4.6-7.3,6.7-11.2c2.1,0.3,4.1,0.6,6.2,0.9c-1,4.3-1.6,8.6-1.9,13
					C21.6,353.3,22.1,353.5,22.6,353.7z M14.7,351.4c0.7,0.2,1.4,0.3,2.1,0.5"/>
				<path class="st31" d="M26.4,344.3c1.8-1.4,3.5-2,5.7-1.4c1.9,0.5,2.9,1.8,3.6,3.5c0.4,0.9,0.6,2,0.6,3s-0.2,2-0.5,3.1
					c-0.6,1.7-1.7,3.4-3.1,4.5c-1.7,1.4-3.7,2-5.7,1.4c-2.1-0.6-2.9-1.8-3.8-3.6c-0.4-0.8-0.5-1.8-0.5-2.8s0.2-2.1,0.6-3.1
					C23.9,347.1,25,345.4,26.4,344.3z M32,348.8c-0.1-0.9-0.3-1.6-1.2-1.9c-1-0.3-1.7,0.4-2.4,1.2c-0.5,0.6-1.2,1.6-1.5,2.5
					c-0.1,0.4-0.2,0.8-0.2,1.3s0,1.1,0.3,1.5c0.3,0.5,0.7,0.8,1.3,0.9s1.5,0.1,2.1-0.5s0.9-1.2,1.2-2.1S32.2,349.7,32,348.8z"/>
				<path class="st31" d="M35.6,356.9c-0.3-1.4-0.2-3.2,0.3-4.6c0.4-1.4,1.1-2.7,2-3.7c0.9-1.1,1.8-1.9,3.1-2.3
					c1.3-0.4,2.2-0.5,3.6,0.1s2.6,2,3.4,3.3c-0.5,0.4-1,0.8-1.5,1.1c-0.5,0.4-1,0.7-1.5,1.1c-0.8-1-2-1.7-3.2-1.1s-1.7,1.6-1.9,2.8
					c-0.3,1.2-0.3,2.3,0.4,3.4c0.7,1.1,2.1,1.1,3.3,0.7c0.5,1.1,1,2.1,1.4,3.2c-1.3,0.9-2.8,1.6-4.3,1.4s-2.3-0.7-3.3-1.8
					S35.8,358.3,35.6,356.9z"/>
				<path class="st31" d="M58.6,354.7c-1.4-0.3-2.7-0.6-4.1-0.9c-1.1,3.7-1.6,7.5-2.2,11.3c-1.7-0.1-3.3-0.3-5-0.4
					c1-3.9,2-7.8,3-11.7c-0.6-0.1-1.1-0.2-1.7-0.3c-0.6-0.1-1.3-0.2-1.9-0.3c0.4-1.3,0.9-2.6,1.4-3.9c3.6,0.7,7.2,1.4,10.8,2.1
					C58.8,351.9,58.7,353.3,58.6,354.7z"/>
				<path class="st31" d="M53.6,365.2c2.6-4.3,5-8.8,7-13.5c2,0.3,3.9,0.5,5.9,0.8c-0.3,5.4-0.1,10.6,0.3,16
					c-1.6-0.1-3.1-0.2-4.7-0.2c0-0.9,0-1.9,0-2.8c-1-0.2-2-0.3-3-0.5c-0.4,0.8-0.8,1.7-1.2,2.5C56.5,366.7,55,366,53.6,365.2z
					 M60.1,361.9c0.7,0.2,1.3,0.4,2,0.5"/>
				<path class="st31" d="M68.6,361.5c0.5-2.9,0.8-4.3,1.2-6.9c1.4-0.1,2.9,0,4.3,0.3s2.7,0.9,3.7,1.9c0.9,1,1.4,1.7,1.2,3.1
					c-0.1,1.4-1.3,2.3-2.5,3c1.5,0.7,2.4,1.6,2.8,3.2c0.2,0.7,0.2,1.3-0.1,2s-0.6,1.3-1.4,1.7c-1.7,1-3.1,1.4-5.3,1.2
					c-1.6-0.1-3.9-0.8-5.5-1.5C67.6,367.3,68.3,363.6,68.6,361.5z M72.3,360.8c0.7,0.1,2.1,0,2.5-0.6c0.8-1,0.4-1.5-0.6-2
					c-0.4-0.2-1.1-0.2-1.6-0.3C72.5,358.9,72.4,359.9,72.3,360.8z M71.3,367.1c0.6,0.2,1.3,0.4,1.9,0.4c0.7,0,1.2-0.2,1.6-0.8
					c0.3-0.7,0.1-1.3-0.6-1.7s-1.5-0.6-2.4-0.6C71.7,365.2,71.5,366.2,71.3,367.1z"/>
				<path class="st31" d="M81.8,357.7c1.5,0.2,3.1,0.3,4.6,0.4c-0.3,1-0.6,1.9-0.8,2.9c1.4-0.7,2.8-1.4,4.1-2.2
					c1.2,0.9,2.3,1.8,3.5,2.7c-1.7,0.9-3.4,1.7-5.2,2.6c1.1,3.3,2.2,6.6,3.4,9.9c-1.6,0.3-3.3,0.6-4.9,1c-0.8-3-1.3-2-2-5
					c-0.5,2.3-1,0.5-1.3,2.8c-1.4,0-2.8,0-4.3,0C79.9,367.7,80.9,362.7,81.8,357.7z"/>
				<path class="st31" d="M90.2,374.8c2.3-4.5,4.3-9,6-13.8c2,0.2,3.9,0.3,5.9,0.4c0,5.4,0.6,10.6,1.4,15.9c-1.6,0-3.1,0-4.7,0
					c-0.1-0.9-0.1-1.9-0.2-2.8c-1-0.1-2-0.2-3-0.3c-0.3,0.9-0.7,1.7-1,2.6C93.1,376.2,91.7,375.5,90.2,374.8z M96.4,371.2
					c0.7,0.1,1.3,0.3,2,0.4"/>
				<path class="st31" d="M110.4,371.5c0.3-2.9,0.4-4.3,0.7-6.9c1.4-0.2,2.9-0.2,4.2,0.1c1.4,0.3,2.8,0.7,3.8,1.6s1.5,1.6,1.5,3
					s-1.1,2.4-2.3,3.1c1.5,0.6,2.5,1.4,3.1,3c0.2,0.7,0.3,1.3,0.1,2s-0.5,1.3-1.2,1.8c-1.6,1.1-3,1.6-5.2,1.6c-1.6,0-4-0.5-5.6-1.1
					C109.8,377.3,110.2,373.5,110.4,371.5z M114,370.5c0.7,0,2.1-0.2,2.5-0.8c0.7-1.1,0.3-1.5-0.7-1.9c-0.4-0.2-1.1-0.2-1.6-0.1
					C114.1,368.6,114,369.6,114,370.5z M113.5,376.8c0.6,0.1,1.3,0.3,2,0.2c0.7-0.1,1.2-0.2,1.5-0.9c0.3-0.7,0-1.3-0.8-1.7
					c-0.7-0.4-1.6-0.5-2.4-0.4C113.7,375,113.6,375.9,113.5,376.8z"/>
				<path class="st31" d="M124.3,369c1.5-1.6,3.1-2.4,5.3-2.1c1.9,0.3,3.2,1.5,4.2,3c0.6,0.9,0.9,1.9,1.1,2.9c0.2,1,0.2,2.1,0,3.1
					c-0.3,1.8-1,3.6-2.2,4.9c-1.5,1.7-3.3,2.4-5.4,2.1c-2.1-0.3-3.2-1.4-4.3-3.2c-0.5-0.8-0.8-1.8-1-2.8c-0.1-1-0.1-2.2,0.1-3.2
					C122.4,372.1,123.1,370.3,124.3,369z M130.6,372.8c-0.3-0.9-0.6-1.6-1.5-1.7c-1-0.1-1.6,0.6-2.1,1.5c-0.4,0.7-0.8,1.8-1,2.7
					c-0.1,0.4-0.1,0.9,0.1,1.3c0.1,0.5,0.2,1.1,0.6,1.5c0.4,0.4,0.8,0.7,1.5,0.8s1.5-0.1,2-0.8s0.7-1.4,0.8-2.3
					S130.9,373.7,130.6,372.8z"/>
				<path class="st31" d="M145,374.4c-0.4,0.7-1.2,1.2-1.9,1.6c1.9,0.5,3.2,1.9,3,3.8s-1,3-2.5,4.1s-3.2,1.2-4.9,0.8
					c-1.1-0.3-1.9-0.8-2.7-1.6c-0.8-0.8-1.4-2-1.8-3.1c1.4-0.2,2.9-0.4,4.3-0.7c0.2,0.4,0.6,1,1,1.2s0.7,0.3,1,0.1
					c0.6-0.3,0.9-0.9,0.8-1.6c-0.2-0.7-0.5-1.1-1.4-1.2c-0.5-0.1-1.7-0.1-2.3-0.2c0.1-0.5,0.2-0.9,0.3-1.4s0.3-0.9,0.4-1.4
					c0.7,0,1.3-0.1,2-0.4c0.6-0.3,1.2-0.7,1.1-1.4c0-0.3-0.1-0.4-0.4-0.6s-0.4-0.2-0.8-0.2c-0.4,0-0.8,0.1-1.3,0.3
					c-0.5,0.2-1.4,0.7-2,1c-0.3-0.6-0.6-1.2-0.9-1.8c-0.3-0.6-0.6-1.2-0.8-1.8c2-1.1,4.1-1.7,6.4-1.5c1.1,0.1,1.9,0.4,2.7,1
					s1.2,1.6,1.2,2.7C145.6,373,145.4,373.7,145,374.4z"/>
				<path class="st31" d="M160.3,383.4c-0.1,0.6-0.2,1.1-0.3,1.7s-0.2,1.1-0.3,1.7c-2.3-0.2-4.6-0.4-6.9-0.6
					c-2.3-0.1-4.6-0.2-6.9-0.2c-0.1-1.1-0.1-2.3-0.2-3.5c0.5,0,1.1,0,1.6,0c1.6-4,2.8-8,3.8-12.1c2.1-0.1,4.1-0.2,6.2-0.2
					c0.1,4.4,0.5,8.7,1.3,13C159.2,383.2,159.7,383.3,160.3,383.4z M152,382.7c0.7,0,1.4,0.1,2.2,0.1"/>
				<path class="st31" d="M171.5,371.8c-1.3,2.5-2.8,5.4-3.9,7.9s-2,4.7-2.8,7.2c-1.5-0.2-2.9-0.3-4.4-0.5c0.7-1.6,1.4-3.2,2.1-4.8
					c-0.6-1.6-1.3-3.1-1.9-4.7c-0.6-1.6-1.2-3.2-1.9-4.7c1.7-0.5,3.3-1.1,5-1.7c0.1,0.9,0.2,1.7,0.3,2.6c0.1,1,0.4,2.1,0.8,3.1
					c0.7-1.7,1.5-3.5,2.2-5.3C168.5,371.3,170,371.5,171.5,371.8z"/>
				<path class="st31" d="M176.3,371.9c-0.5,4.2-0.9,8.4-0.9,12.6c0.6,0,1.3,0,1.9-0.1c0-2,0-4.3,0.1-6.2c0-2.2,0-4.1,0-6.2
					c1.5-0.1,3.1-0.3,4.6-0.4c-0.5,4.3-0.7,8.5-0.5,12.7c0.7,0,1.4-0.1,2.1-0.1c-0.1-4.1-0.1-8.1-0.2-12.2c1.5-0.2,2.9-0.5,4.4-0.7
					c-0.2,2.6-0.3,5.2-0.4,7.8s0,5.3,0.2,7.9c-5.5,0.4-11,0.4-16.5,0.4c0.2-5.1,0.4-10.2,0.6-15.3
					C173.3,372.1,174.8,372,176.3,371.9z"/>
				<path class="st31" d="M193.5,371.7c-0.2,2.4-0.4,4.9-0.5,7.3c0.7-0.1,1.5-0.3,2.2-0.4c0-2.1-0.1-4.2-0.1-6.2
					c1.6-0.3,3.3-0.6,4.9-0.8c-0.4,5.1-0.6,10.1-0.1,15.2c-1.6,0.4-3.1,0.8-4.7,1.2c0-2,0-4-0.1-6c-0.8,0.2-1.5,0.3-2.3,0.5
					c0.1,1.5,0.1,3,0.3,4.6c-1.5,0.4-3.1,0.7-4.6,1.1c0-5.2,0-10.4,0-15.5C190.3,372.2,191.9,371.9,193.5,371.7z"/>
				<path class="st31" d="M201.4,379.6c0-1.8-0.1-5.2-0.3-7.2c1.4-0.4,2.7-0.6,4.1-1c-0.1,1.5-0.1,3,0,4.5c1.2,0,2.7,0.1,3.8,0.5
					c1,0.4,1.6,0.8,2.3,1.6c0.7,0.9,1,2,0.9,3.1c0,1.4-0.2,2.6-1.3,3.8c-1,1.1-1.9,1.6-3.6,2.1s-4.4,0.6-6.3,0.6
					C201.4,384.7,201.5,382.7,201.4,379.6z M205.1,383.7c0.8,0.1,1.7,0,2.4-0.4c0.7-0.4,1-1.1,0.9-1.8c-0.1-0.7-0.3-1-0.9-1.4
					s-1.6-0.5-2.4-0.3C205.1,381.1,205.1,382.4,205.1,383.7z M212.2,372c0.2,5.1,0.3,10.1,0.5,15.2c1.4-0.4,2.8-0.8,4.2-1.2
					c-0.5-5-0.5-10-0.2-15C215.2,371.3,213.7,371.7,212.2,372z"/>
				<path class="st31" d="M221,369.6c0.4,0.7,0.7,1.4,1.1,2.1s0.7,1.4,1.1,2.1c0.3-0.7,0.5-1.3,0.8-2s0.6-1.3,0.8-1.9
					c1.6,0,3.2-0.1,4.8-0.1c-1.3,2.7-2.7,5.5-4,8.2c1.3,2.1,2.6,4.1,4,6c-1.1,0.9-2.2,1.7-3.3,2.6c-0.9-1.5-1.9-3-2.8-4.5
					c-0.8,1.5-1.6,3.1-2.4,4.6c-1.3-0.2-2.6-0.5-3.9-0.7c1.5-2.5,2.8-5,4-7.6c-1.3-2.1-2.6-4.2-3.9-6.3
					C218.5,371.2,219.8,370.4,221,369.6z"/>
				<path class="st31" d="M239.7,368.8c-0.1,4.3-0.1,8.5,0.4,12.7c0.6-0.1,1.3-0.2,1.9-0.4c-0.2-2-0.4-4.2-0.6-6.1
					c-0.2-2.2-0.4-4.1-0.6-6.2c1.5-0.4,3-0.8,4.6-1.1c0,4.3,0.1,8.5,0.8,12.7c0.7-0.2,1.4-0.3,2-0.5c-0.5-4-1-8-1.4-12
					c1.4-0.5,2.8-0.9,4.2-1.4c0.1,2.6,0.2,5.2,0.4,7.9c0.2,2.6,0.6,5.2,1,7.8c-5.4,1.1-10.9,2.1-16.3,3c-0.3-5.1-0.7-10.3-1-15.4
					C236.6,369.5,238.2,369.2,239.7,368.8z"/>
				<path class="st31" d="M252.7,382.3c1-5.1,1.7-10.1,2.1-15.3c1.9-0.5,3.9-1.1,5.8-1.6c1.5,5,3.4,9.8,5.6,14.5
					c-1.5,0.6-3,1.2-4.5,1.7c-0.3-0.9-0.6-1.7-0.9-2.6c-1,0.3-2,0.5-3,0.8c-0.1,0.9-0.2,1.9-0.2,2.8
					C255.9,382.5,254.3,382.4,252.7,382.3z M257.7,376.6c0.7-0.1,1.4-0.2,2-0.3"/>
				<path class="st31" d="M265.6,373.5c-0.3-2.8-0.4-5.3-1.2-7.9c1.7-0.7,4.3-1.6,6-1.8c1.7-0.2,2.5-0.1,3.8,0.6
					c1.2,0.8,1.6,1.9,1.8,3.2c0.2,1.1,0.1,2.3-0.4,3.4c-0.5,1-1,1.6-1.9,2.5c-0.9,0.8-2.4,1.6-3.6,2c0.1,1.5,0.4,2.9,0.7,4.4
					c-1.5,0.4-2.9,0.8-4.4,1.2C266.2,378.7,265.8,375.8,265.6,373.5z M269.4,371.8c0.8-0.2,1.7-0.6,2.2-1.3c0.5-0.6,0.6-1,0.6-1.8
					c0-0.7-0.3-1.3-1.1-1.5s-1.6,0.2-2.4,0.5C268.9,369.1,269.1,370.5,269.4,371.8z"/>
				<path class="st31" d="M277.4,365.5c1-2.1,2.4-3.4,4.6-3.8c1.9-0.4,3.4,0.3,4.8,1.4c0.8,0.7,1.4,1.5,1.8,2.4s0.7,1.9,0.8,3
					c0.2,1.8-0.1,3.8-0.9,5.5c-1,2-2.5,3.5-4.6,3.9s-3.4-0.2-5-1.5c-0.7-0.6-1.3-1.4-1.7-2.3c-0.4-0.9-0.7-2-0.8-3.1
					C276.4,369.2,276.6,367.2,277.4,365.5z M284.4,367c-0.5-0.7-0.9-1.3-1.9-1.1c-1,0.2-1.4,1.1-1.7,2.2c-0.2,0.8-0.4,2-0.3,2.9
					c0,0.4,0.2,0.8,0.4,1.3s0.4,0.9,1,1.2c0.5,0.3,0.9,0.4,1.6,0.2c0.7-0.2,1.4-0.6,1.7-1.4c0.3-0.8,0.3-1.5,0.2-2.4
					C285.3,368.9,284.9,367.7,284.4,367z"/>
				<path class="st31" d="M289.9,368.1c-0.6-2.8-0.9-4.2-1.5-6.7c1.2-0.7,2.6-1.4,4-1.7c1.4-0.3,2.8-0.5,4.1,0
					c1.2,0.4,1.9,0.9,2.3,2.2c0.4,1.3-0.4,2.8-1.2,3.8c1.6-0.1,2.8,0.3,3.8,1.6c0.5,0.6,0.7,1.1,0.7,1.9s-0.1,1.5-0.6,2.2
					c-1.2,1.6-2.3,2.7-4.4,3.6c-1.5,0.6-3.9,1-5.6,1.2C291.1,373.8,290.4,370.1,289.9,368.1z M293,365.8c0.7-0.3,1.9-1,2.1-1.7
					c0.3-1.2-0.1-1.5-1.2-1.5c-0.4,0-1.1,0.3-1.5,0.5C292.5,364,292.8,364.9,293,365.8z M294.5,371.9c0.7-0.1,1.3-0.2,1.9-0.6
					c0.6-0.3,1.1-0.7,1.1-1.5s-0.4-1.2-1.2-1.3c-0.8-0.1-1.7,0.2-2.4,0.6C294.1,370,294.3,370.9,294.5,371.9z"/>
				<path class="st31" d="M307.6,364c-0.7-2.8-1-4.2-1.7-6.7c1.2-0.8,2.6-1.5,4-1.8s2.8-0.5,4.1-0.1c1.3,0.4,1.9,0.8,2.3,2.1
					c0.4,1.3-0.3,2.8-1.1,3.9c1.6-0.1,2.8,0.2,3.8,1.5c0.5,0.6,0.7,1.1,0.7,1.8c0,0.8,0,1.5-0.5,2.2c-1.1,1.7-2.2,2.8-4.3,3.7
					c-1.5,0.6-3.8,1.2-5.6,1.4C309,369.7,308.2,366,307.6,364z M310.7,361.6c0.7-0.3,1.9-1.1,2-1.8c0.3-1.3-0.2-1.5-1.3-1.5
					c-0.4,0-1.1,0.3-1.5,0.6C310.1,359.8,310.4,360.7,310.7,361.6z M312.3,367.7c0.6-0.2,1.3-0.3,1.9-0.6c0.6-0.4,1.1-0.8,1.1-1.5
					c0-0.8-0.4-1.2-1.2-1.2c-0.8-0.1-1.7,0.2-2.4,0.6C311.9,365.8,312.1,366.8,312.3,367.7z"/>
				<path class="st31" d="M323.5,352.6c1.4-0.6,2.9-1.3,4.3-1.9c0.1,1,0.3,2,0.5,3c1-1.3,1.9-2.7,2.8-4.1c1.4,0.2,2.8,0.5,4.2,0.7
					c-1.2,1.6-2.4,3.3-3.6,4.9c2.3,2.4,4.7,4.8,7,7.2c-1.3,1.1-2.7,2.2-4,3.3c-1.9-2.3-3.7-4.6-5.6-6.9c0.5,2.2,1.1,4.4,1.7,6.6
					c-1.3,0.7-2.6,1.4-3.8,2.1C325.8,362.5,324.6,357.5,323.5,352.6z"/>
				<path class="st31" d="M342.6,350.6c-0.8,0.3-1.5,0.6-2.2,0.9c0.1,0.4,0.1,0.7,0.2,1.1s0.1,0.7,0.2,1.1c0.6-0.3,1.2-0.5,1.7-0.8
					c0.6-0.3,1.1-0.6,1.7-0.8c0.2,0.5,0.4,0.9,0.6,1.4s0.4,0.9,0.6,1.4c-0.6,0.3-1.7,0.8-2.2,1c-0.8,0.4-1,0.5-1.7,0.8
					c0.2,0.6,0.3,1.3,0.5,2c0.8-0.3,1.6-0.7,2.4-1s1.6-0.7,2.4-1c0.3,0.6,0.5,1.2,0.8,1.9s0.5,1.3,0.8,1.9c-1.5,0.6-2.7,1-4.2,1.7
					s-3.4,1.7-5,2.5c-0.3-1.2-0.7-2.5-1-3.7s-0.7-2.6-1-3.8c-0.7-2.6-1.3-5-2-7.5c1.4-0.6,2.8-1.1,4.2-1.7c1.4-0.6,2.8-1.2,4.2-1.7
					c0.3,0.6,0.5,1.2,0.8,1.8c0.3,0.6,0.5,1.2,0.8,1.9C344.2,350,343.4,350.3,342.6,350.6z"/>
				<path class="st31" d="M347.6,354c-0.7-2.7-1.2-5.2-2.3-7.7c1.6-0.9,4.1-2.1,5.8-2.5c1.7-0.4,2.5-0.4,3.8,0.2s1.8,1.7,2.3,3
					c0.4,1,0.4,2.3,0.1,3.4s-0.8,1.7-1.6,2.7s-2.2,1.9-3.4,2.4c0.3,1.5,0.8,2.9,1.4,4.3c-1.4,0.6-2.8,1.1-4.2,1.7
					C348.9,359.1,348.2,356.3,347.6,354z M351.1,351.9c0.8-0.3,1.6-0.8,2-1.5s0.5-1.1,0.4-1.8c-0.1-0.7-0.5-1.3-1.3-1.3
					c-0.8-0.1-1.6,0.4-2.3,0.8C350.3,349.3,350.7,350.6,351.1,351.9z"/>
				<path class="st31" d="M366.6,339.2c0.4,2.4,0.9,5,1.5,7.3c0.7,2.7,1.4,5.1,2.3,7.7c-1.2,0.7-2.5,1.4-3.7,2.2
					c-0.5-1.8-1-3.6-1.5-5.4c-1.1,0.6-2.5,1.3-3.8,1.1c-1.2-0.1-1.7-0.8-2.5-1.6c-0.3-0.3-0.6-0.8-0.8-1.3c-0.2-0.5-0.5-1.1-0.7-1.6
					s-0.4-1.2-0.6-1.9c-0.2-0.6-0.5-1.3-0.7-2c0.7-0.4,1.4-0.9,2.1-1.3s1.5-0.8,2.2-1.3c0.2,0.8,0.3,1.6,0.4,2.4s0.3,1.9,0.6,2.6
					c0.3,0.7,0.5,1.2,1.1,1.7s1.2,0,1.7-0.4c-0.6-2.1-1.3-4.2-1.9-6.3C363.8,340.5,365.2,339.8,366.6,339.2z"/>
				<path class="st31" d="M372.1,337.7c0.2,1.5,0.4,3,0.7,4.5c0.3,1.5,1.4,0.5,1.5-1c0.2-1.5,0.3-2.4,0.4-3.7
					c1.4-0.6,2.7-1.3,4.1-1.9c0.6,2.5,1.4,5.3,2.2,7.7c0.8,2.4,1.6,4.3,2.4,6.6c-1.2,0.6-2.3,1.3-3.5,2c-1-2.5-1.9-4.9-2.8-7.4
					c-0.2,1.2-0.4,2.5-0.5,3.7c-0.1,1.3-0.1,2.5,0.1,3.7c-0.8,0.4-1.4,0.8-2.3,1.2c-0.5,0.3-1.3,0.7-1.8,1.1
					c-0.9-2.4-1.8-4.8-2.6-7.3c-0.8-2.4-1.6-4.7-2.5-7.1C369,339.2,370.6,338.5,372.1,337.7z"/>
			</g>
		</g>
		<g>
			<g>
				<path class="st32" d="M22.6,353.7c-0.2,0.5-0.5,1.1-0.7,1.6s-0.5,1.1-0.7,1.6c-2.2-0.7-4.4-1.3-6.6-1.9s-4.5-1.1-6.7-1.5
					c0.2-1.1,0.4-2.3,0.7-3.4c0.5,0.1,1.1,0.2,1.6,0.3c2.5-3.6,4.6-7.3,6.7-11.2c2.1,0.3,4.1,0.6,6.2,0.9c-1,4.3-1.6,8.6-1.9,13
					C21.6,353.3,22.1,353.5,22.6,353.7z M16.8,352c0.2-2.2,0.6-4.4,0.9-6.6c-1,2-2,4-3,6C15.4,351.6,16.1,351.8,16.8,352z"/>
				<path class="st32" d="M26.4,344.3c1.8-1.4,3.5-2,5.7-1.4c1.9,0.5,2.9,1.8,3.6,3.5c0.4,0.9,0.6,2,0.6,3s-0.2,2-0.5,3.1
					c-0.6,1.7-1.7,3.4-3.1,4.5c-1.7,1.4-3.7,2-5.7,1.4c-2.1-0.6-2.9-1.8-3.8-3.6c-0.4-0.8-0.5-1.8-0.5-2.8s0.2-2.1,0.6-3.1
					C23.9,347.1,25,345.4,26.4,344.3z M32,348.8c-0.1-0.9-0.3-1.6-1.2-1.9c-1-0.3-1.7,0.4-2.4,1.2c-0.5,0.6-1.2,1.6-1.5,2.5
					c-0.1,0.4-0.2,0.8-0.2,1.3s0,1.1,0.3,1.5c0.3,0.5,0.7,0.8,1.3,0.9s1.5,0.1,2.1-0.5s0.9-1.2,1.2-2.1S32.2,349.7,32,348.8z"/>
				<path class="st32" d="M35.6,356.9c-0.3-1.4-0.2-3.2,0.3-4.6c0.4-1.4,1.1-2.7,2-3.7c0.9-1.1,1.8-1.9,3.1-2.3
					c1.3-0.4,2.2-0.5,3.6,0.1s2.6,2,3.4,3.3c-0.5,0.4-1,0.8-1.5,1.1c-0.5,0.4-1,0.7-1.5,1.1c-0.8-1-2-1.7-3.2-1.1s-1.7,1.6-1.9,2.8
					c-0.3,1.2-0.3,2.3,0.4,3.4c0.7,1.1,2.1,1.1,3.3,0.7c0.5,1.1,1,2.1,1.4,3.2c-1.3,0.9-2.8,1.6-4.3,1.4s-2.3-0.7-3.3-1.8
					S35.8,358.3,35.6,356.9z"/>
				<path class="st32" d="M58.6,354.7c-1.4-0.3-2.7-0.6-4.1-0.9c-1.1,3.7-1.6,7.5-2.2,11.3c-1.7-0.1-3.3-0.3-5-0.4
					c1-3.9,2-7.8,3-11.7c-0.6-0.1-1.1-0.2-1.7-0.3c-0.6-0.1-1.3-0.2-1.9-0.3c0.4-1.3,0.9-2.6,1.4-3.9c3.6,0.7,7.2,1.4,10.8,2.1
					C58.8,351.9,58.7,353.3,58.6,354.7z"/>
				<path class="st32" d="M53.6,365.2c2.6-4.3,5-8.8,7-13.5c2,0.3,3.9,0.5,5.9,0.8c-0.3,5.4-0.1,10.6,0.3,16
					c-1.6-0.1-3.1-0.2-4.7-0.2c0-0.9,0-1.9,0-2.8c-1-0.2-2-0.3-3-0.5c-0.4,0.8-0.8,1.7-1.2,2.5C56.5,366.7,55,366,53.6,365.2z
					 M62.1,362.5c0.1-2,0.2-4,0.3-5.9c-0.8,1.8-1.5,3.6-2.3,5.4C60.8,362.1,61.5,362.3,62.1,362.5z"/>
				<path class="st32" d="M68.6,361.5c0.5-2.9,0.8-4.3,1.2-6.9c1.4-0.1,2.9,0,4.3,0.3s2.7,0.9,3.7,1.9c0.9,1,1.4,1.7,1.2,3.1
					c-0.1,1.4-1.3,2.3-2.5,3c1.5,0.7,2.4,1.6,2.8,3.2c0.2,0.7,0.2,1.3-0.1,2s-0.6,1.3-1.4,1.7c-1.7,1-3.1,1.4-5.3,1.2
					c-1.6-0.1-3.9-0.8-5.5-1.5C67.6,367.3,68.3,363.6,68.6,361.5z M72.3,360.8c0.7,0.1,2.1,0,2.5-0.6c0.8-1,0.4-1.5-0.6-2
					c-0.4-0.2-1.1-0.2-1.6-0.3C72.5,358.9,72.4,359.9,72.3,360.8z M71.3,367.1c0.6,0.2,1.3,0.4,1.9,0.4c0.7,0,1.2-0.2,1.6-0.8
					c0.3-0.7,0.1-1.3-0.6-1.7s-1.5-0.6-2.4-0.6C71.7,365.2,71.5,366.2,71.3,367.1z"/>
				<path class="st32" d="M81.8,357.7c1.5,0.2,3.1,0.3,4.6,0.4c-0.3,1-0.6,1.9-0.8,2.9c1.4-0.7,2.8-1.4,4.1-2.2
					c1.2,0.9,2.3,1.8,3.5,2.7c-1.7,0.9-3.4,1.7-5.2,2.6c1.1,3.3,2.2,6.6,3.4,9.9c-1.6,0.3-3.3,0.6-4.9,1c-0.8-3-1.5-5.9-2.2-8.9
					c-0.5,2.3-0.9,4.5-1.2,6.8c-1.4,0-2.8,0-4.3,0C79.9,367.7,80.9,362.7,81.8,357.7z"/>
				<path class="st32" d="M90.2,374.8c2.3-4.5,4.3-9,6-13.8c2,0.2,3.9,0.3,5.9,0.4c0,5.4,0.6,10.6,1.4,15.9c-1.6,0-3.1,0-4.7,0
					c-0.1-0.9-0.1-1.9-0.2-2.8c-1-0.1-2-0.2-3-0.3c-0.3,0.9-0.7,1.7-1,2.6C93.1,376.2,91.7,375.5,90.2,374.8z M98.5,371.7
					c0-2,0-3.9-0.1-5.9c-0.6,1.8-1.3,3.7-1.9,5.5C97.1,371.4,97.8,371.5,98.5,371.7z"/>
				<path class="st32" d="M110.4,371.5c0.3-2.9,0.4-4.3,0.7-6.9c1.4-0.2,2.9-0.2,4.2,0.1c1.4,0.3,2.8,0.7,3.8,1.6s1.5,1.6,1.5,3
					s-1.1,2.4-2.3,3.1c1.5,0.6,2.5,1.4,3.1,3c0.2,0.7,0.3,1.3,0.1,2s-0.5,1.3-1.2,1.8c-1.6,1.1-3,1.6-5.2,1.6c-1.6,0-4-0.5-5.6-1.1
					C109.8,377.3,110.2,373.5,110.4,371.5z M114,370.5c0.7,0,2.1-0.2,2.5-0.8c0.7-1.1,0.3-1.5-0.7-1.9c-0.4-0.2-1.1-0.2-1.6-0.1
					C114.1,368.6,114,369.6,114,370.5z M113.5,376.8c0.6,0.1,1.3,0.3,2,0.2c0.7-0.1,1.2-0.2,1.5-0.9c0.3-0.7,0-1.3-0.8-1.7
					c-0.7-0.4-1.6-0.5-2.4-0.4C113.7,375,113.6,375.9,113.5,376.8z"/>
				<path class="st32" d="M124.3,369c1.5-1.6,3.1-2.4,5.3-2.1c1.9,0.3,3.2,1.5,4.2,3c0.6,0.9,0.9,1.9,1.1,2.9c0.2,1,0.2,2.1,0,3.1
					c-0.3,1.8-1,3.6-2.2,4.9c-1.5,1.7-3.3,2.4-5.4,2.1c-2.1-0.3-3.2-1.4-4.3-3.2c-0.5-0.8-0.8-1.8-1-2.8c-0.1-1-0.1-2.2,0.1-3.2
					C122.4,372.1,123.1,370.3,124.3,369z M130.6,372.8c-0.3-0.9-0.6-1.6-1.5-1.7c-1-0.1-1.6,0.6-2.1,1.5c-0.4,0.7-0.8,1.8-1,2.7
					c-0.1,0.4-0.1,0.9,0.1,1.3c0.1,0.5,0.2,1.1,0.6,1.5c0.4,0.4,0.8,0.7,1.5,0.8s1.5-0.1,2-0.8s0.7-1.4,0.8-2.3
					S130.9,373.7,130.6,372.8z"/>
				<path class="st32" d="M145,374.4c-0.4,0.7-1.2,1.2-1.9,1.6c1.9,0.5,3.2,1.9,3,3.8s-1,3-2.5,4.1s-3.2,1.2-4.9,0.8
					c-1.1-0.3-1.9-0.8-2.7-1.6c-0.8-0.8-1.4-2-1.8-3.1c1.4-0.2,2.9-0.4,4.3-0.7c0.2,0.4,0.6,1,1,1.2s0.7,0.3,1,0.1
					c0.6-0.3,0.9-0.9,0.8-1.6c-0.2-0.7-0.5-1.1-1.4-1.2c-0.5-0.1-1.7-0.1-2.3-0.2c0.1-0.5,0.2-0.9,0.3-1.4s0.3-0.9,0.4-1.4
					c0.7,0,1.3-0.1,2-0.4c0.6-0.3,1.2-0.7,1.1-1.4c0-0.3-0.1-0.4-0.4-0.6s-0.4-0.2-0.8-0.2c-0.4,0-0.8,0.1-1.3,0.3
					c-0.5,0.2-1.4,0.7-2,1c-0.3-0.6-0.6-1.2-0.9-1.8c-0.3-0.6-0.6-1.2-0.8-1.8c2-1.1,4.1-1.7,6.4-1.5c1.1,0.1,1.9,0.4,2.7,1
					s1.2,1.6,1.2,2.7C145.6,373,145.4,373.7,145,374.4z"/>
				<path class="st32" d="M160.3,383.4c-0.1,0.6-0.2,1.1-0.3,1.7s-0.2,1.1-0.3,1.7c-2.3-0.2-4.6-0.4-6.9-0.6
					c-2.3-0.1-4.6-0.2-6.9-0.2c-0.1-1.1-0.1-2.3-0.2-3.5c0.5,0,1.1,0,1.6,0c1.6-4,2.8-8,3.8-12.1c2.1-0.1,4.1-0.2,6.2-0.2
					c0.1,4.4,0.5,8.7,1.3,13C159.2,383.2,159.7,383.3,160.3,383.4z M154.2,382.8c-0.3-2.2-0.5-4.4-0.7-6.6c-0.5,2.2-1,4.3-1.5,6.5
					C152.7,382.8,153.5,382.8,154.2,382.8z"/>
				<path class="st32" d="M171.5,371.8c-1.3,2.5-2.8,5.4-3.9,7.9s-2,4.7-2.8,7.2c-1.5-0.2-2.9-0.3-4.4-0.5c0.7-1.6,1.4-3.2,2.1-4.8
					c-0.6-1.6-1.3-3.1-1.9-4.7c-0.6-1.6-1.2-3.2-1.9-4.7c1.7-0.5,3.3-1.1,5-1.7c0.1,0.9,0.2,1.7,0.3,2.6c0.1,1,0.4,2.1,0.8,3.1
					c0.7-1.7,1.5-3.5,2.2-5.3C168.5,371.3,170,371.5,171.5,371.8z"/>
				<path class="st32" d="M176.3,371.9c-0.5,4.2-0.9,8.4-0.9,12.6c0.6,0,1.3,0,1.9-0.1c0-2,0-4.3,0.1-6.2c0-2.2,0-4.1,0-6.2
					c1.5-0.1,3.1-0.3,4.6-0.4c-0.5,4.3-0.7,8.5-0.5,12.7c0.7,0,1.4-0.1,2.1-0.1c-0.1-4.1-0.1-8.1-0.2-12.2c1.5-0.2,2.9-0.5,4.4-0.7
					c-0.2,2.6-0.3,5.2-0.4,7.8s0,5.3,0.2,7.9c-5.5,0.4-11,0.4-16.5,0.4c0.2-5.1,0.4-10.2,0.6-15.3
					C173.3,372.1,174.8,372,176.3,371.9z"/>
				<path class="st32" d="M193.5,371.7c-0.2,2.4-0.4,4.9-0.5,7.3c0.7-0.1,1.5-0.3,2.2-0.4c0-2.1-0.1-4.2-0.1-6.2
					c1.6-0.3,3.3-0.6,4.9-0.8c-0.4,5.1-0.6,10.1-0.1,15.2c-1.6,0.4-3.1,0.8-4.7,1.2c0-2,0-4-0.1-6c-0.8,0.2-1.5,0.3-2.3,0.5
					c0.1,1.5,0.1,3,0.3,4.6c-1.5,0.4-3.1,0.7-4.6,1.1c0-5.2,0-10.4,0-15.5C190.3,372.2,191.9,371.9,193.5,371.7z"/>
				<path class="st32" d="M201.4,379.6c0-1.8-0.1-5.2-0.3-7.2c1.4-0.4,2.7-0.6,4.1-1c-0.1,1.5-0.1,3,0,4.5c1.2,0,2.7,0.1,3.8,0.5
					c1,0.4,1.6,0.8,2.3,1.6c0.7,0.9,1,2,0.9,3.1c0,1.4-0.2,2.6-1.3,3.8c-1,1.1-1.9,1.6-3.6,2.1s-4.4,0.6-6.3,0.6
					C201.4,384.7,201.5,382.7,201.4,379.6z M205.1,383.7c0.8,0.1,1.7,0,2.4-0.4c0.7-0.4,1-1.1,0.9-1.8c-0.1-0.7-0.3-1-0.9-1.4
					s-1.6-0.5-2.4-0.3C205.1,381.1,205.1,382.4,205.1,383.7z M212.2,372c0.2,5.1,0.3,10.1,0.5,15.2c1.4-0.4,2.8-0.8,4.2-1.2
					c-0.5-5-0.5-10-0.2-15C215.2,371.3,213.7,371.7,212.2,372z"/>
				<path class="st32" d="M221,369.6c0.4,0.7,0.7,1.4,1.1,2.1s0.7,1.4,1.1,2.1c0.3-0.7,0.5-1.3,0.8-2s0.6-1.3,0.8-1.9
					c1.6,0,3.2-0.1,4.8-0.1c-1.3,2.7-2.7,5.5-4,8.2c1.3,2.1,2.6,4.1,4,6c-1.1,0.9-2.2,1.7-3.3,2.6c-0.9-1.5-1.9-3-2.8-4.5
					c-0.8,1.5-1.6,3.1-2.4,4.6c-1.3-0.2-2.6-0.5-3.9-0.7c1.5-2.5,2.8-5,4-7.6c-1.3-2.1-2.6-4.2-3.9-6.3
					C218.5,371.2,219.8,370.4,221,369.6z"/>
				<path class="st32" d="M239.7,368.8c-0.1,4.3-0.1,8.5,0.4,12.7c0.6-0.1,1.3-0.2,1.9-0.4c-0.2-2-0.4-4.2-0.6-6.1
					c-0.2-2.2-0.4-4.1-0.6-6.2c1.5-0.4,3-0.8,4.6-1.1c0,4.3,0.1,8.5,0.8,12.7c0.7-0.2,1.4-0.3,2-0.5c-0.5-4-1-8-1.4-12
					c1.4-0.5,2.8-0.9,4.2-1.4c0.1,2.6,0.2,5.2,0.4,7.9c0.2,2.6,0.6,5.2,1,7.8c-5.4,1.1-10.9,2.1-16.3,3c-0.3-5.1-0.7-10.3-1-15.4
					C236.6,369.5,238.2,369.2,239.7,368.8z"/>
				<path class="st32" d="M252.7,382.3c1-5.1,1.7-10.1,2.1-15.3c1.9-0.5,3.9-1.1,5.8-1.6c1.5,5,3.4,9.8,5.6,14.5
					c-1.5,0.6-3,1.2-4.5,1.7c-0.3-0.9-0.6-1.7-0.9-2.6c-1,0.3-2,0.5-3,0.8c-0.1,0.9-0.2,1.9-0.2,2.8
					C255.9,382.5,254.3,382.4,252.7,382.3z M259.7,376.3c-0.6-1.9-1.1-3.7-1.6-5.6c-0.1,2-0.2,3.9-0.4,5.9
					C258.4,376.5,259.1,376.4,259.7,376.3z"/>
				<path class="st32" d="M265.6,373.5c-0.3-2.8-0.4-5.3-1.2-7.9c1.7-0.7,4.3-1.6,6-1.8c1.7-0.2,2.5-0.1,3.8,0.6
					c1.2,0.8,1.6,1.9,1.8,3.2c0.2,1.1,0.1,2.3-0.4,3.4c-0.5,1-1,1.6-1.9,2.5c-0.9,0.8-2.4,1.6-3.6,2c0.1,1.5,0.4,2.9,0.7,4.4
					c-1.5,0.4-2.9,0.8-4.4,1.2C266.2,378.7,265.8,375.8,265.6,373.5z M269.4,371.8c0.8-0.2,1.7-0.6,2.2-1.3c0.5-0.6,0.6-1,0.6-1.8
					c0-0.7-0.3-1.3-1.1-1.5s-1.6,0.2-2.4,0.5C268.9,369.1,269.1,370.5,269.4,371.8z"/>
				<path class="st32" d="M277.4,365.5c1-2.1,2.4-3.4,4.6-3.8c1.9-0.4,3.4,0.3,4.8,1.4c0.8,0.7,1.4,1.5,1.8,2.4s0.7,1.9,0.8,3
					c0.2,1.8-0.1,3.8-0.9,5.5c-1,2-2.5,3.5-4.6,3.9s-3.4-0.2-5-1.5c-0.7-0.6-1.3-1.4-1.7-2.3c-0.4-0.9-0.7-2-0.8-3.1
					C276.4,369.2,276.6,367.2,277.4,365.5z M284.4,367c-0.5-0.7-0.9-1.3-1.9-1.1c-1,0.2-1.4,1.1-1.7,2.2c-0.2,0.8-0.4,2-0.3,2.9
					c0,0.4,0.2,0.8,0.4,1.3s0.4,0.9,1,1.2c0.5,0.3,0.9,0.4,1.6,0.2c0.7-0.2,1.4-0.6,1.7-1.4c0.3-0.8,0.3-1.5,0.2-2.4
					C285.3,368.9,284.9,367.7,284.4,367z"/>
				<path class="st32" d="M289.9,368.1c-0.6-2.8-0.9-4.2-1.5-6.7c1.2-0.7,2.6-1.4,4-1.7c1.4-0.3,2.8-0.5,4.1,0
					c1.2,0.4,1.9,0.9,2.3,2.2c0.4,1.3-0.4,2.8-1.2,3.8c1.6-0.1,2.8,0.3,3.8,1.6c0.5,0.6,0.7,1.1,0.7,1.9s-0.1,1.5-0.6,2.2
					c-1.2,1.6-2.3,2.7-4.4,3.6c-1.5,0.6-3.9,1-5.6,1.2C291.1,373.8,290.4,370.1,289.9,368.1z M293,365.8c0.7-0.3,1.9-1,2.1-1.7
					c0.3-1.2-0.1-1.5-1.2-1.5c-0.4,0-1.1,0.3-1.5,0.5C292.5,364,292.8,364.9,293,365.8z M294.5,371.9c0.7-0.1,1.3-0.2,1.9-0.6
					c0.6-0.3,1.1-0.7,1.1-1.5s-0.4-1.2-1.2-1.3c-0.8-0.1-1.7,0.2-2.4,0.6C294.1,370,294.3,370.9,294.5,371.9z"/>
				<path class="st32" d="M307.6,364c-0.7-2.8-1-4.2-1.7-6.7c1.2-0.8,2.6-1.5,4-1.8s2.8-0.5,4.1-0.1c1.3,0.4,1.9,0.8,2.3,2.1
					c0.4,1.3-0.3,2.8-1.1,3.9c1.6-0.1,2.8,0.2,3.8,1.5c0.5,0.6,0.7,1.1,0.7,1.8c0,0.8,0,1.5-0.5,2.2c-1.1,1.7-2.2,2.8-4.3,3.7
					c-1.5,0.6-3.8,1.2-5.6,1.4C309,369.7,308.2,366,307.6,364z M310.7,361.6c0.7-0.3,1.9-1.1,2-1.8c0.3-1.3-0.2-1.5-1.3-1.5
					c-0.4,0-1.1,0.3-1.5,0.6C310.1,359.8,310.4,360.7,310.7,361.6z M312.3,367.7c0.6-0.2,1.3-0.3,1.9-0.6c0.6-0.4,1.1-0.8,1.1-1.5
					c0-0.8-0.4-1.2-1.2-1.2c-0.8-0.1-1.7,0.2-2.4,0.6C311.9,365.8,312.1,366.8,312.3,367.7z"/>
				<path class="st32" d="M323.5,352.6c1.4-0.6,2.9-1.3,4.3-1.9c0.1,1,0.3,2,0.5,3c1-1.3,1.9-2.7,2.8-4.1c1.4,0.2,2.8,0.5,4.2,0.7
					c-1.2,1.6-2.4,3.3-3.6,4.9c2.3,2.4,4.7,4.8,7,7.2c-1.3,1.1-2.7,2.2-4,3.3c-1.9-2.3-3.7-4.6-5.6-6.9c0.5,2.2,1.1,4.4,1.7,6.6
					c-1.3,0.7-2.6,1.4-3.8,2.1C325.8,362.5,324.6,357.5,323.5,352.6z"/>
				<path class="st32" d="M342.6,350.6c-0.8,0.3-1.5,0.6-2.2,0.9c0.1,0.4,0.1,0.7,0.2,1.1s0.1,0.7,0.2,1.1c0.6-0.3,1.2-0.5,1.7-0.8
					c0.6-0.3,1.1-0.6,1.7-0.8c0.2,0.5,0.4,0.9,0.6,1.4s0.4,0.9,0.6,1.4c-0.6,0.3-1.7,0.8-2.2,1c-0.8,0.4-1,0.5-1.7,0.8
					c0.2,0.6,0.3,1.3,0.5,2c0.8-0.3,1.6-0.7,2.4-1s1.6-0.7,2.4-1c0.3,0.6,0.5,1.2,0.8,1.9s0.5,1.3,0.8,1.9c-1.5,0.6-2.7,1-4.2,1.7
					s-3.4,1.7-5,2.5c-0.3-1.2-0.7-2.5-1-3.7s-0.7-2.6-1-3.8c-0.7-2.6-1.3-5-2-7.5c1.4-0.6,2.8-1.1,4.2-1.7c1.4-0.6,2.8-1.2,4.2-1.7
					c0.3,0.6,0.5,1.2,0.8,1.8c0.3,0.6,0.5,1.2,0.8,1.9C344.2,350,343.4,350.3,342.6,350.6z"/>
				<path class="st32" d="M347.6,354c-0.7-2.7-1.2-5.2-2.3-7.7c1.6-0.9,4.1-2.1,5.8-2.5c1.7-0.4,2.5-0.4,3.8,0.2s1.8,1.7,2.3,3
					c0.4,1,0.4,2.3,0.1,3.4s-0.8,1.7-1.6,2.7s-2.2,1.9-3.4,2.4c0.3,1.5,0.8,2.9,1.4,4.3c-1.4,0.6-2.8,1.1-4.2,1.7
					C348.9,359.1,348.2,356.3,347.6,354z M351.1,351.9c0.8-0.3,1.6-0.8,2-1.5s0.5-1.1,0.4-1.8c-0.1-0.7-0.5-1.3-1.3-1.3
					c-0.8-0.1-1.6,0.4-2.3,0.8C350.3,349.3,350.7,350.6,351.1,351.9z"/>
				<path class="st32" d="M366.6,339.2c0.4,2.4,0.9,5,1.5,7.3c0.7,2.7,1.4,5.1,2.3,7.7c-1.2,0.7-2.5,1.4-3.7,2.2
					c-0.5-1.8-1-3.6-1.5-5.4c-1.1,0.6-2.5,1.3-3.8,1.1c-1.2-0.1-1.7-0.8-2.5-1.6c-0.3-0.3-0.6-0.8-0.8-1.3c-0.2-0.5-0.5-1.1-0.7-1.6
					s-0.4-1.2-0.6-1.9c-0.2-0.6-0.5-1.3-0.7-2c0.7-0.4,1.4-0.9,2.1-1.3s1.5-0.8,2.2-1.3c0.2,0.8,0.3,1.6,0.4,2.4s0.3,1.9,0.6,2.6
					c0.3,0.7,0.5,1.2,1.1,1.7s1.2,0,1.7-0.4c-0.6-2.1-1.3-4.2-1.9-6.3C363.8,340.5,365.2,339.8,366.6,339.2z"/>
				<path class="st32" d="M372.1,337.7c0.2,1.5,0.4,3,0.7,4.5c0.3,1.5,0.8,3,1.4,4.4c-0.1-1.7,0-3.9,0.2-5.4s0.3-2.4,0.4-3.7
					c1.4-0.6,2.7-1.3,4.1-1.9c0.6,2.5,1.4,5.3,2.2,7.7c0.8,2.4,1.6,4.3,2.4,6.6c-1.2,0.6-2.3,1.3-3.5,2c-1-2.5-1.9-4.9-2.8-7.4
					c-0.2,1.2-0.4,2.5-0.5,3.7c-0.1,1.3-0.1,2.5,0.1,3.7c-0.8,0.4-1.4,0.8-2.3,1.2c-0.5,0.3-1.3,0.7-1.8,1.1
					c-0.9-2.4-1.8-4.8-2.6-7.3c-0.8-2.4-1.6-4.7-2.5-7.1C369,339.2,370.6,338.5,372.1,337.7z"/>
			</g>
		</g>
	</g>
</g>
</svg>
