<?xml version="1.0" encoding="utf-8"?>
<!-- Generator: Adobe Illustrator 24.1.2, SVG Export Plug-In . SVG Version: 6.00 Build 0)  -->
<svg version="1.1" id="Layer_1" xmlns="http://www.w3.org/2000/svg" xmlns:xlink="http://www.w3.org/1999/xlink" x="0px" y="0px"
	 viewBox="0 0 262 419.5" style="enable-background:new 0 0 262 419.5;" xml:space="preserve">
<style type="text/css">
	.st0{fill:#FED9BC;}
	.st1{fill:#002133;}
	.st2{fill:#FED006;}
	.st3{fill:#FEB308;}
	.st4{fill:#DB2417;}
	.st5{fill:#CA1021;}
	.st6{fill:#0E0A10;}
	.st7{fill:#D28027;}
	.st8{fill:#47575E;}
	.st9{fill:#D4E1EA;}
	.st10{fill:#91BBCD;}
	.st11{fill:#FEFEFE;}
	.st12{fill:#FDC6A4;}
	.st13{fill:#FEF0AD;}
</style>
<g>
	<path class="st0" d="M72.8,103.2c0.9-1.3,1.9-2.6,2.8-3.8c1-0.3,1.6,0.1,1.8,1c0.3,0.9,0.5,1.8,0.6,2.7c0.2,1.2,0.3,2.4,0.5,4
		c0.3-0.6,0.4-0.8,0.6-1c3.3-6.1,7.8-11.1,13.5-15c6.9-4.8,14-5.1,21.3-1.2c2.1,1.1,3.9,2.8,5.8,4.2c0,0.1,0.1,0.2,0.1,0.3
		c0.3,0.9,0.7,1.7,1,2.6c2,4.8,3.2,9.9,3.8,15c0.5,4.5,1.1,9,1.2,13.4c0.1,4.7-0.2,9.4-0.7,14c-0.5,4.3-1.5,8.5-2.4,12.8
		c-0.3,1.5-0.9,3-1.3,4.5c1.6-2,3.1-4,4.6-6c0.8-1.1,1.6-2.3,2.5-3.5c0.1-0.1,0.2-0.1,0.3-0.2l0,0c0.3-0.4,0.6-0.7,0.8-1.1
		c5.5-7.1,12.2-12.5,21.1-14.7c5.1-1.3,10.1-1.1,14.4,2.1c6,4.4,8.9,10.6,9.9,17.8c0.7,5,0.2,10-1.2,14.8c-0.1,0.2,0.1,0.4,0.2,0.7
		c-0.5,0.9-1,1.9-1.5,2.8c-0.3,0.3-0.6,0.7-0.9,1c-1.2,1.7-2.4,3.4-3.6,5.1c-0.2,0.2-0.4,0.5-0.6,0.7c-0.1,0.2-0.3,0.4-0.4,0.5
		c-0.8-0.1-0.9,0.4-0.8,1c-0.1,0.1-0.1,0.2-0.2,0.3c-0.4,0.3-1,0.5-1.3,0.8c-2.5,2.6-5.1,5.1-8.2,7c-1.7,1-3.4,1.9-5.4,1.8
		c-1-0.1-1.6-0.6-1.5-1.6c0-0.6,0.2-1.2,0.4-1.8c-0.2,0-0.4-0.1-0.5-0.1c-4.1-0.2-7.5,1.4-10.6,3.9c-4,3.2-7.7,6.8-11.6,10.1
		c-3.1,2.7-6.6,4.8-10.6,5.7c-1.3,0.3-2.6,0.2-3.9,0.1c-0.9-0.1-1.1-0.9-0.4-1.5c0.5-0.5,1.2-1,1.9-1.2c3-1,5.7-2.5,8.2-4.4
		c0.9-0.7,1.5-1.6,2.3-2.4c9.5-8.6,14.5-19.6,16.2-32.2c0.3-0.3,0.7-0.5,0.8-0.9c2.1-3.9,7.1-5.3,11-4.6c1.4,0.2,2.7,0.7,4,0.8
		c0.8,0.1,1.8-0.2,2.4-0.7c0.8-0.8,0.2-1.8-0.3-2.5c-1-1.2-2.1-2.4-3.4-3.3c-3.6-2.6-7.6-3.3-11.9-2.6c-4.4,0.7-8.3,2.5-11.3,5.9
		c-1.3,1.4-2.1,3.1-2.1,5c0,1.6,1.2,2.4,2.6,1.9c1.1-0.4,2-1,3.1-1.4c1.3-0.6,2.4,0.1,2.3,1.6c-0.1,1.3-0.3,2.7-0.5,4
		c-1.2,6.3-3.3,12.2-6.9,17.5c-2.7,4.2-6.1,7.7-10.1,10.7c-2.7,2-5.6,3.7-8.8,4.7c0-0.5,0.1-0.9,0.1-1.4c0.2-1.7,0.3-3.3-0.8-4.7
		c-0.1-0.1-0.1-0.1-0.2-0.2c0-0.1,0-0.1,0-0.2c-0.1-0.1-0.2-0.2-0.3-0.4l0,0c-0.1-0.1-0.2-0.2-0.3-0.3l0,0c-0.6-1.6-2.1-2-3.4-2.2
		c-2.3-0.4-4.6-0.4-6.9-0.6c-0.6-0.5-1.3-1-1.9-1.5c-0.1-0.1-0.3-0.2-0.4-0.3c0,0,0,0,0,0c-0.4-0.3-0.7-0.7-1.2-0.9
		c-5-3.1-10.3-5.2-16.1-6c-4.9-0.7-9.4,0-13.2,3.2c-1.5,1.3-2.8,2.9-4.2,4.3c-0.9-1.2-1.9-2.4-2.9-3.6c0.5-0.3,0.8-0.4,1.1-0.6
		c2.3-1.4,3.9-3.3,4.5-6c2.5-3.6,2.9-7.5,1.4-11.5c-1.1-2.9-2.5-5.7-3.8-8.5c4.5-0.2,8.9,0.6,13.2,1.9c2.3,0.7,4.6,1.8,6.9,2.7
		c0.1,0,0.2,0.1,0.2,0.1c-0.1,0-0.1-0.1-0.2-0.1c-1.1-0.9-2.2-1.8-3.4-2.8c0.1-1.4,0.4-2.8,0.3-4.3c-0.4-5.3-0.8-10.7-1.3-16
		c0-0.2-0.1-0.4-0.1-0.5c0-0.2-0.1-0.5-0.1-0.7c0-0.7,0.1-1.4,0-2c-0.7-3.6-1.3-7.1-3.4-10.2c-0.8-1.2-1.9-2-3.3-2
		c-1.6,0-2.4,1.3-3,2.5c-0.1,0.3-0.2,0.6-0.3,0.8c-0.2,0.3-0.5,0.6-0.8,0.9c-0.2,0-0.3-0.1-0.5-0.1c0-1.6-0.2-3.2,0-4.7
		c0.9-5.9,2.4-11.7,4.9-17.1c0.1-0.3,0.1-0.7,0.1-1c0-0.2,0-0.3,0-0.5c0,0,0,0,0,0C72.6,103.6,72.7,103.4,72.8,103.2z M97.1,134
		c0.1-0.3,0.3-0.7,0.3-1c-0.5-3-1-6-1.7-8.9c-1-3.7-2.2-7.4-5.1-10.2c-2.3-2.3-5-2.1-6.9,0.5c-0.3,0.5-0.6,1-0.9,1.5
		c-1.5,3.3-2,7-2.2,10.6c-0.2,3.6,0,7.2,0.2,10.8c0.1,1.8,0.6,3.6,1,5.4c0.4,1.8,0.9,3.6,1.2,5.4c0.7,3.5,1.8,6.8,3.9,9.8
		c1.5,2.1,4.1,3.1,6,1.8c0.1-0.1,0.1-0.2,0.2-0.3c0-0.1,0.1-0.1,0.1-0.2c0.4-0.3,1-0.6,1.3-1.1c1.6-2.1,2.2-4.7,2.5-7.2
		C98,145.3,97.8,139.6,97.1,134z"/>
	<path class="st1" d="M119.7,94.1c-1.9-1.4-3.7-3.1-5.8-4.2c-7.3-3.9-14.4-3.6-21.3,1.2c-5.7,4-10.1,9-13.5,15
		c-0.1,0.2-0.2,0.4-0.6,1c-0.2-1.6-0.3-2.8-0.5-4c-0.1-0.9-0.4-1.8-0.6-2.7c-0.3-0.9-0.9-1.3-1.8-1C82,91.8,90,87,99.3,84.2
		c3.6-1.1,7.3-1.6,11-2.4c2.7-0.2,5.4-0.5,8-0.7c-0.4-0.6-0.8-0.9-1.2-1.1c-3.1-2.1-6-4.6-8.3-7.6c-7.2-9.7-9.4-20.6-7-32.4
		c1.1-5.9,3.5-11.2,7.2-16c0.2-0.3,0.3-0.7,0.4-1c0,0,0,0,0,0c0.1-0.1,0.2-0.2,0.3-0.3c0,0,0,0,0,0c0.1-0.1,0.2-0.2,0.3-0.3
		c0.7-0.5,1.4-1,2.1-1.4c0.9-0.3,1.7-0.6,2.6-1c5.5-2.3,11.2-3.6,17.1-3.1c5.3,0.4,10.3,2.2,14.9,4.9c5.8,3.3,10.5,7.7,13.7,13.6
		c4,7.4,4.6,15.3,2.8,23.5c-1.6,7.5-4.8,14.2-9.9,20c-1,1.1-1.9,2.2-2.8,3.4l0,0c-0.2,0.2-0.5,0.3-0.7,0.5c-2.1,1-4.3,2-6.5,3.1
		c1,0.5,2,1,2.9,1.5c7.7,4.2,14.3,9.9,19.8,16.8c0.3,0.3,0.6,0.6,0.8,0.9c0,0,0-0.1,0-0.1c0.1,0.1,0.2,0.2,0.2,0.3
		c0.5,1,1.1,2,1.6,3c3.4,6.7,5.6,13.8,6.4,21.3c0.1,0.7-0.4,1.7-0.9,2.2c-0.3,0.3-1.3,0.1-1.9-0.2c-0.6-0.3-1.2-1-1.7-1.5
		c-6.2-6.2-13.7-7.9-22-6.5c-2.3,0.4-4.5,1.4-6.8,2.1c-1.8,0.6-2.8,0-3.2-1.8c-0.2-1-0.4-2.1-0.6-3.1c-2.1-9.7-6.6-18-14.2-24.4
		C122.6,95.4,121,94.8,119.7,94.1z M167.9,115.9C167.9,116,167.9,116,167.9,115.9c0.1,0.1,0.1,0.1,0.1,0.1
		C167.9,116,167.9,116,167.9,115.9c-0.8-1.7-1.5-3.6-2.5-5.2c-3.3-5.4-7.2-10.3-12-14.4c-2.9-2.5-5.9-4.8-9-6.9
		c-1.3-0.9-2.9-1.4-4.5-1.9c-1.2-0.4-2.1,0.2-1.9,1.2c0.3,1.7,0.7,3.3,2.5,4.1c1.8,0.8,3.6,1.7,5.3,2.7c6.3,3.5,11.6,8.3,16.3,13.7
		C164.1,111.4,166,113.7,167.9,115.9z"/>
	<path class="st2" d="M230.7,336.4c8.1,5.4,13.3,12.7,14.4,22.7c0.1,0.9,0.1,1.8,0.2,2.6c-0.1,0.1-0.2,0.2-0.2,0.3
		c-0.5,6.3-3.1,11.8-7.2,16.5c-3.1,3.5-6.9,6.1-11.1,8.1c-5.1,2.5-10.4,4.2-15.9,5.1c-6.7,1.2-13.4,1.7-20.1,1.3
		c-5-0.3-10-1-14.9-2.1c-8.9-2-17.2-5.1-24.3-11.1c-4.2-3.5-7.2-7.8-8.5-13.3c-0.1-0.6-0.2-1.2-0.3-1.6c-2.1,0.6-4.1,1.5-6,1.6
		c-7,0.3-11.5-6.5-10.5-13.1c0.3-1.7,0.9-3.3,1.4-5c0.5,0.2,1.1,0.4,1.6,0.6c2.8,1.1,5.7,1.9,8.7,2l0.1,0c0.4,0.1,0.9,0.2,1.3,0.3
		c0.4,0.1,0.9,0.3,1.3,0.2c3.2-0.1,6.5-0.3,9.7-0.5c1.6-0.1,3.2-0.6,4.9-0.9c-0.3-0.2-0.6-0.3-0.9-0.2c-3.4,0.7-6.8,1-10.2,0.4
		c-2.5-0.5-4.9-1.2-6.3-3.6c-1.2-2-0.1-4.2,2.1-4.2c3,0,5.9-0.7,8.7-1.8c4-1.6,6.5-5.9,5.5-9.6c-0.9-2.5-1.9-4.9-2.8-7.4
		c4.2,0.9,8,2.6,11.4,5.2c5,3.9,5.7,9.3,1.9,14.3c-1.2,1.6-2.6,2.9-4,4.3c-0.3,0.2-0.6,0.3-0.9,0.5c0.1,0.1,0.1,0.2,0.2,0.3
		c0.3-0.2,0.5-0.5,0.8-0.7c2.5-0.8,4.3-2.6,5.8-4.6c1.6-2.1,2.5-4.6,2-7.3c-0.2-1.3-0.7-2.6-1-3.9l0,0c0.1,0,0.3,0,0.4,0
		c5.4,1,10.8,0.5,16.3,0.2c4.8-0.3,9.7-0.8,14.5-0.9c4.2-0.1,8.4,0.2,12.5,0.4c6.2,0.4,12.2,1.8,17.9,4.4
		C229.7,336.3,230.2,336.3,230.7,336.4z M145.5,361.5c0.1-0.1,0.2-0.2,0.3-0.2c0.2-0.1,0.3-0.2,0.5-0.2c0.5-0.3,1-0.6,1.5-0.9
		c5.8-3.7,12-6.7,18.4-9.2c7.7-3,15.6-5.7,23.4-8.4c1.7-0.6,3.5-1,5.3-1.4c-1.7,0-3.4,0.1-5.1,0.4c-5.6,1-10.9,2.7-16.2,4.7
		c-8,3-15.8,6.5-23.1,11.1c-1.6,1-2.8,2.4-4.2,3.6c-0.2,0.1-0.3,0.2-0.5,0.3C145.6,361.3,145.6,361.4,145.5,361.5
		C145.5,361.5,145.4,361.5,145.5,361.5c-0.1,0.1-0.1,0.1-0.1,0.1C145.4,361.6,145.4,361.5,145.5,361.5z M198.1,364.8
		c0-0.1,0-0.1,0-0.2c1,0,1.9,0,2.9-0.1c6-0.8,11.7-2.5,17.1-5.2c2.8-1.4,5.4-3,7.6-5.4c3.3-3.6,2.2-7.7-2.3-9.4
		c-2.7-0.9-5.5-0.8-8.2-0.5c-6.1,0.7-11.9,2.7-17.3,5.8c-3,1.7-5.8,3.7-7.7,6.8c-1.8,3-0.7,6.2,2.6,7.2
		C194.6,364.3,196.4,364.5,198.1,364.8z M162.6,336.7c0.1-2.3-0.8-4.2-2.2-5.9c-0.4-0.5-1.3-0.6-1.9-0.9c0,0.6-0.1,1.3,0,1.9
		c0,0.3,0.2,0.6,0.3,0.8c0.9,2.9,0.6,5.6-1.5,7.8c-1.1,1.2-2.6,2-3.9,2.9c-0.8,0.6-1.8,0.8-2.7,1.4c-0.5,0.3-0.7,1-1,1.5
		c0.6,0.2,1.3,0.7,1.8,0.5c2.2-0.7,4.5-1.3,6.5-2.5C160.7,342.7,162.5,340.2,162.6,336.7z"/>
	<path class="st3" d="M127.6,348.8c-0.5,1.6-1.1,3.3-1.4,5c-1,6.5,3.5,13.4,10.5,13.1c2-0.1,3.9-1,6-1.6c0.1,0.4,0.2,1,0.3,1.6
		c1.2,5.5,4.2,9.7,8.5,13.3c7.1,6,15.4,9.1,24.3,11.1c4.9,1.1,9.9,1.7,14.9,2.1c6.8,0.4,13.5-0.1,20.1-1.3c5.5-1,10.9-2.6,15.9-5.1
		c4.2-2.1,8-4.7,11.1-8.1c4.2-4.7,6.7-10.1,7.2-16.5c0-0.1,0.1-0.2,0.2-0.3c-0.1,2.1-0.3,4.2-0.4,6.3c-0.4,1.3-0.7,2.7-1.1,4
		c-2.4,7.4-6.6,13.6-12.4,18.8c-5.1,4.6-10.8,8-17.1,10.8c-9,3.9-18.5,5.9-28.3,6.4c-4.7,0.2-9.5,0.1-14.1-0.5
		c-8.4-1-16.5-3.7-24.1-7.4c-9.4-4.6-18.1-10.3-24.9-18.4c-1.9-2.3-3.7-4.9-4.9-7.6c-2.4-5.1-3.2-10.7-2.9-16.4
		c0.2-4.1,1-8.1,2.7-11.9c0.3-0.6,0.6-1.3,1-2.1c-1.4,1.2-2.7,3.6-3.6,6.8c-2.8,9.5-1.3,18.6,3.1,27.3c-0.2,0.2-0.4,0.3-0.5,0.4
		c-3.3,1.3-6.4,2.8-9.8,4c-6.3,2.2-12.8,3.6-19.5,4.4c-5.7,0.7-11.4,1.1-17.2,0.8c-5.3-0.3-10.5-0.8-15.6-1.9
		c-7.5-1.5-14.7-4-21.5-7.4c-8.5-4.3-16-10-22.5-17c-0.3-0.3-0.7-0.5-1.1-0.7c0,0,0,0,0,0c-0.1-0.1-0.2-0.2-0.3-0.3c0,0,0,0,0,0
		c-0.1-0.2-0.2-0.3-0.3-0.5c0,0,0,0,0,0c-0.1-0.1-0.2-0.2-0.4-0.3c-2.7-3.8-5.1-7.8-6.8-12.2c-2.3-5.9-3.4-12-2.2-18.2
		c1.5-7.9,6.1-13.5,13.1-17.1c1.3-0.7,2.8-1.2,4.1-1.8c-0.8,0.5-1.5,1.1-2.3,1.6c-5.5,3.4-7.5,8.6-6.9,14.5c0.6,5.7,3,10.8,6,15.5
		c3,4.7,6.5,9,10.1,13.2c3.8,4.4,8.3,7.8,13.4,10.5c5.7,3.1,11.7,5.1,18,6.6c7,1.6,14.1,2.3,21.3,2.6c2.7,0.1,5.4,0,8-0.3
		c2.7-0.2,5.4-0.5,8-1.1c4.1-0.9,7.3-3.2,8.2-7.7c0.5-2.7,0.9-5.5,1.2-8.2c0.6-4.9,2.2-9.1,6.8-11.5c2.5-0.8,5-1.6,7.5-2.5
		c0.8-0.3,1.6-1.2,2.3-1.1c0.7,0.1,1.1,1.3,1.8,1.8C123.3,345.5,125.5,347.1,127.6,348.8z"/>
	<path class="st2" d="M109.5,345.7c-4.6,2.4-6.2,6.6-6.8,11.5c-0.3,2.8-0.6,5.5-1.2,8.2c-0.9,4.5-4.1,6.8-8.2,7.7
		c-2.6,0.6-5.3,0.8-8,1.1c-2.7,0.2-5.3,0.4-8,0.3c-7.2-0.3-14.3-1-21.3-2.6c-6.3-1.5-12.3-3.5-18-6.6c-5-2.7-9.5-6.2-13.4-10.5
		c-3.7-4.2-7.2-8.5-10.1-13.2c-3-4.8-5.4-9.8-6-15.5c-0.6-5.9,1.4-11.2,6.9-14.5c0.8-0.5,1.5-1.1,2.3-1.6c3.1-1.2,6.4-1.5,9.7-1.6
		c9.7-0.3,19.1,1.7,28.2,4.7c6.8,2.3,13.5,5.2,20.2,7.8c-1.1,4.5-0.4,8.8,2.1,12.6c0.2,0.3,0.6,0.5,0.9,0.8c0,0,0,0,0,0
		c0.2,0.3,0.3,0.7,0.5,1l0,0c0.1,0.1,0.2,0.2,0.3,0.3l0,0c0.1,0.1,0.2,0.2,0.3,0.3c0.3,0.4,0.5,0.8,0.8,1.1
		c3.4,3.5,7.7,5.6,12.1,7.5c3.4,0.9,6.8,1.7,10.3,1.6C105.2,345.9,107.3,345.8,109.5,345.7z M34.4,317.9c-4.3,0-6.1,2-5.6,5
		c0.3,1.6,0.9,3.3,1.7,4.8c3.7,6.8,9.2,12,15.8,15.9c2.4,1.4,5.1,2.5,8,2.3c4-0.1,6.5-3.5,5.3-7.4c-0.4-1.3-1-2.5-1.7-3.7
		c-4.1-6.2-9.7-10.7-16.1-14.2C39.1,319.3,36.4,318,34.4,317.9z M59.5,322.6c5.9,4,10.8,8.6,15.4,13.4c4.6,4.8,9.2,9.8,13.6,14.6
		C86.5,344.1,65.7,323.8,59.5,322.6z"/>
	<path class="st1" d="M181.2,71.2c0.7-0.6,1.4-1.2,2-1.8c0.4-0.1,0.7-0.2,1.1-0.3c2.2-0.8,4.3-1.7,6.5-2.4
		c6.2-1.9,12.2-1.4,17.9,1.7c7.2,3.8,12.5,9.6,16.2,16.8c3.7,7.1,5.3,14.6,4.6,22.6c-0.4,4.2-1,8.3-2.4,12.3
		c-2.3,6.6-5.8,12.3-10.9,17.1c-0.3,0.3-0.6,0.8-0.8,1.2c-0.3,0.2-0.7,0.4-1,0.6c-0.4-0.1-0.8-0.3-1.1-0.2
		c-3.9,0.8-7.9,0.9-11.8,0.4c-6.4-0.8-11.7-3.8-16.2-8.3c-3.2-3.2-5.6-6.9-7.5-11c-3.1-6.5-4.6-13.5-4.8-20.6
		c-0.1-3.2,0.3-6.5,0.7-9.7c0.8-6.1,3-11.7,6.6-16.6C180.7,72.4,180.9,71.8,181.2,71.2z"/>
	<path class="st4" d="M126.7,255.1c2.3,6.7,4.4,13.4,6.8,20c3,8.1,6.2,16.2,9.2,24.3c0.1,0.4,0,0.9,0,1.3c-0.1,0.1-0.2,0.3-0.4,0.4
		c0,0-0.1,0.1-0.1,0.1c-0.5,0.1-1,0-1.4,0.2c-6.9,3.1-14.1,4.9-21.7,4.5c-4.4-0.2-8.6-1.2-12.7-2.6c-3.1-1.1-5.7-2.8-7.7-5.4
		c-2.8-3.5-4-7.7-4.9-11.9c-0.8-4-2.4-7.4-6.3-9.2c-3.2-1.5-6.4-3.1-9.2-5.4c-1.8-1.5-3.2-3.4-4.6-5.5c4.3,0,8-1.3,11.7-3
		c0.8-0.4,1.1,0.2,1.4,0.7c1,1.6,2.1,3.2,3.9,4c1.3,0.6,2.8,1.1,4.3,1.2c2.1,0,4.1-1,5.6-2.4c0.9-0.8,1.7-0.9,2.8-0.6
		c0.3,0.1,0.6,0.1,0.9,0.1c4.1,0.1,8.3-0.2,12.3-1.3C121.4,262.9,125.5,260.6,126.7,255.1z M137.6,298.7c0.1-0.1,0.3-0.2,0.4-0.3
		c-0.1-1-0.1-2-0.4-3c-0.5-1.6-1.1-3.1-1.7-4.6c-3.3-8.7-6.6-17.4-9.1-26.4c-0.1,0.5-0.2,1.1-0.2,1.6c0.2,1.4,0.4,2.8,0.6,4.1
		c1.3,6.5,3.1,12.9,5.4,19.1c1.1,2.9,2.5,5.7,3.8,8.5C136.7,298.2,137.2,298.4,137.6,298.7z"/>
	<path class="st1" d="M147.3,195.2c2.1,3.1,2.8,6.5,1.8,10.2c-2.5,9.4-5.9,18.5-9.8,27.4c-2.5,5.7-5.4,11.1-8.2,16.6
		c-0.3,0.7-0.9,1.2-1.3,1.9c-0.1,0.1-0.2,0.2-0.3,0.4c0,0,0,0,0,0c-0.5,0.1-0.9,0.2-1.4,0.4c-1.4,0.5-2.7,1.2-4.1,1.5
		c-3.8,0.8-7.5,1.2-11.4,0.9c-3.6-0.3-7.2-0.8-10.6-2.1c-2.7-1-5.3-2.3-6.6-5.1c-1.9-3.8-1-7.6,0.7-11.2c1.2-2.5,3.4-3.6,5.9-4.3
		c1.1,0,2.2-0.1,3.3-0.1c0.2,0,0.5,0,0.7,0c0.2,0,0.3,0,0.5,0c1.2,0.1,2.3,0.2,3.5,0.2c0.5,0,1,0,1.5,0c1.6-0.2,3.2-0.4,4.8-0.5
		c-0.1-0.7-0.3-1.4-0.2-2c0.4-2.9,1.6-5.6,3-8.1c1.2-2.3,2.5-4.5,3.5-6.9c1.2-2.5,0.9-3.5-0.9-5.2c1.1-0.5,2.3-1,3.4-1.6
		c6.6-3.6,11.6-9,15.9-15c0.2-0.3,0.2-0.8,0.3-1.1c0,0,0,0,0,0c0.1-0.1,0.2-0.2,0.3-0.2l0,0c0.2-0.1,0.3-0.3,0.5-0.4
		c0.1-0.1,0.2-0.1,0.3-0.2c1.3,1.1,2.5,2.1,3.8,3.2C146.6,194.3,147,194.8,147.3,195.2z M144.4,195.5c-0.2,0.3-0.3,0.4-0.3,0.4
		c0,0.7,0.1,1.3,0.2,2c0.3,5.5-0.9,10.8-2.5,16.1c-2.9,9.6-7,18.7-12.4,27.1c-1.2,1.8-2.5,3.7-4.2,4.9c-2.9,2.1-6.6,2.2-10,2
		c-2.9-0.2-5.7-1-8.6-1.5c-0.2,0-0.4,0.1-0.7,0.1c0.1,0.3,0.1,0.6,0.3,0.8c0.2,0.2,0.5,0.3,0.8,0.4c4.8,2.3,9.8,3,15,2.6
		c1.5-0.1,3-0.7,4.4-1.3c2.4-1.1,3.8-3.4,5.2-5.6c6.2-9.7,10.4-20.2,13-31.4c1-4.3,2-8.7,1.3-13.3
		C145.5,197.7,145.6,196.4,144.4,195.5z"/>
	<path class="st5" d="M126.7,255.1c-1.2,5.5-5.2,7.8-10,9.2c-4,1.1-8.1,1.4-12.3,1.3c-0.3,0-0.6,0-0.9-0.1c-1-0.3-1.9-0.2-2.8,0.6
		c-1.6,1.5-3.5,2.5-5.6,2.4c-1.4,0-2.9-0.5-4.3-1.2c-1.7-0.8-2.9-2.4-3.9-4c-0.3-0.5-0.6-1-1.4-0.7c-3.6,1.7-7.4,2.9-11.7,3
		c1.4,2.1,2.8,4,4.6,5.5c2.7,2.4,5.9,3.9,9.2,5.4c3.8,1.8,5.4,5.3,6.3,9.2c0.9,4.3,2.2,8.4,4.9,11.9c2,2.6,4.7,4.4,7.7,5.4
		c4.1,1.5,8.3,2.4,12.7,2.6c7.6,0.4,14.8-1.4,21.7-4.5c0.4-0.2,0.9-0.1,1.4-0.2c-0.1,0.1-0.1,0.2-0.2,0.2c-0.7,0.6-1.4,1.1-2.2,1.7
		c-6.3,4.5-13.4,6.2-20.9,6.3c-0.6,0-1.1,0.2-1.7,0.2c-5.3-0.2-10.4-1.2-15.4-3.1c-0.2-0.2-0.4-0.3-0.7-0.5
		c-0.4-0.2-0.7-0.4-1.1-0.6c-3.3-1.5-6.3-3.5-8.4-6.4c-0.6-0.8-1.1-0.8-1.9-0.8c-4,0.1-8.1,0.2-12.1,0.2c-1.9,0-3.7-0.5-5.6-0.8
		c-4.7-1.3-9.2-3.1-13-6.3c-1.4-1.2-2.7-2.6-3.9-4.1c-1.7-2.2-2.4-4.7-2.1-7.6c0.6-5.7,1-11.5,1.4-17.3c0.1-1.6-0.1-3.3-0.2-4.9
		c3,0.7,6,1.4,9,2c1.2,3,3.7,4.4,6.1,3.5c0.2-0.1,0.4-0.1,0.5-0.2l0.1,0l0-0.1c0.5-0.7,1.1-1.5,1.6-2.2c3.2-0.2,6.3-0.2,9.5-0.6
		c1.5-0.2,2.9-1.3,4.3-2c0.2-0.1,0.4-0.2,0.5-0.3c0.6,0.2,1.1,0.4,1.7,0.6c0.8,2.9,2.2,5.4,4.6,7.1c1.7,1.3,3.6,1.7,5.7,1
		c3.9-1.1,6.1-3.8,7.2-7.7c2.9,0,5.8,0.2,8.6,0C118.3,258.4,122.7,257.4,126.7,255.1L126.7,255.1z M83,298.1c0.4,0,0.8-0.1,1.3,0
		c1.3,0.2,1.9-0.4,2-1.6c0-1.7,0.2-3.4-0.1-5c-0.7-3.9-2.7-6.8-6.5-8.3c-2.8-1.1-5.5-2.4-8.1-4c-2.8-1.7-5.4-3.8-8.2-5.6
		c-1.2-0.8-2-0.5-2.3,0.9c-0.5,2.5-0.7,5.1-0.3,7.7c0.4,2.9,1.4,5.6,3.4,7.7C69.2,295.3,75.8,297.3,83,298.1z"/>
	<path class="st6" d="M181.2,71.2c-0.3,0.6-0.5,1.2-0.9,1.6c-3.7,4.9-5.8,10.5-6.6,16.6c-0.4,3.2-0.8,6.5-0.7,9.7
		c0.2,7.2,1.7,14.1,4.8,20.6c1.9,4.1,4.3,7.8,7.5,11c4.5,4.5,9.8,7.5,16.2,8.3c4,0.5,7.9,0.4,11.8-0.4c0.3-0.1,0.7,0.1,1.1,0.2
		c-5.3,3.1-11,4.3-17.1,3.6c-7-0.8-13-3.9-18.2-8.6c-0.1-0.1-0.3-0.2-0.5-0.3c0-0.1-0.1-0.1-0.1-0.2c0,0.1,0,0.1,0,0.2
		c0.1,0,0.1,0,0.2,0c0.1,1.3,0.1,2.6,0.2,3.9c0.5,10.1-1.1,19.9-5,29.3c-0.1-0.2-0.2-0.5-0.2-0.7c1.4-4.9,2-9.8,1.2-14.8
		c-1.1-7.2-4-13.5-9.9-17.8c-4.4-3.2-9.4-3.4-14.4-2.1c-8.8,2.3-15.5,7.7-21.1,14.7c-0.3,0.4-0.6,0.7-0.8,1.1c0-0.2,0-0.4,0-0.6
		c1.8-7.5,2.3-15.2,1.8-22.9c-0.5-6.4-1.6-12.7-4.1-18.6c-1.6-3.8-3.5-7.5-6.5-10.4c0-0.1-0.1-0.2-0.1-0.3c1.4,0.8,2.9,1.4,4.1,2.4
		c7.6,6.4,12.1,14.7,14.2,24.4c0.2,1,0.4,2.1,0.6,3.1c0.4,1.9,1.4,2.4,3.2,1.8c2.3-0.7,4.5-1.7,6.8-2.1c8.3-1.4,15.8,0.3,22,6.5
		c0.5,0.5,1,1.2,1.7,1.5c0.6,0.3,1.6,0.5,1.9,0.2c0.5-0.5,1-1.5,0.9-2.2c-0.8-7.5-3-14.6-6.4-21.3c-0.5-1-1.1-2-1.6-3
		c-0.1-0.1-0.2-0.2-0.2-0.3c0,0,0,0.1,0,0.1c0.1-1.6,0.2-3.3,0.3-4.9c0.8-11.5,5.3-21.1,13.8-28.8C181,71.3,181.1,71.3,181.2,71.2z"
		/>
	<path class="st1" d="M63.3,156.9c1.3,2.8,2.7,5.6,3.8,8.5c1.6,4,1.1,7.9-1.4,11.5c-2.7,2.7-6,3.1-9.5,2.5c-3.4-0.6-6.5-2-9.5-3.7
		c-0.4-0.2-0.7-0.5-1.1-0.7c-5.6-3.8-8.6-9.3-9.5-16c-0.3-2.5-0.2-5,0.6-7.4c1.7-5,6.3-7.7,12-7.4c3.7,0.2,6.5,2.3,8.8,4.9
		c1.9,2.1,3.5,4.6,5.3,6.9C62.9,156.4,63.1,156.7,63.3,156.9z M61.8,162.1c-0.1,0-0.3,0-0.4,0c-0.1,0.4-0.2,0.8-0.2,1.2
		c-0.4,2-1.2,3.6-3.1,4.5c-2.2,1-4.3,0.5-6.3-0.2c-4.9-1.7-8.7-5.2-12.3-8.7c-0.4-0.4-0.8-0.9-1.2-1.4c-0.1,1,0,1.9,0.2,2.7
		c0.8,3.4,2.3,6.4,4.6,9c4.2,4.8,9.1,8.1,15.7,7.7c2.6-0.1,5.1-1.8,5.6-4.1C65.3,168.9,64,165.4,61.8,162.1z M52.2,155.9
		c2.2,0,3.4-1.3,3.2-3.4c-0.2-2.9-4.3-5.9-7.1-5.2c-1.8,0.4-2.8,1.9-2.4,3.5C46.6,153.4,49.7,155.9,52.2,155.9z"/>
	<path class="st7" d="M10.4,360.2c0.4,0.2,0.8,0.4,1.1,0.7c6.5,7,14,12.7,22.5,17c6.8,3.5,14,5.9,21.5,7.4c5.2,1,10.4,1.6,15.6,1.9
		c5.8,0.3,11.5-0.1,17.2-0.8c6.7-0.8,13.2-2.2,19.5-4.4c3.3-1.1,6.5-2.6,9.8-4c0.1-0.1,0.3-0.2,0.5-0.4c-4.4-8.7-5.9-17.8-3.1-27.3
		c0.9-3.2,2.2-5.6,3.6-6.8c-0.4,0.9-0.7,1.5-1,2.1c-1.7,3.8-2.4,7.8-2.7,11.9c-0.3,5.7,0.5,11.2,2.9,16.4c1.3,2.7,3,5.3,4.9,7.6
		c6.9,8.1,15.6,13.8,24.9,18.4c7.6,3.8,15.7,6.4,24.1,7.4c4.7,0.6,9.4,0.8,14.1,0.5c9.8-0.5,19.3-2.4,28.3-6.4
		c6.2-2.7,12-6.2,17.1-10.8c5.8-5.2,10-11.3,12.4-18.8c0.4-1.3,0.7-2.7,1.1-4c-0.7,2.9-1.1,6-2.2,8.8c-3.7,9.9-10.7,17-19.5,22.4
		c-8,4.9-16.7,7.8-25.8,9.3c-6.6,1.1-13.1,1.5-19.7,1.2c-11-0.6-21.4-3.4-31.4-8.2c-8.2-4-15.6-9-21.9-15.7c-2-2.2-3.8-4.6-5.7-6.9
		c-8.8,5.2-18.5,8-28.6,9.6c-6.7,1-13.4,1.3-20.2,0.9c-16-0.8-30.9-5-44.1-14.5c-5.5-3.9-10.5-8.5-14.7-13.8
		C10.8,360.9,10.6,360.5,10.4,360.2z"/>
	<path class="st1" d="M151.5,323.8c0.9,2.5,1.9,4.9,2.8,7.4c-0.4,0.7-0.8,1.4-1.2,2c-0.1,0.1-0.2,0.2-0.3,0.3l0,0
		c-0.1,0.2-0.2,0.3-0.3,0.5l0,0c-0.5,0.2-1,0.4-1.4,0.7c-1.8,1.1-3.7,1.9-5.9,2c-5.5,0.3-9.5-2.2-11.7-7.1c-2.1-4.9-3.6-10-5.2-15
		c-0.5-1.5,0.3-3,1.7-3.7c0.6-0.3,1.3-0.6,1.9-0.9c2.5-1.3,5.1-2.6,7.6-4.1c1.2-0.8,2.1-2,3.1-3c2.4,5.7,4.7,11.4,7.1,17.1
		c0.4,0.9,0.7,1.7,1.1,2.6C151.2,323,151.3,323.4,151.5,323.8z M150.6,330.2c-0.2-0.6-0.3-1.2-0.5-1.7c-2.5-5.8-5-11.5-7.5-17.3
		c-0.3-0.6-1.2-1.6-1.5-1.5c-1.1,0.4-0.7,1.5-0.5,2.3c1.2,5.5,3.6,10.5,6.3,15.4c0.6,1.1,1.4,2.1,2.2,3.1c0.2,0.3,0.7,0.5,1.1,0.5
		C150.3,331.1,150.5,330.5,150.6,330.2z"/>
	<path class="st8" d="M215.4,138.3c0.3-0.4,0.5-0.9,0.8-1.2c5.1-4.7,8.7-10.5,10.9-17.1c1.4-4,2-8.1,2.4-12.3
		c0.7-8-0.9-15.6-4.6-22.6c-3.8-7.2-9-13-16.2-16.8c-5.8-3.1-11.8-3.6-17.9-1.7c-2.2,0.7-4.3,1.6-6.5,2.4c-0.3,0.1-0.7,0.2-1.1,0.3
		c3.1-2.6,6.7-4.1,10.4-5.3c10.9-3.4,20,0,27.8,7.7c8.9,8.8,13,19.7,12.6,32.3c-0.4,9.9-3.5,18.8-9.7,26.5
		C221.8,133.7,219,136.4,215.4,138.3z"/>
	<path class="st6" d="M72.2,297.6c1.9,0.3,3.7,0.7,5.6,0.8c4,0.1,8.1-0.1,12.1-0.2c0.8,0,1.3,0,1.9,0.8c2.1,3,5.1,4.9,8.4,6.4
		c0.4,0.2,0.7,0.4,1.1,0.6c-3.2,0.4-6-0.7-8.9-1.8c-1.7-0.7-3.6-1.2-5.4-1.4c-1.9-0.2-3.6,1.6-3.4,3.5c0.3,2.1,0.8,4.1,1.5,6.1
		c1.1,3,2.3,6,3.6,8.9c1,2.2,1.9,4.6,3.5,6.5c3.2,3.9,7.6,5,12.5,4.4c2.2-0.3,4.1-1.5,5.9-2.7c0,0.2-0.1,0.4-0.1,0.7
		c-0.1,0.1-0.1,0.2-0.2,0.4c-0.1,0.2-0.2,0.3-0.3,0.5c-1.4,0.9-2.6,2.2-4.1,2.7c-7.2,2.3-14,1.3-20.5-2.6c-0.4-0.3-0.8-0.8-1-1.3
		c-1.6-3.8-3.2-7.7-4.9-11.6c-0.2-0.3-0.4-0.7-0.6-1c-2.2-6.1-4.3-12.2-6.5-18.4C72.4,298.4,72.3,298,72.2,297.6z"/>
	<path class="st8" d="M150.5,82.3c0.9-1.1,1.8-2.3,2.8-3.4c5-5.8,8.2-12.5,9.9-20c1.8-8.2,1.2-16-2.8-23.5
		c-3.2-5.9-7.9-10.3-13.7-13.6c-4.6-2.7-9.6-4.5-14.9-4.9c-5.9-0.5-11.6,0.7-17.1,3.1c-0.8,0.4-1.7,0.6-2.6,1
		c3.5-2.8,7.5-4.6,11.8-5.7c15.1-3.7,27.8,0.7,37.8,12.6c6.3,7.6,8,16.6,6.4,26.2c-1.8,10.7-6.8,19.6-15.2,26.5
		C152.1,81.3,151.3,81.8,150.5,82.3z"/>
	<path class="st6" d="M142.8,302.9c-1,1-1.9,2.3-3.1,3c-2.4,1.5-5,2.8-7.6,4.1c-0.6,0.3-1.3,0.6-1.9,0.9c-1.4,0.7-2.2,2.2-1.7,3.7
		c1.6,5,3.1,10.2,5.2,15c2.1,4.9,6.2,7.4,11.7,7.1c2.1-0.1,4.1-0.9,5.9-2c0.4-0.3,0.9-0.5,1.4-0.7c-1.5,2.3-3.6,3.9-6.2,4.7
		c-6.8,2.3-13.2,0.7-19.3-2.6c-0.4-0.2-0.6-0.7-0.8-1.1c-1-2.7-2-5.4-2.9-8.1c-0.2-0.4-0.3-0.8-0.5-1.2c-1.9-5.4-3.7-10.9-5.6-16.3
		c0.6-0.1,1.1-0.2,1.7-0.2c7.6-0.1,14.7-1.7,20.9-6.3c0.7-0.5,1.5-1.1,2.2-1.7C142.4,301.9,142.6,302.4,142.8,302.9z"/>
	<path class="st9" d="M86.1,257.6c-0.2,0.1-0.4,0.2-0.5,0.3c-2.4,0.4-4.8,1.1-7.3,1.2c-5.1,0.3-10.2,0-15.2-1.2
		c-6.9-1.6-13.8-3.3-20.7-5c-1.4-0.3-2.8-0.5-4.2-0.8c0,0.1,0,0.1,0,0.2c2.3,0.7,4.7,1.5,7,2.2c0,0.1,0,0.2,0,0.3
		c-2.2,0-4.5,0-6.7,0c0,0.1,0,0.2,0,0.2c1.5,0.2,3,0.4,4.6,0.6c-2,1.4-3.9,2.8-5.8,4.2c-4.1,3-8.2,6.2-13.4,7.1
		c-2.2-0.4-4-1.5-5-3.5c-0.3-1.5-0.7-3.1-0.8-4.6c0-5.2,1.5-10,3.9-14.5c0.9-1.6,2.3-3,3.4-4.4c0.7,0.4,1.5,0.8,2.2,1.2
		c-0.2,0.4-0.3,0.9-0.5,1.3c-2.2,3.8-4.3,7.7-4.9,12.1c-0.2,1.5-0.2,3.2,0.3,4.6c1,2.9,3.8,3.7,7.1,2.3c2.6-1,4.7-2.8,6.7-4.8
		c0.6-0.6,0.5-1,0-1.6c-0.7-1-1.5-2.1-1.9-3.2c-0.7-1.9,0.4-3.3,2.3-3.2c0.7,0,1.3,0.2,1.9,0.4c2.8,1,5.6,2.1,8.5,2.9
		c4.6,1.2,9.2,2.3,13.9,3.3c2.7,0.6,5.4,0.9,8.2,1c2.4,0.2,4.8,0.2,7.1-0.1c2.6-0.3,3.5-1.5,3.6-4C81.6,254.5,83.6,256.3,86.1,257.6
		z"/>
	<path class="st6" d="M109.4,23c-0.1,0.3-0.2,0.7-0.4,1c-3.7,4.7-6,10.1-7.2,16c-2.3,11.8-0.2,22.7,7,32.4c2.3,3.1,5.2,5.5,8.3,7.6
		c0.4,0.3,0.8,0.6,1.2,1.1c-2.7,0.2-5.4,0.5-8,0.7c-1.9-1.6-3.8-3-5.5-4.7c-4.7-4.8-7.3-10.6-8.5-17.2c-2.1-11.4,0.1-21.8,7.2-30.9
		C105.3,26.8,107.5,25,109.4,23z"/>
	<path class="st6" d="M126.6,255c-3.9,2.4-8.3,3.3-12.8,3.7c-2.9,0.2-5.7,0-8.6,0c-2.3-0.6-4.5-1.2-6.8-1.7c-3-1.2-5.7-2.7-7.5-5.5
		c-0.8-1.9-1.2-3.9-0.9-6.1c0.9-5.8,3.5-10.4,8.7-13.2c1.1-0.1,2.2-0.3,3.3-0.4c-2.5,0.7-4.7,1.8-5.9,4.3c-1.7,3.6-2.6,7.4-0.7,11.2
		c1.3,2.7,4,4,6.6,5.1c3.4,1.3,7,1.8,10.6,2.1c3.9,0.3,7.6-0.1,11.4-0.9c1.4-0.3,2.7-1,4.1-1.5c0.5-0.2,0.9-0.3,1.4-0.4
		C128.5,252.8,127.6,253.9,126.6,255z"/>
	<path class="st6" d="M195.8,329.9c2.5-7.2,4.7-14.5,7.6-21.5c5.1-12.5,12.6-23.3,22.9-32c2.6-2.2,5.5-4.1,8.3-6.2
		c0.3-0.2,0.7-0.4,1.1-0.6c0.1,0.1,0.2,0.2,0.2,0.3c-0.3,0.3-0.7,0.5-1,0.8c-12.8,9.5-22.1,21.9-28.7,36.4
		c-3.3,7.4-5.7,15.1-8.2,22.7C197.2,329.9,196.5,329.9,195.8,329.9z"/>
	<path class="st7" d="M195.8,329.9c0.7,0,1.4,0,2.2,0c7.2-0.3,14.3,0,21.4,1.6c3.7,0.8,7.1,2,10.2,4.3c0.4,0.3,0.8,0.4,1.2,0.7
		c-0.5-0.1-1-0.1-1.5-0.3c-5.7-2.6-11.7-4-17.9-4.4c-4.2-0.2-8.4-0.5-12.5-0.4c-4.8,0.1-9.7,0.7-14.5,0.9
		c-5.4,0.3-10.9,0.8-16.3-0.2c-0.1,0-0.3,0-0.4,0c0,0-0.1-0.1-0.1-0.1c0,0,0.1,0.1,0.1,0.1c0.4,1.3,0.8,2.6,1,3.9
		c0.5,2.7-0.4,5.2-2,7.3c-1.5,2-3.3,3.8-5.8,4.6c0,0-0.1-0.1-0.1-0.1c1.3-1.4,2.8-2.8,4-4.3c3.8-5.1,3.1-10.4-1.9-14.3
		c-3.4-2.7-7.2-4.3-11.4-5.2c-0.1-0.4-0.3-0.8-0.4-1.2c6.1,1.1,11.6,3.5,15.8,8.4c0.3,0.4,1,0.6,1.5,0.6c6.3-0.3,12.5-0.7,18.8-1
		C190,330.4,192.9,330.1,195.8,329.9z"/>
	<path class="st7" d="M63.3,156.9c-0.2-0.3-0.3-0.6-0.5-0.9c1.4-0.1,2.7-0.2,4.3-0.3c-0.5-1.6-1-3.2-1.4-4.7
		c-3.6-13.3-3.2-26.5,2.2-39.2c1.1-2.7,2.8-5.1,4.2-7.7c0.1-0.2,0.3-0.3,0.5-0.4c0,0.2,0,0.3,0,0.5c-0.3,0.4-0.5,0.7-0.8,1.1
		c-4.3,7.8-6.4,16.1-6.9,24.9c-0.5,8.4,0.6,16.6,3.2,24.6c0.1,0.4,0.5,0.8,0.8,0.9c1,0.3,2.1,0.4,3.2,0.5c2.2,0.7,4.5,1.3,6.9,2
		c0.5-7.5-0.2-14.9-1.7-22.2c-0.1-1.6-0.1-3.2-0.2-4.8c0.2,0.4,0.4,0.8,0.5,1.2c0.4,1.5,0.8,3,1.2,4.4c0,0.2,0.1,0.5,0.1,0.7
		c0,0.2,0.1,0.4,0.1,0.5c0.4,5.3,0.9,10.7,1.3,16c0.1,1.5-0.2,2.9-0.3,4.3c1.1,0.9,2.3,1.9,3.4,2.8l-0.1,0.1c-2.3-0.9-4.5-2-6.9-2.7
		C72.2,157.5,67.8,156.8,63.3,156.9z"/>
	<path class="st1" d="M22.2,221.5c2.6-3.3,6-5,10.1-5.6c0,0.1-0.1,0.3-0.1,0.3c-5.3,5.7-6.8,12.3-4.4,19.8c-1,1.2-2,1.3-3.3,0.6
		c-1.4-0.8-2.2-2-2.8-3.5c-1.2-3.2-0.9-6.4,0-9.6C21.9,222.9,22.1,222.2,22.2,221.5z"/>
	<path class="st10" d="M27.8,236c-2.4-7.5-0.9-14.1,4.4-19.8c0.1-0.1,0.1-0.2,0.1-0.3c0.7-0.4,1.5-0.8,2.2-1.3
		c-0.6,0.8-1.2,1.5-1.7,2.3c-2.1,2.3-3.2,5.1-4,8.1c-1.8,7.1,0.3,13.1,5.7,17.4c3.4,3.4,11.4,4.6,14.7,3.4c-1.2-0.4-2.5-0.9-3.7-1.4
		c-3.3-1.4-6.1-3.6-8.4-6.4c-0.8-1.5-1.5-3.1-2.3-4.6c0.4,0.7,0.9,1.3,1.3,2c4.4,6.4,10.7,9.3,18.2,9.7c3.8,0.2,7.5-0.7,10.9-2.5
		c0.5-0.2,1-0.4,1.5-0.6c0,0,0.1,0.1,0.1,0.1c-1.4,1-2.7,2-4.1,3c-3.2,1-6.5,1.5-9.9,1.1c-1.1-0.1-2.3-0.4-3.2,0
		c-3.2,1.3-6.4,1.3-9.7,0.5c-3.1-0.7-5.7-2.5-8.1-4.6C30.5,240.2,29.1,238.1,27.8,236z"/>
	<path class="st10" d="M23.8,267c5.2-0.9,9.3-4.1,13.4-7.1c1.9-1.4,3.8-2.8,5.8-4.2c-1.6-0.2-3.1-0.4-4.6-0.6c0-0.1,0-0.2,0-0.2
		c2.2,0,4.5,0,6.7,0c0-0.1,0-0.2,0-0.3c-2.3-0.7-4.7-1.5-7-2.2c0-0.1,0-0.1,0-0.2c1.4,0.3,2.8,0.4,4.2,0.8c6.9,1.6,13.8,3.4,20.7,5
		c5,1.1,10.1,1.5,15.2,1.2c2.4-0.2,4.8-0.8,7.3-1.2c-1.4,0.7-2.8,1.8-4.3,2c-3.1,0.5-6.3,0.4-9.5,0.6c-2.1-0.3-4.2-0.5-6.3-0.8
		c-0.7-0.1-1.4-0.2-2.1-0.2c-3-0.7-6-1.4-9-2c-2.8-0.6-5.4-2-8.4-1.8c-0.7,0.1-1.4,0.3-1.9,0.7c-3.6,2.6-7,5.3-10.6,7.8
		c-2,1.4-4.2,2.7-6.7,3C25.8,267.3,24.8,267.1,23.8,267z"/>
	<path class="st10" d="M25.3,240.1c-1.2,1.5-2.5,2.8-3.4,4.4C19.5,249,18,253.8,18,259c0,1.5,0.5,3.1,0.8,4.6
		c-3.7-3.3-5.6-7.5-5.5-12.4c0.1-6.4,1.8-12.4,6-17.4c0.2-0.2,0.5-0.4,0.7-0.5c0.2,0.3,0.3,0.7,0.5,1c-0.3,0.4-0.7,0.7-1,1.1
		c-3.8,5.3-5.4,11.3-5,17.8c0.2,2.8,0.9,5.6,2.7,7.9c0,0,0.1,0.1,0.1,0.1c0,0-0.1-0.1-0.1-0.1c-0.1-1.7-0.2-3.4-0.3-5.1
		c0.5-5.7,2.7-10.8,6.1-15.4c0.3-0.5,0.7-0.9,1-1.4C24.5,239.4,24.9,239.7,25.3,240.1z"/>
	<path class="st6" d="M25.3,240.1c-0.4-0.3-0.9-0.7-1.3-1c-0.9-1.1-1.9-2.2-2.8-3.3c-0.2-0.5-0.5-1-0.7-1.5c-0.2-0.3-0.3-0.7-0.5-1
		c-0.7-2.7-1-5.4,0-8.1c0.5-1.3,1.4-2.4,2.2-3.6c-0.2,0.7-0.3,1.4-0.5,2.1c-0.9,3.2-1.2,6.4,0,9.6c0.6,1.5,1.4,2.7,2.8,3.5
		c1.3,0.8,2.3,0.6,3.3-0.6c1.3,2.1,2.7,4.1,4,6.2c-1.4-0.3-2.8-0.6-4.3-1C26.8,240.8,26.1,240.4,25.3,240.1z"/>
	<path class="st10" d="M37,213.1c2.2-4.1,5.2-7.5,8.5-10.7c3.4-3.2,7.2-5.8,11.4-7.7c0.4-0.2,0.8-0.3,1.3-0.5
		c0.8-0.3,1.6-0.5,2.5-0.8c2.2-0.2,4.4-0.3,6.5-0.5c0.1,0,0.1,0,0.2,0c0,0.1,0,0.2,0,0.2c-0.7,0.1-1.5,0.2-2.2,0.3
		c-0.2,0-0.3,0-0.5,0c-5.2,1-9.9,3.3-14.1,6.4c-5.5,4-10,8.9-13.5,14.7c-1,1.8-1.9,3.6-2.8,5.5c0.3-0.9,0.5-1.9,0.8-2.8
		C35.7,216,36.4,214.6,37,213.1z"/>
	<path class="st7" d="M147.3,195.2c-0.4-0.4-0.7-0.9-1.1-1.3c0.4-0.1,0.7-0.2,1.1-0.4c4.3-2.1,8.3-4.7,11.8-8.1
		c2.4-2.3,4.6-4.9,6.8-7.4c0.1-0.1,0.1-0.2,0.2-0.3c0.3-0.3,0.5-0.7,0.8-1c0.1-0.2,0.3-0.4,0.4-0.5c0.2-0.2,0.4-0.5,0.6-0.7
		c1.2-1.7,2.4-3.4,3.6-5.1c0.3-0.4,0.6-0.7,0.9-1c-1,2-1.9,4-3.1,5.9c-5.3,8.5-12.3,15.1-21.3,19.5
		C147.7,194.9,147.5,195.1,147.3,195.2z"/>
	<path class="st7" d="M58.3,194.3c-0.4,0.2-0.8,0.3-1.3,0.5c-4.8-3.8-8.3-8.4-10.3-14.2c-0.6-1.8-0.7-3.7-1.1-5.5
		c0.4,0.2,0.7,0.5,1.1,0.7c0,0.4,0.1,0.8,0.1,1.1c0.8,3.8,2.4,7.3,4.8,10.3C53.6,189.7,56,192,58.3,194.3z"/>
	<path class="st7" d="M79,317.2c0.2,0.3,0.4,0.7,0.6,1c-0.4,0.3-1,0.5-1.3,0.9c-1.9,2.5-2.1,5.5-1.6,8.5c0.4,2.3,1.4,4.5,2.1,6.7
		c-0.3-0.3-0.7-0.5-0.9-0.8c-2.5-3.9-3.3-8.1-2.1-12.6C76.5,319.3,77.5,318,79,317.2z"/>
	<path class="st9" d="M37,213.1c-0.6,1.5-1.3,2.9-1.9,4.4c-0.6-0.8-1.5-0.6-2.3-0.5c0.6-0.8,1.2-1.5,1.7-2.3c0,0,0,0,0,0
		c0.1-0.1,0.2-0.3,0.3-0.4C35.5,213.9,36.3,213.5,37,213.1z"/>
	<path class="st8" d="M149.7,82.8c0.2-0.2,0.5-0.3,0.7-0.5C150.2,82.5,150,82.7,149.7,82.8z"/>
	<path class="st7" d="M72.8,103.2c-0.1,0.2-0.2,0.3-0.3,0.5C72.6,103.6,72.7,103.4,72.8,103.2z"/>
	<path class="st6" d="M129.5,251.7c0.1-0.1,0.2-0.2,0.3-0.4C129.7,251.4,129.6,251.6,129.5,251.7z"/>
	<path class="st5" d="M142.4,301.1c0.1-0.1,0.2-0.3,0.4-0.4C142.6,300.8,142.5,300.9,142.4,301.1z"/>
	<path class="st7" d="M9.9,359.5c0.1,0.2,0.2,0.3,0.3,0.5C10.1,359.8,10,359.6,9.9,359.5z"/>
	<path class="st6" d="M109.7,22.7c-0.1,0.1-0.2,0.2-0.3,0.3C109.5,22.9,109.6,22.8,109.7,22.7z"/>
	<path class="st6" d="M110,22.5c-0.1,0.1-0.2,0.2-0.3,0.3C109.8,22.7,109.9,22.6,110,22.5z"/>
	<path class="st10" d="M34.8,214.3c-0.1,0.1-0.2,0.3-0.3,0.4C34.6,214.5,34.7,214.4,34.8,214.3z"/>
	<path class="st7" d="M9.5,359.2c0.1,0.1,0.2,0.2,0.4,0.3C9.8,359.4,9.7,359.3,9.5,359.2z"/>
	<path class="st7" d="M10.2,360c0.1,0.1,0.2,0.2,0.3,0.3C10.3,360.1,10.2,360.1,10.2,360z"/>
	<path class="st11" d="M67.5,193.1c-0.1,0-0.1,0-0.2,0c-0.7-1.3-1.7-2.5-1.2-4.1c0.4-1.3,1.1-2.6,1.8-3.7c0.7-1,1.6-1.9,2.4-2.8
		c2.7-1.5,5.6-2.1,8.7-1.7c2.3,0.3,4.7,0.7,6.9,1.5c3.6,1.3,7,2.8,10.5,4.3c0.4,0.9,0.3,1.7-0.3,2.5c-1.5,0.1-3,0.3-4.5,0.4
		c0.9,0.2,1.8,0.4,2.7,0.4c2.8,0,5.6,0,8.4,0c2.6-0.1,5.2,0.2,7.5,1.6l0,0c0.1,0.1,0.2,0.2,0.3,0.3c0,0,0,0,0,0
		c0.1,0.1,0.2,0.2,0.3,0.4c0,0.1,0,0.1,0,0.2c0.1,0.1,0.1,0.1,0.2,0.2c1.1,1.4,1,3.1,0.8,4.7c-0.1,0.2-0.2,0.4-0.2,0.6
		c-1.1,4-3.5,7-7.3,8.7c-0.4,0-0.8,0-1.2,0.1c-2.4,0.8-4.8,0.8-7.3,0.3c-4.2-1-7.5-3.5-10.7-6.3c-1.4-1.2-2.8-2.4-4.4-3.3
		c-0.6-0.4-1.6-0.3-2.2-0.1c-0.3,0.1-0.3,1.3-0.2,1.9c0.3,2.1-1,3.3-3,2.7c-0.2-0.1-0.5-0.1-0.7-0.2c-0.1,0-0.1-0.1-0.2-0.1
		c0,0.1,0.1,0.1,0.1,0.2c0.4,0.3,0.9,0.7,1.3,1c2.5,1.3,5,2.5,7.5,3.8c2.7,1.5,5.5,2.8,7.9,4.6c4.6,3.4,6.5,8,5.2,13.7
		c-0.3,1.4-1.1,2.7-1.7,4c-1.2,0.9-2.7,1.2-4.1,0.9c-1-0.2-1.9-0.7-2.9-1c-4.6-5.5-9.9-9.7-17.2-10.9c3.7,1.2,7.1,3.2,10.2,5.6
		c3.3,2.6,6.3,5.4,8.1,9.2c2,4,0.5,9.7-2.9,11.9c-0.4,0.1-0.8,0.2-1.2,0.3c-1.5,0.5-2.9,1.2-4.4,1.5c-3.1,0.7-6.2,0.9-9.2-0.7
		c-0.5-0.3-0.9-0.9-1.4-1.4c0.5-0.4,1-1,1.6-1.3c0.8-0.4,1.7-0.5,2.5-0.9c0.4-0.2,0.9-0.6,0.9-0.9c0-0.4-0.4-0.9-0.8-1.1
		c-1.4-0.7-2.9-1.4-4.3-2c-2-0.8-3.7-1.9-5-3.7c-0.4-0.5-1.1-1-1.7-1.2c-1-0.4-2.1,0.2-2.1,1.2c0,2-1.4,2.8-2.9,3.2
		c-1.8,0.5-3.7,0.7-5.7,0.5c-5.4-0.6-9.6-3.7-10.9-9.3c-0.6-2.7-0.4-5.4-0.2-8.1c3.3-1.5,6.5-2.9,9.8-4.4c-0.1-0.2-0.1-0.3-0.2-0.5
		c-3,1-6.1,2-9.1,3c0.4-1.6,0.8-3.2,1.3-4.8c3.6-2.2,7.1-4.5,10.7-6.7c-0.7,0-1.3,0.1-1.8,0.4c-2.5,1.3-4.9,2.6-7.3,3.9
		c0.2-0.5,0.4-1,0.6-1.5c0.5-1,1.1-2,1.6-2.9c2.9-2.1,5.7-4.2,8.6-6.2c0-0.1-0.1-0.1-0.1-0.2c-1.5,0.7-3,1.5-4.5,2.2
		c0.1-0.2,0.1-0.5,0.3-0.7c3.8-3.6,8.2-6.4,13.2-8.1c0.4-0.1,0.8-0.4,1.1-0.7c0.7-0.1,1.5-0.2,2.2-0.3
		C67.5,193.2,67.5,193.1,67.5,193.1z"/>
	<path class="st11" d="M93,159.7c-1.9,1.3-4.5,0.3-6-1.8c-2.1-2.9-3.3-6.2-3.9-9.8c-0.3-1.8-0.8-3.6-1.2-5.4c-0.2-2.5-0.5-5-0.5-7.6
		c0-3.2,0.2-6.4,0.5-9.6c0.3-2.8,0.9-5.5,2.5-7.9c0.7-1,1.4-1.9,2.8-1.8c-0.1,0.4-0.4,0.9-0.4,1.3c-0.2,4.5,1.5,8.2,4.8,11.2
		c1.1,1,2,0.6,3.1-0.7c0.1,0.2,0.1,0.3,0.2,0.5c1.5,6.3,2.2,12.6,1.7,19c-0.3,4.2-0.7,8.4-3.3,11.9c0,0.1-0.1,0.1-0.1,0.2
		C93.1,159.5,93,159.6,93,159.7z M84.8,119.3c-0.2,0.3-0.3,0.3-0.3,0.4c-0.1,0.3-0.2,0.6-0.3,1c-0.4,3.5-1.2,6.9-1.2,10.4
		c0,4.1,0.5,8.2,0.9,12.3c0.4,4,1.4,8,3,11.7c0.4,1,1.1,1.9,1.8,2.7c0.8,0.8,1.7,1.3,3,0.3c-1.7-0.2-2.4-1.3-3-2.6
		c-2.2-4.5-2.9-9.5-3.6-14.4c-0.3-2.2-0.6-4.4-0.7-6.6c-0.2-2.5-0.3-5-0.2-7.5C84.2,124.5,84.5,122,84.8,119.3z"/>
	<path class="st12" d="M111.7,198.4c3.3-1,6.1-2.7,8.8-4.7c4-2.9,7.3-6.5,10.1-10.7c3.5-5.4,5.7-11.2,6.9-17.5
		c0.2-1.3,0.4-2.7,0.5-4c0.1-1.5-1-2.1-2.3-1.6c-1,0.4-2,1-3.1,1.4c-1.5,0.5-2.6-0.3-2.6-1.9c0-1.9,0.9-3.6,2.1-5
		c3-3.4,6.9-5.2,11.3-5.9c4.3-0.7,8.3,0,11.9,2.6c1.3,0.9,2.4,2.1,3.4,3.3c0.6,0.7,1.1,1.8,0.3,2.5c-0.5,0.5-1.6,0.7-2.4,0.7
		c-1.4-0.1-2.7-0.5-4-0.8c-3.9-0.7-8.9,0.7-11,4.6c-0.2,0.3-0.6,0.6-0.8,0.9c0.1-2.5,0.1-4.9,0.2-7.3c0-0.3,0.5-0.8,0.8-0.8
		c2.5-0.5,5-1,7.5-1.2c2-0.1,4.1,0.2,5.9,0.4c-4.5-4.1-19.1,0.1-20.4,3.4c1.8-0.7,3.5-1.3,5.7-2.2c-0.2,3.1-0.3,5.9-0.7,8.6
		c-1.8,11.3-6.5,21.2-14.9,29.1c-3.8,3.6-8.3,6.3-13.5,7.4C111.4,199.1,111.5,198.7,111.7,198.4z M134.4,156.8
		C134.4,156.8,134.3,156.7,134.4,156.8c-0.1-0.1-0.1,0-0.2,0C134.2,156.8,134.3,156.8,134.4,156.8
		C134.3,156.8,134.4,156.8,134.4,156.8z"/>
	<path class="st12" d="M119.8,94.4c3,3,4.9,6.6,6.5,10.4c2.4,6,3.6,12.2,4.1,18.6c0.6,7.7,0.1,15.4-1.8,22.9c0,0.2,0,0.4,0,0.6
		c0,0,0,0,0,0c-0.1,0.1-0.2,0.1-0.3,0.2c-0.8,1.2-1.6,2.3-2.5,3.5c-1.5,2-3,4-4.6,6c0.4-1.5,1-3,1.3-4.5c0.9-4.2,1.9-8.5,2.4-12.8
		c0.5-4.6,0.8-9.3,0.7-14c-0.1-4.5-0.7-9-1.2-13.4c-0.6-5.2-1.8-10.2-3.8-15C120.5,96.1,120.1,95.2,119.8,94.4z"/>
	<path class="st12" d="M165.9,178.1c-2.3,2.5-4.4,5-6.8,7.4c-3.5,3.3-7.5,5.9-11.8,8.1c-0.3,0.2-0.7,0.3-1.1,0.4
		c-1.3-1.1-2.5-2.1-3.8-3.2c0.7-0.5,1.3-1,2-1.5c0.1,0,0.2,0,0,0c0.1-0.1,0.1,0,0,0c-2,0.1-3.5,1.3-5,2.4c-3.3,2.4-6.5,5-9.9,7.4
		c-6.5,4.6-13.6,7.3-21.7,5.9c1-1.3,2-2.7,3-4c2-0.6,4-0.9,5.8-1.8c2.7-1.3,5.2-3.1,7.9-4.6c-0.8,0.8-1.4,1.7-2.3,2.4
		c-2.5,1.9-5.2,3.4-8.2,4.4c-0.7,0.2-1.3,0.7-1.9,1.2c-0.7,0.6-0.5,1.4,0.4,1.5c1.3,0.1,2.7,0.2,3.9-0.1c4.1-0.8,7.5-3,10.6-5.7
		c3.9-3.3,7.6-6.9,11.6-10.1c3-2.5,6.5-4.1,10.6-3.9c0.2,0,0.3,0.1,0.5,0.1c-0.1,0.6-0.3,1.2-0.4,1.8c-0.1,1,0.5,1.6,1.5,1.6
		c2,0.1,3.7-0.8,5.4-1.8c3.1-1.9,5.7-4.4,8.2-7C165,178.5,165.5,178.3,165.9,178.1z"/>
	<path class="st12" d="M72,156.4c-1.1-0.2-2.2-0.3-3.2-0.5c-0.3-0.1-0.7-0.6-0.8-0.9c-2.6-8-3.7-16.2-3.2-24.6
		c0.5-8.8,2.7-17.2,6.9-24.9c0.2-0.4,0.5-0.8,0.8-1.1c0,0.3,0.1,0.7-0.1,1c-2.5,5.4-3.9,11.2-4.9,17.1c-0.2,1.5,0,3.2,0,4.7
		c0.2,0,0.3,0.1,0.5,0.1c0.3-0.3,0.6-0.6,0.8-0.9c0.2-0.2,0.2-0.6,0.3-0.8c0.6-1.3,1.5-2.5,3-2.5c1.4,0,2.5,0.7,3.3,2
		c2.1,3.1,2.7,6.7,3.4,10.2c0.1,0.6,0,1.3,0,2c-0.4-1.5-0.8-3-1.2-4.4c-0.1-0.4-0.4-0.8-0.5-1.2c-0.6-1.3-1.2-2.6-1.8-3.8
		c-0.6-1.1-1.6-1.5-2.9-1.2c-0.1,0.1-0.2,0.2-0.3,0.3l0,0c-0.1,0.1-0.2,0.2-0.3,0.3l0.1,0c-0.4,0.2-1,0.2-1.2,0.5
		c-0.5,0.6-0.9,1.4-1.1,2.1c-2,5.9-1.5,11.9-0.3,17.9C69.8,150.5,71.1,153.4,72,156.4z"/>
	<path class="st12" d="M58.3,194.3c-2.2-2.4-4.7-4.6-6.7-7.1c-2.4-3-4-6.5-4.8-10.3c-0.1-0.4-0.1-0.7-0.1-1.1c3,1.7,6.1,3.1,9.5,3.7
		c3.5,0.6,6.8,0.2,9.5-2.5c-0.6,2.7-2.2,4.6-4.5,6c-0.3,0.2-0.6,0.4-1.1,0.6c1,1.3,2,2.5,2.9,3.6c-0.4,1.1-0.9,2.2-1.3,3.2
		c0,0,0,0,0,0c-0.1,0.2-0.2,0.3-0.3,0.5l0,0c-0.1,0.3-0.2,0.5-0.3,0.8c0,0,0,0,0,0c-0.1,0.3-0.2,0.5-0.3,0.8c-0.1,0.3-0.2,0.6-0.2,1
		C59.9,193.8,59.1,194.1,58.3,194.3z"/>
	<path class="st10" d="M110.9,200.9c-1,1.3-2,2.7-3,4c-0.3,0.3-0.7,0.7-1,1c-0.5,0.3-1.1,0.6-1.6,1c-3.6,2.1-7.5,2.9-11.6,2.1
		c-3-0.6-5.7-2-8.2-3.8c-0.5-0.3-1.2-0.4-1.7-0.6c-0.1,0.1-0.1,0.3-0.2,0.4c0.4,0.2,0.8,0.4,1.2,0.6c2.3,1.3,4.8,2.5,7,4
		c1.3,0.9,2.5,1,3.9,0.8c2.5-0.5,4.9-1.1,7.4-1.5c1.5-0.2,3-0.5,4.3,0.6c-1.7-0.5-3.3,0-4.9,0.6c-2.3,0.8-4.5,1.1-6.9,1
		c-0.6,0-1.3-0.1-2-0.2c4.2,4.3,5.4,8.2,4.2,14c-0.7,1.5-1.4,3-2.1,4.6c-1,0.9-2,1.9-3,2.8c0.2-0.4,0.5-0.7,0.7-1.1
		c0.5-0.8,0.9-1.6,1.4-2.4c0.6-1.3,1.4-2.6,1.7-4c1.3-5.7-0.6-10.3-5.2-13.7c-2.4-1.8-5.2-3.2-7.9-4.6c-2.5-1.4-5-2.6-7.5-3.8
		c0.3,0,0.7-0.1,1,0c1.4,0.5,2.7,1.1,4,1.6c0.9,0.4,1.8,0.5,2.9-0.5c-0.4-0.3-0.9-0.5-1.2-0.9c-0.7-0.8-1.3-1.7-1.9-2.6l0,0
		c0.8,0.6,1.6,1.2,2.4,1.8c4.6,3.6,9.4,6.8,15.7,5.8c1.9-0.3,3.7-1,5.6-1.5c3.8-1.7,6.2-4.7,7.3-8.7c0.1-0.2,0.1-0.4,0.2-0.6
		c0,0.5-0.1,0.9-0.1,1.4c-0.1,0.4-0.2,0.7-0.4,1.1C111.2,200,111,200.4,110.9,200.9z"/>
	<path class="st7" d="M110.9,200.9c0.1-0.5,0.3-0.9,0.4-1.4c5.2-1.1,9.7-3.7,13.5-7.4c8.3-7.9,13.1-17.8,14.9-29.1
		c0.4-2.7,0.5-5.5,0.7-8.6c-2.2,0.8-3.9,1.5-5.7,2.2c1.3-3.3,15.9-7.4,20.4-3.4c-1.8-0.1-3.9-0.5-5.9-0.4c-2.5,0.2-5,0.7-7.5,1.2
		c-0.3,0.1-0.8,0.5-0.8,0.8c-0.1,2.4-0.1,4.9-0.2,7.3c-1.7,12.6-6.6,23.6-16.2,32.2c-2.6,1.6-5.1,3.3-7.9,4.6
		C114.9,200,112.8,200.3,110.9,200.9z"/>
	<path class="st12" d="M87.2,115.9c-1.4-0.1-2.2,0.8-2.8,1.8c-1.6,2.4-2.2,5.1-2.5,7.9c-0.3,3.2-0.5,6.4-0.5,9.6
		c0,2.5,0.3,5,0.5,7.6c-0.3-1.8-0.9-3.6-1-5.4c-0.2-3.6-0.4-7.2-0.2-10.8c0.2-3.6,0.6-7.2,2.2-10.6c0.2-0.5,0.5-1.1,0.9-1.5
		c1.9-2.6,4.6-2.8,6.9-0.5c2.8,2.8,4.1,6.4,5.1,10.2c0.8,2.9,1.2,5.9,1.7,8.9c0.1,0.3-0.2,0.7-0.3,1c-0.1-0.2-0.1-0.5-0.2-0.7
		c-0.8-3-1.5-6-2.3-9c-0.5-2.2-1.3-4.3-2.9-5.9c-0.3-0.3-0.7-0.4-1.1-0.6c-0.2-0.3-0.4-0.5-0.5-0.8
		C89.5,115.8,88.7,115.6,87.2,115.9z"/>
	<path class="st10" d="M61.7,190.5c0.4-1.1,0.9-2.2,1.3-3.2c1.4-1.5,2.7-3.1,4.2-4.3c3.9-3.2,8.4-3.9,13.2-3.2
		c5.8,0.8,11.1,2.9,16.1,6c0.4,0.3,0.8,0.6,1.2,0.9c-0.4-0.1-0.8-0.2-1.3-0.2c-3.5-1.4-6.9-3-10.5-4.3c-2.2-0.8-4.6-1.2-6.9-1.5
		c-3-0.4-6,0.3-8.7,1.7c-2.5,0.9-4.4,2.6-6,4.6C63.3,188,62.6,189.3,61.7,190.5z"/>
	<path class="st7" d="M94.6,124.3c0.8,3,1.5,6,2.3,9c0.1,0.2,0.1,0.5,0.2,0.7c0.7,5.6,0.9,11.3,0,16.9c-0.4,2.6-1,5.1-2.5,7.2
		c-0.3,0.4-0.9,0.7-1.3,1.1c2.6-3.5,3-7.7,3.3-11.9c0.4-6.4-0.3-12.8-1.7-19c0-0.2-0.1-0.3-0.2-0.5
		C94.6,126.6,94.6,125.5,94.6,124.3z"/>
	<path class="st10" d="M110.3,191.3c-2.3-1.4-4.9-1.6-7.5-1.6c-2.8,0.1-5.6,0.1-8.4,0c-0.9,0-1.8-0.2-2.7-0.4c1.5-0.1,3-0.3,4.5-0.4
		c1.3-0.1,2.5-0.3,3.8-0.4c2.3,0.2,4.7,0.2,6.9,0.6C108.2,189.3,109.7,189.7,110.3,191.3z"/>
	<path class="st9" d="M100,188.4c-1.3,0.1-2.5,0.3-3.8,0.4c0.5-0.8,0.7-1.6,0.3-2.5c0.4,0.1,0.8,0.2,1.3,0.2c0,0,0,0,0,0
		c0.1,0.1,0.3,0.2,0.4,0.3C98.7,187.4,99.3,187.9,100,188.4z"/>
	<path class="st12" d="M166.9,176.8c-0.3,0.3-0.5,0.7-0.8,1C166.1,177.2,166.2,176.7,166.9,176.8z"/>
	<path class="st12" d="M167.9,175.5c-0.2,0.2-0.4,0.5-0.6,0.7C167.6,176,167.7,175.8,167.9,175.5z"/>
	<path class="st12" d="M79,138.3c0-0.2-0.1-0.4-0.1-0.5C78.9,138,79,138.2,79,138.3z"/>
	<path class="st10" d="M98.1,186.9c-0.1-0.1-0.3-0.2-0.4-0.3C97.8,186.8,97.9,186.8,98.1,186.9z"/>
	<path class="st10" d="M111,192.2c-0.1-0.1-0.1-0.1-0.2-0.2C110.9,192.1,110.9,192.2,111,192.2z"/>
	<path class="st7" d="M83.4,161.5c0.1,0,0.1,0.1,0.2,0.1C83.5,161.6,83.4,161.6,83.4,161.5C83.3,161.5,83.4,161.5,83.4,161.5z"/>
	<path class="st7" d="M93,159.7c0.1-0.1,0.1-0.2,0.2-0.3C93.1,159.5,93,159.6,93,159.7z"/>
	<path class="st6" d="M128.4,147.2c0.1-0.1,0.2-0.1,0.3-0.2C128.6,147,128.5,147.1,128.4,147.2z"/>
	<path class="st10" d="M110.8,191.9c-0.1-0.1-0.2-0.2-0.3-0.4C110.6,191.6,110.7,191.8,110.8,191.9z"/>
	<path class="st10" d="M110.5,191.5c-0.1-0.1-0.2-0.2-0.3-0.3C110.3,191.3,110.4,191.4,110.5,191.5z"/>
	<path class="st8" d="M167.9,115.9c-1.9-2.2-3.8-4.5-5.7-6.7c-4.8-5.4-10-10.2-16.3-13.7c-1.7-1-3.5-1.9-5.3-2.7
		c-1.8-0.8-2.2-2.5-2.5-4.1c-0.2-1,0.7-1.6,1.9-1.2c1.5,0.5,3.2,1,4.5,1.9c3.1,2.2,6.1,4.5,9,6.9c4.8,4.1,8.7,9.1,12,14.4
		C166.3,112.4,167,114.2,167.9,115.9L167.9,115.9z"/>
	<path class="st11" d="M166.8,105.1c0.1,0.1,0.2,0.2,0.2,0.3C167,105.3,166.9,105.2,166.8,105.1z"/>
	<path class="st8" d="M167.9,115.9c0,0,0.1,0.1,0.1,0.1C167.9,116,167.9,116,167.9,115.9C167.9,116,167.9,116,167.9,115.9
		L167.9,115.9z"/>
	<path class="st13" d="M198.1,364.8c-1.8-0.3-3.6-0.5-5.3-1c-3.3-1-4.4-4.2-2.6-7.2c1.8-3.1,4.7-5,7.7-6.8
		c5.4-3.1,11.1-5.1,17.3-5.8c2.7-0.3,5.5-0.4,8.2,0.5c4.6,1.6,5.6,5.7,2.3,9.4c-2.1,2.4-4.8,4-7.6,5.4c-5.4,2.7-11.1,4.4-17.1,5.2
		c-1,0.1-1.9,0.1-2.9,0.1C198.2,364.7,198.1,364.7,198.1,364.8z"/>
	<path class="st3" d="M123.4,327.1c1,2.7,1.9,5.4,2.9,8.1c0.2,0.4,0.4,0.9,0.8,1.1c6.1,3.3,12.5,4.9,19.3,2.6
		c2.6-0.9,4.7-2.4,6.2-4.7c0,0,0,0,0,0c0.1-0.2,0.2-0.3,0.3-0.5c0,0,0,0,0,0c0.1-0.1,0.2-0.2,0.3-0.3c0.4-0.7,0.8-1.4,1.2-2
		c1,3.7-1.5,8-5.5,9.6c-2.8,1.1-5.7,1.8-8.7,1.8c-2.2,0-3.2,2.2-2.1,4.2c1.4,2.4,3.8,3.2,6.3,3.6c3.4,0.6,6.8,0.3,10.2-0.4
		c0.3-0.1,0.5,0,0.9,0.2c-1.6,0.3-3.2,0.8-4.9,0.9c-3.2,0.3-6.5,0.4-9.7,0.5c-0.4,0-0.9-0.2-1.3-0.2c-0.4-0.1-0.9-0.2-1.3-0.3
		c0,0-0.1,0-0.1,0c-0.1-0.1-0.3-0.2-0.4-0.2c-4.9-0.9-9.3-2.7-13.1-6c-3.6-3.1-6-6.8-4.9-11.9C120.1,330.7,121.1,328.5,123.4,327.1z
		"/>
	<path class="st7" d="M123.4,327.1c-2.3,1.4-3.3,3.7-3.8,6.1c-1.1,5.1,1.3,8.8,4.9,11.9c3.8,3.3,8.2,5.1,13.1,6
		c0.2,0,0.3,0.2,0.4,0.2c-3,0-5.9-0.9-8.7-2c-0.5-0.2-1.1-0.4-1.6-0.6c-2.2-1.6-4.3-3.2-6.5-4.9c-0.7-0.5-1.1-1.7-1.8-1.8
		c-0.7-0.1-1.5,0.8-2.3,1.1c-2.5,0.9-5,1.7-7.5,2.5c-2.2,0.1-4.3,0.2-6.5,0.3c-3.5,0.2-6.9-0.7-10.3-1.6c0.4,0,0.8-0.2,1.1-0.1
		c2.6,0.2,5.3,0.4,7.9,0.6c3.3-0.4,6.7-0.6,10-1.3c2.2-0.5,4.3-1.7,6.4-2.6c0.3-0.1,0.5-0.8,0.4-1.1c-1.1-2.9-0.9-5.7,0-8.6
		c0.2-0.4,0.4-0.8,0.7-1.2c0.7-1,0.6-1.7-0.4-2.5c-1.8-1.4-3.4-3-5.3-4.2c-1.7-1.1-3.7-1.8-5.6-2.7c-0.1-0.4-0.3-0.8-0.4-1.1
		c5.1,1.5,9.6,4,13.1,8c0.8-0.6,1.5-1.2,2.2-1.7C123.1,326.3,123.2,326.7,123.4,327.1z"/>
	<path class="st13" d="M162.6,336.7c0,3.5-1.9,6-4.7,7.6c-2,1.1-4.3,1.8-6.5,2.5c-0.5,0.2-1.2-0.3-1.8-0.5c0.3-0.5,0.5-1.2,1-1.5
		c0.8-0.6,1.8-0.9,2.7-1.4c1.4-0.9,2.8-1.8,3.9-2.9c2.1-2.2,2.4-4.9,1.5-7.8c-0.1-0.3-0.3-0.6-0.3-0.8c0-0.6,0-1.3,0-1.9
		c0.6,0.3,1.5,0.4,1.9,0.9C161.8,332.5,162.7,334.4,162.6,336.7z"/>
	<path class="st7" d="M146.2,360.9c1.4-1.2,2.7-2.7,4.2-3.6c7.3-4.6,15.1-8.1,23.1-11.1c5.3-2,10.7-3.7,16.2-4.7
		c1.7-0.3,3.4-0.5,5.1-0.4c-1.8,0.5-3.6,0.8-5.3,1.4c-7.8,2.7-15.6,5.4-23.4,8.4c-6.4,2.5-12.6,5.5-18.4,9.2
		C147.2,360.4,146.7,360.7,146.2,360.9C146.3,361,146.2,360.9,146.2,360.9z"/>
	<path class="st7" d="M160.9,347.8c-0.3,0.2-0.5,0.5-0.8,0.7c-0.1-0.1-0.1-0.2-0.2-0.3c0.3-0.2,0.6-0.3,0.9-0.5
		C160.8,347.7,160.8,347.8,160.9,347.8z"/>
	<path class="st7" d="M138.1,351.3c0.4,0.1,0.9,0.2,1.3,0.3C139,351.5,138.6,351.4,138.1,351.3z"/>
	<path class="st7" d="M145.7,361.2c0.2-0.1,0.3-0.2,0.5-0.3c0,0,0.1,0.1,0.1,0.1C146.1,361.1,145.9,361.2,145.7,361.2
		C145.7,361.3,145.7,361.2,145.7,361.2z"/>
	<path class="st7" d="M145.5,361.5c0.1-0.1,0.2-0.2,0.2-0.3c0,0,0,0,0,0C145.6,361.3,145.6,361.4,145.5,361.5L145.5,361.5z"/>
	<path class="st7" d="M145.5,361.5c0,0-0.1,0.1-0.1,0.1C145.4,361.6,145.4,361.6,145.5,361.5C145.4,361.5,145.5,361.5,145.5,361.5
		C145.5,361.5,145.5,361.5,145.5,361.5z"/>
	<path class="st13" d="M34.4,317.9c2,0.1,4.7,1.3,7.4,2.8c6.4,3.5,12,8,16.1,14.2c0.7,1.1,1.3,2.4,1.7,3.7c1.2,3.8-1.3,7.2-5.3,7.4
		c-2.9,0.1-5.5-0.9-8-2.3c-6.6-3.9-12.1-9.1-15.8-15.9c-0.8-1.5-1.3-3.1-1.7-4.8C28.3,319.9,30.2,317.9,34.4,317.9z"/>
	<path class="st3" d="M101.7,344.9c-2.6-0.2-5.3-0.4-7.9-0.6c-0.4,0-0.8,0.1-1.1,0.1c-4.4-1.8-8.6-4-12.1-7.5
		c-0.3-0.3-0.5-0.7-0.8-1.1c-0.1-0.1-0.2-0.2-0.3-0.3c0,0,0,0,0,0c-0.1-0.1-0.2-0.2-0.3-0.3c0,0,0,0,0,0c-0.2-0.3-0.3-0.7-0.5-1
		c0,0,0,0,0,0c-0.7-2.2-1.7-4.4-2.1-6.7c-0.5-2.9-0.3-5.9,1.6-8.5c0.3-0.4,0.8-0.6,1.3-0.9c1.6,3.9,3.2,7.7,4.9,11.5
		c0.2,0.5,0.5,1,1,1.3c6.4,3.9,13.3,4.9,20.5,2.6c1.5-0.5,2.8-1.8,4.1-2.7c-0.1,0.4,0,0.8-0.2,1.1c-1.2,2.1-3.3,3.1-5.5,3.7
		c-2.9,0.8-5.8,0.9-8.8,0.6c-1.8-0.2-3.1,0.6-3.5,1.8c-0.4,1.1,0.4,2.9,1.9,3.7c1.8,0.9,3.7,1.6,5.6,2.4
		C100.2,344.5,101,344.7,101.7,344.9z"/>
	<path class="st7" d="M59.5,322.6c6.3,1.2,27.1,21.5,29,28c-4.4-4.8-9-9.7-13.6-14.6C70.2,331.2,65.3,326.6,59.5,322.6z"/>
	<path class="st7" d="M78.8,334.3c0.2,0.3,0.3,0.7,0.5,1C79.2,335,79,334.6,78.8,334.3z"/>
	<path class="st7" d="M79.3,335.3c0.1,0.1,0.2,0.2,0.3,0.3C79.5,335.5,79.4,335.4,79.3,335.3z"/>
	<path class="st7" d="M79.6,335.5c0.1,0.1,0.2,0.2,0.3,0.3C79.7,335.8,79.7,335.6,79.6,335.5z"/>
	<path class="st7" d="M137.6,298.7c-0.4-0.3-0.9-0.5-1-0.9c-1.3-2.8-2.7-5.6-3.8-8.5c-2.3-6.2-4.1-12.6-5.4-19.1
		c-0.3-1.4-0.5-2.7-0.6-4.1c-0.1-0.5,0-1,0.2-1.6c2.5,9,5.8,17.7,9.1,26.4c0.6,1.5,1.3,3,1.7,4.6c0.3,0.9,0.2,2,0.4,3
		C137.8,298.6,137.7,298.7,137.6,298.7z"/>
	<path class="st6" d="M107.3,209.6c-1.3-1.1-2.8-0.8-4.3-0.6c-2.5,0.4-4.9,1-7.4,1.5c-1.4,0.3-2.6,0.1-3.9-0.8c-2.2-1.5-4.6-2.7-7-4
		c-0.4-0.2-0.8-0.4-1.2-0.6c0.1-0.1,0.1-0.3,0.2-0.4c0.6,0.2,1.3,0.2,1.7,0.6c2.5,1.8,5.2,3.2,8.2,3.8c4.1,0.8,8,0,11.6-2.1
		c0.5-0.3,1.1-0.6,1.6-1c3.8,1.1,7.6,1,11.4,0.1c5.6-1.4,10.3-4.4,14.7-7.9c2.8-2.2,5.6-4.5,8.4-6.7c-0.1,0.4-0.1,0.8-0.3,1.1
		c-4.3,6.1-9.3,11.4-15.9,15c-1.1,0.6-2.3,1.1-3.4,1.6c1.8,1.7,2.1,2.7,0.9,5.2c-1.1,2.3-2.3,4.6-3.5,6.9c-1.4,2.6-2.6,5.2-3,8.1
		c-0.1,0.6,0.1,1.3,0.2,2c-0.7-0.1-1.4-0.4-2.1-0.3c-1,0.1-2.1-0.2-2.8,0.9c-0.5,0-1,0-1.5,0c1.2-2.3,2.3-4.6,3.5-6.9
		c0.2-0.3,0.1-1-0.1-1.2c-1.2-1.2-2.5-2.3-3.8-3.5c0.1-0.5,0.2-1,0.3-1.5c0.4-2.3,0.5-4.6-0.5-6.8
		C108.6,211.2,108,210.4,107.3,209.6z M119,214.6c-2.5,1.7-5.1,6.5-4.5,8.7c1.6-2.9,3.1-5.7,4.7-8.5c0-0.1,0-0.2,0-0.3
		C119.1,214.5,119,214.5,119,214.6z"/>
	<path class="st8" d="M144.4,195.5c1.2,0.9,1.1,2.2,1.3,3.3c0.7,4.5-0.2,8.9-1.3,13.3c-2.7,11.2-6.8,21.8-13,31.4
		c-1.4,2.1-2.7,4.5-5.2,5.6c-1.4,0.6-2.9,1.2-4.4,1.3c-5.2,0.4-10.3-0.2-15-2.6c-0.3-0.1-0.6-0.2-0.8-0.4c-0.2-0.2-0.2-0.5-0.3-0.8
		c0.2,0,0.5-0.2,0.7-0.1c2.9,0.5,5.7,1.3,8.6,1.5c3.5,0.2,7.1,0.1,10-2c1.7-1.2,3.1-3.1,4.2-4.9c5.4-8.4,9.4-17.5,12.4-27.1
		c1.6-5.2,2.8-10.5,2.5-16.1c0-0.7-0.1-1.3-0.2-2C144,195.9,144.2,195.8,144.4,195.5z"/>
	<path class="st4" d="M109.5,220.3c1.3,1.2,2.6,2.3,3.8,3.5c0.2,0.2,0.3,0.9,0.1,1.2c-1.1,2.3-2.3,4.6-3.5,6.9
		c-1.2-0.1-2.3-0.2-3.5-0.2c0-0.1,0-0.3,0-0.4c-0.1-0.1-0.1-0.2-0.2-0.3c0,0,0,0,0,0c-0.6-1.3-1.2-2.5-1.8-3.9
		C106.8,225.5,108.4,223.1,109.5,220.3z M112.3,225.2c-0.3-1.5-1.4-2.6-2.7-2.8C109.8,223.8,110.9,224.9,112.3,225.2z"/>
	<path class="st7" d="M141.4,191.4c-2.8,2.2-5.5,4.5-8.4,6.7c-4.5,3.5-9.2,6.5-14.7,7.9c-3.8,0.9-7.6,1-11.4-0.1
		c0.3-0.3,0.7-0.7,1-1c8.1,1.4,15.2-1.3,21.7-5.9c3.4-2.4,6.6-5,9.9-7.4c1.5-1.1,3-2.3,5-2.4l0,0c-0.7,0.5-1.3,1-2,1.5
		c-0.1,0.1-0.2,0.1-0.3,0.2c-0.2,0.1-0.3,0.3-0.5,0.4c0,0,0,0,0,0C141.6,191.3,141.5,191.4,141.4,191.4L141.4,191.4z"/>
	<path class="st9" d="M106.4,231.2c0,0.1,0,0.3,0,0.4c-0.2,0-0.3,0-0.5,0c-0.2,0-0.5,0-0.7,0c-1.1,0-2.2,0.1-3.3,0.1
		c-1.1,0.1-2.2,0.3-3.3,0.4c0.5-1,1.3-2,0.2-3.1c1.1-0.4,2.3-0.7,3.4-1.2c0.8-0.4,1.3-0.1,1.8,0.5c0.7,0.9,1.5,1.7,2.2,2.5
		c0,0,0,0,0,0C106.3,231,106.4,231.1,106.4,231.2z"/>
	<path class="st8" d="M111.5,232c0.7-1.1,1.8-0.8,2.8-0.9c0.7,0,1.4,0.2,2.1,0.3C114.7,231.6,113.1,231.8,111.5,232z"/>
	<path class="st10" d="M105.3,231.7c0.2,0,0.5,0,0.7,0C105.7,231.7,105.5,231.7,105.3,231.7z"/>
	<path class="st6" d="M141.7,191.2c0.2-0.1,0.3-0.3,0.5-0.4C142,191,141.8,191.1,141.7,191.2z"/>
	<path class="st6" d="M141.4,191.5c0.1-0.1,0.2-0.2,0.3-0.2C141.6,191.3,141.5,191.4,141.4,191.5z"/>
	<path class="st1" d="M107.6,319.6c0.1,0.4,0.3,0.8,0.4,1.1c0.9,2.6,1.8,5.1,2.7,7.7c-0.1,0.3-0.1,0.6-0.2,0.9
		c-1.8,1.2-3.6,2.4-5.9,2.7c-4.9,0.6-9.3-0.5-12.5-4.4c-1.5-1.8-2.4-4.2-3.5-6.5c-1.3-2.9-2.6-5.9-3.6-8.9c-0.7-2-1.2-4-1.5-6.1
		c-0.3-1.8,1.5-3.7,3.4-3.5c1.8,0.2,3.7,0.7,5.4,1.4c2.9,1.1,5.7,2.2,8.9,1.8c0.2,0.2,0.4,0.3,0.7,0.5
		C103.8,310.9,105.7,315.3,107.6,319.6z M108.3,329.4c-0.1-0.7-0.1-1.3-0.3-1.8c-0.7-1.9-1.5-3.9-2.3-5.8c-1.5-3.5-2.9-6.9-4.4-10.4
		c-0.3-0.6-0.7-1-1.3-1.8C99.1,313.1,105.5,328,108.3,329.4z"/>
	<path class="st4" d="M83,298.1c-7.1-0.8-13.8-2.8-18.9-8.2c-2-2.1-3-4.8-3.4-7.7c-0.3-2.6-0.2-5.1,0.3-7.7c0.3-1.4,1.1-1.7,2.3-0.9
		c2.7,1.9,5.3,3.9,8.2,5.6c2.6,1.5,5.3,2.9,8.1,4c3.8,1.5,5.8,4.5,6.5,8.3c0.3,1.6,0.1,3.3,0.1,5c0,1.2-0.7,1.8-2,1.6
		C83.8,298.1,83.4,298.1,83,298.1z"/>
	<path class="st11" d="M107.6,319.6c-1.9-4.4-3.7-8.8-5.6-13.1c5,1.9,10.1,2.9,15.4,3.1c1.9,5.4,3.7,10.9,5.6,16.3
		c-0.7,0.6-1.5,1.1-2.2,1.7C117.2,323.6,112.6,321.2,107.6,319.6z"/>
	<path class="st11" d="M98.4,257c2.3,0.6,4.5,1.2,6.8,1.7c-1,3.8-3.2,6.6-7.2,7.7c-4.4-0.7-6.7-3.7-7.9-7.7c2.5,0.1,4.9-0.2,7.3-1
		C97.8,257.4,98.1,257.2,98.4,257z"/>
	<path class="st10" d="M97.4,257.7c-2.3,0.9-4.8,1.2-7.3,1c-0.8-0.2-1.6-0.3-2.4-0.5c-0.6-0.2-1.1-0.4-1.7-0.6
		c-2.5-1.3-4.5-3.1-6.2-5.3c-0.4-0.7-0.7-1.5-1.1-2.1c-0.2-0.3-0.7-0.6-1-0.5c-1.1,0.1-2.2,0.4-3.3,0.6c-2.8,0.3-5.6,0.2-8.1-1.3
		c-0.6-0.4-1-1.1-1.6-1.6c0.8,0.3,1.6,0.7,2.4,1c4.4,1.4,8.7,1,13-0.4c2.1-0.7,4.3-1.5,5.7-3.4c3.5-2.2,4.9-7.9,2.9-11.9
		c-1.9-3.8-4.9-6.6-8.1-9.2c-3.1-2.4-6.4-4.4-10.2-5.6c7.2,1.1,12.6,5.4,17.2,10.9c0.9,1.6,1.8,3.3,2.8,4.9c1,3.6,0.4,7-1.8,10
		c-1.4,1.9-3.4,3.2-5.6,4.2c-1.1,0.5-2.3,1-3.7,1.6c1.2,1.5,2.3,2.9,3.4,4.2c0.1,0.1,0.1,0.3,0.2,0.3c3.3,3.1,7.2,4.3,11.6,3.9
		C95.4,257.7,96.4,257.7,97.4,257.7z"/>
	<path class="st9" d="M87.8,258.2c0.8,0.2,1.6,0.3,2.4,0.5c1.3,4,3.5,6.9,7.9,7.7c-2.1,0.6-3.9,0.2-5.7-1
		C90,263.6,88.6,261.1,87.8,258.2z"/>
	<path class="st11" d="M65.5,259.7c2.1,0.3,4.2,0.5,6.3,0.8c-0.5,0.7-1.1,1.5-1.6,2.2c-0.1,0-0.1,0-0.1,0.1
		c-0.2,0.1-0.4,0.1-0.5,0.2c-0.2-0.1-0.4-0.2-0.7-0.3C67.4,262.1,65.9,261.5,65.5,259.7z"/>
	<path class="st9" d="M65.5,259.7c0.4,1.8,1.9,2.4,3.4,3c0.2,0.1,0.4,0.2,0.7,0.3c-2.5,0.9-4.9-0.6-6.1-3.5
		C64.1,259.6,64.8,259.6,65.5,259.7z"/>
	<path class="st9" d="M70.1,262.8c0-0.1,0.1-0.1,0.1-0.1C70.2,262.7,70.1,262.8,70.1,262.8L70.1,262.8z"/>
	<path class="st11" d="M178.7,133.5c-0.1,0-0.1,0-0.2,0c0-0.1,0-0.1,0-0.2C178.6,133.4,178.6,133.4,178.7,133.5
		C178.7,133.5,178.7,133.5,178.7,133.5z"/>
	<path class="st6" d="M61.8,162.1c2.1,3.3,3.5,6.8,2.6,10.8c-0.5,2.2-3,3.9-5.6,4.1c-6.7,0.3-11.6-2.9-15.7-7.7
		c-2.3-2.6-3.8-5.7-4.6-9c-0.2-0.8-0.3-1.7-0.2-2.7c0.4,0.5,0.7,1,1.2,1.4c3.7,3.5,7.4,7,12.3,8.7c2.1,0.7,4.2,1.2,6.3,0.2
		c1.9-0.9,2.7-2.5,3.1-4.5c0.1-0.4,0.2-0.8,0.2-1.2C61.6,162.1,61.7,162.1,61.8,162.1z"/>
	<path class="st9" d="M52.2,155.9c-2.6,0-5.7-2.5-6.3-5.1c-0.4-1.7,0.6-3.1,2.4-3.5c2.8-0.7,6.9,2.3,7.1,5.2
		C55.7,154.6,54.4,155.9,52.2,155.9z"/>
	<path class="st8" d="M150.6,330.2c-0.2,0.3-0.3,0.9-0.5,0.9c-0.4,0-0.8-0.2-1.1-0.5c-0.8-1-1.6-2-2.2-3.1
		c-2.7-4.9-5.1-9.9-6.3-15.4c-0.2-0.8-0.5-1.9,0.5-2.3c0.3-0.1,1.2,0.8,1.5,1.5c2.6,5.7,5.1,11.5,7.5,17.3
		C150.4,329,150.5,329.6,150.6,330.2z"/>
	<path class="st6" d="M152.9,333.6c-0.1,0.2-0.2,0.3-0.3,0.5C152.7,333.9,152.8,333.8,152.9,333.6z"/>
	<path class="st6" d="M153.1,333.3c-0.1,0.1-0.2,0.2-0.3,0.3C152.9,333.5,153,333.4,153.1,333.3z"/>
	<path class="st2" d="M110.6,329.4c0.1-0.3,0.1-0.6,0.2-0.9c0.3-1.9,1.2-2.7,2.7-2.6c2.7,0.2,5,2.7,5.1,5.4c-0.9,2.9-1.1,5.7,0,8.6
		c0.1,0.3-0.2,1-0.4,1.1c-2.1,1-4.1,2.1-6.4,2.6c-3.3,0.7-6.7,0.9-10,1.3c-0.7-0.2-1.5-0.4-2.2-0.7c-1.9-0.7-3.8-1.4-5.6-2.4
		c-1.5-0.8-2.2-2.6-1.9-3.7c0.4-1.2,1.7-2,3.5-1.8c3,0.4,5.9,0.2,8.8-0.6c2.2-0.6,4.2-1.6,5.5-3.7c0.2-0.3,0.1-0.7,0.2-1.1
		c0.1-0.2,0.2-0.3,0.3-0.5c0.1-0.1,0.1-0.2,0.2-0.4C110.5,329.9,110.5,329.7,110.6,329.4z M103.8,340.3c1.8-0.4,4-0.7,6-1.3
		c2.6-0.8,4.9-2.1,6.5-4.5c0.8-1.2,1.1-2.5,0.5-3.8c-0.2-0.4-0.8-0.6-1.3-0.9c-0.3,0.4-0.7,0.7-0.7,1.1c-0.2,1.8-1.1,3.1-2.5,4.1
		c-1.1,0.8-2.3,1.6-3.6,1.9c-2.4,0.7-5,1-7.5,1.5c-0.4,0.1-0.8,0.4-1.1,0.5c0.3,0.3,0.6,0.7,1,0.8
		C101.7,340,102.6,340.1,103.8,340.3z"/>
	<path class="st3" d="M110.5,330.1c-0.1,0.1-0.1,0.2-0.2,0.4C110.4,330.3,110.4,330.2,110.5,330.1z"/>
	<path class="st11" d="M64.7,247.2c0.5,0.5,0.9,1.3,1.6,1.6c2.5,1.5,5.3,1.6,8.1,1.3c1.1-0.1,2.2-0.4,3.3-0.6c0.3,0,0.8,0.3,1,0.5
		c0.4,0.7,0.7,1.4,1.1,2.1c-0.1,2.5-1,3.7-3.6,4c-2.3,0.3-4.7,0.3-7.1,0.1c-2.7-0.2-5.5-0.5-8.2-1c-4.6-1-9.3-2-13.9-3.3
		c-2.9-0.8-5.7-1.9-8.5-2.9c-0.6-0.2-1.3-0.4-1.9-0.4c-1.9-0.1-2.9,1.2-2.3,3.2c0.4,1.2,1.1,2.2,1.9,3.2c0.5,0.6,0.6,1,0,1.6
		c-2,2-4.1,3.7-6.7,4.8c-3.4,1.3-6.1,0.6-7.1-2.3c-0.5-1.4-0.5-3.1-0.3-4.6c0.6-4.4,2.7-8.3,4.9-12.1c0.2-0.4,0.4-0.8,0.5-1.3
		c1.4,0.3,2.8,0.6,4.3,1c2.4,2.1,5,3.8,8.1,4.6c3.3,0.8,6.5,0.8,9.7-0.5c0.9-0.4,2.1-0.1,3.2,0c3.4,0.4,6.7-0.1,9.9-1.1
		c0.3,0.4,0.6,0.7,0.9,1.1c0.1,0.1,0.2,0.2,0.3,0.3l0,0c0.1,0.2,0.2,0.3,0.3,0.5l0,0C64.4,247.1,64.6,247.2,64.7,247.2
		C64.7,247.2,64.7,247.2,64.7,247.2z"/>
	<path class="st11" d="M82.6,253.6c-1.1-1.4-2.2-2.7-3.4-4.2c1.5-0.6,2.6-1.1,3.7-1.6c2.1-1,4.1-2.3,5.6-4.2c2.2-3,2.8-6.3,1.8-10
		c0.7-0.3,1.3-0.7,2-1c0.1-0.1,0.2-0.2,0.2-0.3l0,0c1-0.9,2-1.9,3-2.8c0.4,0,0.7,0,1.1-0.1c0.7-0.1,1.4-0.1,2.2-0.2
		c1.1,1.1,0.2,2.1-0.2,3.1c-5.2,2.8-7.8,7.4-8.7,13.2c-0.3,2.1,0.1,4.1,0.9,6.1c-0.1,0.2-0.1,0.4-0.2,0.6c-0.7,2.6-1.8,3.4-4.4,2.8
		C85.1,254.6,83.9,254,82.6,253.6z"/>
	<path class="st9" d="M82.6,253.6c1.2,0.4,2.4,1,3.7,1.3c2.6,0.6,3.7-0.2,4.4-2.8c0.1-0.2,0.1-0.4,0.2-0.6c1.8,2.8,4.5,4.3,7.5,5.5
		c-0.3,0.2-0.7,0.5-1,0.7c-1,0-2,0.1-3,0.1c-4.4,0.4-8.3-0.8-11.6-3.9C82.7,253.8,82.7,253.7,82.6,253.6z"/>
	<path class="st2" d="M167.6,332c0,0-0.1-0.1-0.1-0.1C167.5,331.9,167.6,331.9,167.6,332C167.6,332,167.6,332,167.6,332z"/>
	<path class="st11" d="M72,156.4c-1-3-2.2-5.9-2.8-8.9c-1.2-5.9-1.7-12,0.3-17.9c0.2-0.7,0.7-1.5,1.1-2.1c0.2-0.3,0.8-0.4,1.2-0.5
		c-0.7,3.5,0.6,6.5,2.3,9.3c1.1,1.8,1.9,1.7,3-0.1c1.5,7.3,2.2,14.7,1.7,22.2C76.5,157.7,74.3,157.1,72,156.4z M74.4,156.2
		c0.1-0.1,0.2-0.2,0.4-0.3c-4-8-4.6-16.5-4.5-25.2c-0.4,2.1-0.9,4.2-0.9,6.3c0,2.4,0.2,4.9,0.5,7.3c0.3,3.2,1.1,6.3,2.6,9.2
		C72.9,154.4,73.7,155.3,74.4,156.2z"/>
	<path class="st6" d="M77.2,136.2c-1.1,1.9-1.9,2-3,0.1c-1.7-2.8-3.1-5.8-2.3-9.3c0,0-0.1,0-0.1,0c0.1-0.1,0.2-0.2,0.3-0.3
		c0,0,0,0,0,0c0.1-0.1,0.2-0.2,0.3-0.3c1.3-0.4,2.2,0,2.9,1.2c0.7,1.3,1.2,2.6,1.8,3.8C77.1,133,77.2,134.6,77.2,136.2z M74.7,130.2
		c0.9-1.4,0.2-2.1-0.5-2.7c-0.2-0.2-0.7-0.2-1-0.2c0,0.4-0.3,0.8-0.1,1.1C73.6,128.9,74.1,129.5,74.7,130.2z"/>
	<path class="st9" d="M63.6,246.2c-0.3-0.4-0.6-0.7-0.9-1.1c1.4-1,2.7-2,4.1-3c0.2-0.2,0.3-0.4,0.5-0.5c0,0,0.1-0.1,0.1-0.1
		c0,0-0.1,0.1-0.1,0.1c-0.2,0.2-0.4,0.3-0.5,0.5c-0.5,0.2-1,0.3-1.5,0.6c-3.4,1.8-7.1,2.7-10.9,2.5c-7.5-0.4-13.8-3.3-18.2-9.7
		c-0.4-0.6-0.9-1.3-1.3-2c0,0,0,0,0,0c-0.1-0.3-0.2-0.5-0.3-0.8c-0.4-1.4-0.9-2.7-1-4.1c-0.3-2.5-0.4-5.1,0.6-7.6
		c0.1-0.3,0.2-0.5,0.3-0.8l0,0c0.9-1.8,1.8-3.7,2.8-5.5c3.5-5.9,8-10.7,13.5-14.7c4.3-3.1,8.9-5.5,14.1-6.4c0.2,0,0.3,0,0.5,0
		c-0.4,0.2-0.7,0.5-1.1,0.7c-5,1.7-9.4,4.5-13.2,8.1c-0.2,0.2-0.2,0.4-0.3,0.7c-1.1,0.8-2.3,1.5-3.4,2.3c-1,0.8-2.3,1.4-2.9,2.6
		c0.1,0.1,0.1,0.2,0.2,0.3c0.7-0.3,1.4-0.7,2.1-1c-0.6,1-1.1,1.9-1.6,2.9c-0.3,0.5-0.4,1-0.6,1.5c-1,0.9-2.1,1.7-3.1,2.6
		c0.1,0.1,0.2,0.3,0.3,0.4c0.4-0.2,0.9-0.3,1.3-0.5c-0.4,1.6-0.8,3.2-1.3,4.8c-1.1,0.8-2.6,0.9-3.3,2.2c0.1,0.1,0.1,0.2,0.2,0.3
		c0.9-0.2,1.7-0.5,2.6-0.7c-0.2,2.7-0.4,5.4,0.2,8.1c1.3,5.6,5.4,8.7,10.9,9.3c2,0.2,3.8,0,5.7-0.5c1.6-0.5,2.9-1.2,2.9-3.2
		c0-1.1,1.2-1.7,2.1-1.2c0.6,0.3,1.3,0.7,1.7,1.2c1.3,1.8,3,2.9,5,3.7c1.5,0.6,2.9,1.3,4.3,2c0.4,0.2,0.8,0.7,0.8,1.1
		c0,0.3-0.5,0.7-0.9,0.9c-0.8,0.4-1.7,0.5-2.5,0.9c-0.6,0.3-1.1,0.9-1.6,1.3c0.4,0.5,0.8,1.1,1.4,1.4c2.9,1.5,6.1,1.4,9.2,0.7
		c1.5-0.3,2.9-1,4.4-1.5c0.4-0.1,0.8-0.2,1.2-0.3c-1.4,1.9-3.6,2.6-5.7,3.4c-4.3,1.5-8.6,1.8-13,0.4c-0.8-0.3-1.6-0.7-2.4-1
		c0,0,0,0,0,0c-0.2-0.1-0.3-0.2-0.5-0.3c0,0,0,0,0,0c-0.1-0.2-0.2-0.3-0.3-0.5c0,0,0,0,0,0C63.9,246.4,63.8,246.3,63.6,246.2z
		 M64,235.6c0.6,3.5,5.1,5.9,7.7,4.3C68.8,239.3,66.1,238.3,64,235.6z"/>
	<path class="st11" d="M34,221c-1,2.5-0.8,5-0.6,7.6c0.1,1.4,0.7,2.7,1,4.1c0.1,0.3,0.2,0.5,0.3,0.8c0,0,0,0,0,0
		c0.8,1.5,1.5,3.1,2.3,4.6c0,0.6,0,1.2,0,1.8c0,1.9-0.6,2.5-2.5,2.6c-5.4-4.3-7.5-10.2-5.7-17.4c0.8-3,1.9-5.8,4-8.1
		c0.8-0.1,1.7-0.3,2.3,0.5c-0.3,0.9-0.5,1.9-0.8,2.8c0,0,0,0,0,0C34.2,220.5,34.1,220.8,34,221z"/>
	<path class="st9" d="M34.5,242.4c1.9,0,2.5-0.6,2.5-2.6c0-0.6,0-1.2,0-1.8c2.3,2.8,5.1,5,8.4,6.4c1.3,0.5,2.6,1,3.7,1.4
		C45.9,247,38,245.8,34.5,242.4z"/>
	<path class="st11" d="M21.2,235.8c0.9,1.1,1.9,2.2,2.8,3.3c-0.3,0.5-0.7,0.9-1,1.4c-3.4,4.6-5.6,9.6-6.1,15.4c-0.3-1-1-2.1-0.9-3.1
		c0.1-2.5,0.4-4.9,1-7.3C17.8,242,19.2,238.7,21.2,235.8z"/>
	<path class="st9" d="M21.2,235.8c-2,2.9-3.4,6.2-4.2,9.7c-0.6,2.4-0.8,4.9-1,7.3c-0.1,1,0.6,2.1,0.9,3.1c0.1,1.7,0.2,3.4,0.3,5.1
		l0,0c-1.8-2.3-2.5-5.1-2.7-7.9c-0.4-6.5,1.2-12.5,5-17.8c0.3-0.4,0.7-0.7,1-1.1C20.7,234.8,21,235.3,21.2,235.8z"/>
	<path class="st9" d="M17.2,261c0,0,0.1,0.1,0.1,0.1C17.3,261.1,17.2,261,17.2,261C17.2,261,17.2,261,17.2,261z"/>
	<path class="st9" d="M61.7,190.5c0.8-1.2,1.6-2.4,2.5-3.6c1.7-2,3.5-3.7,6-4.6c-0.8,0.9-1.7,1.8-2.4,2.8c-0.7,1.2-1.4,2.4-1.8,3.7
		c-0.5,1.6,0.4,2.8,1.2,4.1c-2.2,0.2-4.4,0.3-6.5,0.5c0.1-0.3,0.2-0.6,0.2-1c0.1-0.3,0.2-0.5,0.3-0.8c0,0,0,0,0,0
		c0.1-0.3,0.2-0.5,0.3-0.8c0,0,0,0,0,0C61.5,190.8,61.6,190.7,61.7,190.5C61.7,190.5,61.7,190.5,61.7,190.5z"/>
	<path class="st9" d="M67.5,193.1c0,0.1,0,0.2,0,0.2C67.5,193.2,67.5,193.1,67.5,193.1z"/>
	<path class="st9" d="M104.2,206.2c-1.9,0.5-3.7,1.2-5.6,1.5c-6.2,0.9-11.1-2.2-15.7-5.8c-0.8-0.6-1.6-1.2-2.4-1.8c0,0,0-0.1,0-0.1
		c0,0,0,0-0.1,0c0,0,0.1,0.1,0.1,0.1c0.6,0.9,1.2,1.7,1.9,2.6c0.3,0.4,0.8,0.6,1.2,0.9c-1.1,1-1.9,0.9-2.9,0.5
		c-1.3-0.6-2.7-1.1-4-1.6c-0.3-0.1-0.6,0-1,0c-0.4-0.3-0.9-0.7-1.3-1l0.1-0.1c0.2,0.1,0.5,0.1,0.7,0.2c2,0.5,3.3-0.7,3-2.7
		c-0.1-0.6-0.1-1.8,0.2-1.9c0.6-0.3,1.6-0.3,2.2,0.1c1.5,1,3,2.1,4.4,3.3c3.2,2.8,6.5,5.3,10.7,6.3c2.5,0.6,4.9,0.5,7.3-0.3
		C103.4,206.3,103.8,206.3,104.2,206.2z"/>
	<path class="st9" d="M92.4,232.5c-0.7,0.3-1.3,0.7-2,1c-0.9-1.6-1.8-3.3-2.8-4.9c1,0.3,1.9,0.8,2.9,1c1.5,0.3,2.9-0.1,4.1-0.9
		c-0.5,0.8-0.9,1.6-1.4,2.4c-0.2,0.4-0.5,0.7-0.7,1.1c0,0,0,0,0,0C92.6,232.3,92.5,232.4,92.4,232.5z"/>
	<path class="st10" d="M42.9,214.2c-0.4,0.2-0.9,0.3-1.3,0.5c-0.1-0.1-0.2-0.3-0.3-0.4c1-0.9,2.1-1.7,3.1-2.6
		c2.4-1.3,4.9-2.6,7.3-3.9c0.5-0.3,1.2-0.4,1.8-0.4C50,209.7,46.4,211.9,42.9,214.2z"/>
	<path class="st10" d="M41.1,220.8c-0.9,0.2-1.7,0.5-2.6,0.7c-0.1-0.1-0.1-0.2-0.2-0.3c0.7-1.3,2.2-1.4,3.3-2.2c3-1,6.1-2,9.1-3
		c0.1,0.2,0.1,0.3,0.2,0.5C47.6,217.9,44.4,219.3,41.1,220.8z"/>
	<path class="st10" d="M46.6,207.3c-0.7,0.3-1.4,0.7-2.1,1c-0.1-0.1-0.1-0.2-0.2-0.3c0.6-1.2,1.9-1.8,2.9-2.6
		c1.1-0.8,2.3-1.5,3.4-2.3c1.5-0.7,3-1.5,4.5-2.2c0,0.1,0.1,0.1,0.1,0.2C52.3,203.1,49.5,205.2,46.6,207.3z"/>
	<path class="st9" d="M74.5,201.5c0-0.1-0.1-0.1-0.1-0.2C74.5,201.3,74.5,201.4,74.5,201.5C74.6,201.4,74.5,201.5,74.5,201.5z"/>
	<path class="st6" d="M94.6,124.3c0,1.2,0,2.3,0,3.5c-1,1.3-2,1.6-3.1,0.7c-3.3-3-5-6.7-4.8-11.2c0-0.4,0.3-0.9,0.4-1.3
		c1.5-0.4,2.3-0.1,2.9,1c-0.3-0.1-0.7-0.1-1.2-0.2c-0.1,0.5-0.3,1-0.1,1.4c0.3,0.7,0.8,1.3,1.3,1.8c0.1,0.1,0.8-0.2,0.8-0.3
		c-0.1-0.6-0.2-1.3-0.3-1.9c0.4,0.2,0.8,0.3,1.1,0.6C93.3,120,94.2,122.1,94.6,124.3z"/>
	<path class="st9" d="M84.8,119.3c-0.2,2.7-0.5,5.2-0.6,7.7c-0.1,2.5,0.1,5,0.2,7.5c0.1,2.2,0.4,4.4,0.7,6.6
		c0.6,4.9,1.4,9.9,3.6,14.4c0.6,1.2,1.3,2.4,3,2.6c-1.2,1-2.2,0.5-3-0.3c-0.7-0.8-1.4-1.7-1.8-2.7c-1.7-3.7-2.6-7.7-3-11.7
		c-0.4-4.1-1-8.2-0.9-12.3c0-3.5,0.8-6.9,1.2-10.4c0-0.3,0.2-0.7,0.3-1C84.5,119.6,84.6,119.5,84.8,119.3z"/>
	<path class="st7" d="M134.4,156.8C134.4,156.8,134.3,156.8,134.4,156.8c-0.1,0.1-0.1,0-0.2,0C134.2,156.7,134.3,156.7,134.4,156.8
		C134.3,156.7,134.4,156.8,134.4,156.8z"/>
	<path class="st7" d="M144.5,189.2C144.6,189.2,144.6,189.1,144.5,189.2C144.7,189.2,144.6,189.2,144.5,189.2
		C144.5,189.2,144.5,189.2,144.5,189.2z"/>
	<path class="st11" d="M72.1,126.6c-0.1,0.1-0.2,0.2-0.3,0.3C71.9,126.8,72,126.7,72.1,126.6z"/>
	<path class="st11" d="M72.3,126.4c-0.1,0.1-0.2,0.2-0.3,0.3C72.1,126.6,72.2,126.5,72.3,126.4z"/>
	<path class="st10" d="M61.5,191c-0.1,0.3-0.2,0.5-0.3,0.8C61.3,191.5,61.4,191.3,61.5,191z"/>
	<path class="st10" d="M61.2,191.8c-0.1,0.3-0.2,0.5-0.3,0.8C61,192.3,61.1,192,61.2,191.8z"/>
	<path class="st10" d="M61.7,190.5c-0.1,0.2-0.2,0.3-0.3,0.5C61.5,190.8,61.6,190.7,61.7,190.5z"/>
	<path class="st11" d="M107.3,209.6c0.7,0.8,1.3,1.7,2,2.5c0.6,4.5-0.5,8.4-3.6,11.8c-1,0.3-2,0.9-3.1,1c-1.6,0.2-3.3,0-5,0
		c1.1-5.8,0-9.7-4.2-14c0.8,0.1,1.4,0.2,2,0.2c2.4,0.2,4.7-0.2,6.9-1C104,209.6,105.6,209.1,107.3,209.6z"/>
	<path class="st9" d="M97.7,224.8c1.7,0,3.3,0.1,5,0c1-0.1,2.1-0.6,3.1-1c-0.2,0.3-0.4,0.8-0.7,1c-2.2,2-4.8,3.4-7.8,4.1
		c-0.2,0-0.3,0.3-0.5,0.4c-0.4,0-0.7,0-1.1,0.1C96.3,227.9,97,226.4,97.7,224.8z"/>
	<path class="st11" d="M90.7,117.7c0.1,0.6,0.3,1.3,0.3,1.9c0,0.1-0.7,0.4-0.8,0.3c-0.5-0.6-1-1.2-1.3-1.8c-0.2-0.3,0.1-0.9,0.1-1.4
		c0.5,0.1,0.8,0.2,1.2,0.2C90.3,117.2,90.5,117.5,90.7,117.7z"/>
	<path class="st3" d="M118.6,331.2c-0.1-2.7-2.5-5.2-5.1-5.4c-1.6-0.1-2.4,0.7-2.7,2.6c-0.9-2.6-1.8-5.1-2.7-7.7
		c1.9,0.9,3.9,1.6,5.6,2.7c1.9,1.2,3.5,2.8,5.3,4.2c0.9,0.7,1.1,1.5,0.4,2.5C119,330.4,118.8,330.8,118.6,331.2z"/>
	<path class="st10" d="M96.8,229.3c0.2-0.1,0.3-0.4,0.5-0.4c3-0.6,5.5-2,7.8-4.1c0.3-0.3,0.5-0.7,0.7-1c3.1-3.3,4.1-7.3,3.6-11.8
		c1,2.2,0.9,4.5,0.5,6.8c-0.1,0.5-0.2,1-0.3,1.5c-1.1,2.8-2.7,5.2-5,6.7c0.6,1.4,1.2,2.7,1.8,3.9c-0.7-0.8-1.5-1.7-2.2-2.5
		c-0.5-0.6-0.9-0.9-1.8-0.5c-1.1,0.5-2.2,0.8-3.4,1.2C98.2,229.2,97.5,229.3,96.8,229.3z"/>
	<path class="st8" d="M119.1,214.7c-1.5,2.8-3.1,5.6-4.7,8.5c-0.6-2.2,2-7,4.5-8.7C119,214.6,119.1,214.7,119.1,214.7z"/>
	<path class="st8" d="M119,214.6c0.1,0,0.1-0.1,0.2-0.1c0,0.1,0,0.2,0,0.3C119.1,214.7,119,214.6,119,214.6z"/>
	<path class="st7" d="M112.3,225.2c-1.4-0.3-2.5-1.4-2.7-2.8C111,222.6,112,223.7,112.3,225.2z"/>
	<path class="st10" d="M106.4,231.2c-0.1-0.1-0.1-0.2-0.2-0.3C106.3,231,106.4,231.1,106.4,231.2z"/>
	<path class="st8" d="M108.3,329.4c-2.8-1.4-9.2-16.3-8.3-19.7c0.5,0.7,1,1.2,1.3,1.8c1.5,3.4,3,6.9,4.4,10.4
		c0.8,1.9,1.6,3.8,2.3,5.8C108.2,328.1,108.2,328.7,108.3,329.4z"/>
	<path class="st13" d="M103.8,340.3c-1.2-0.2-2-0.3-2.9-0.5c-0.4-0.1-0.6-0.6-1-0.8c0.4-0.2,0.7-0.5,1.1-0.5c2.5-0.5,5-0.9,7.5-1.5
		c1.3-0.4,2.5-1.2,3.6-1.9c1.4-1,2.3-2.3,2.5-4.1c0.1-0.4,0.5-0.8,0.7-1.1c0.4,0.3,1.1,0.5,1.3,0.9c0.6,1.3,0.3,2.6-0.5,3.8
		c-1.6,2.4-3.9,3.7-6.5,4.5C107.8,339.6,105.6,339.9,103.8,340.3z"/>
	<path class="st10" d="M64,246.5c0.1,0.2,0.2,0.3,0.3,0.5C64.1,246.8,64.1,246.6,64,246.5z"/>
	<path class="st10" d="M64.2,247c0.2,0.1,0.3,0.2,0.5,0.3C64.6,247.2,64.4,247.1,64.2,247z"/>
	<path class="st10" d="M63.6,246.2c0.1,0.1,0.2,0.2,0.3,0.3C63.9,246.4,63.8,246.3,63.6,246.2z"/>
	<path class="st10" d="M92.4,232.5c0.1-0.1,0.2-0.2,0.2-0.3C92.6,232.3,92.5,232.4,92.4,232.5z"/>
	<path class="st9" d="M74.4,156.2c-0.7-0.9-1.5-1.8-2-2.8c-1.4-2.9-2.2-6-2.6-9.2c-0.3-2.4-0.5-4.9-0.5-7.3c0-2.1,0.5-4.2,0.9-6.3
		c-0.1,8.7,0.5,17.3,4.5,25.2C74.6,156,74.5,156.1,74.4,156.2z"/>
	<path class="st9" d="M74.7,130.2c-0.6-0.7-1.2-1.3-1.6-1.9c-0.1-0.2,0.1-0.7,0.1-1.1c0.3,0.1,0.8,0,1,0.2
		C74.9,128.1,75.6,128.8,74.7,130.2z"/>
	<path class="st10" d="M64,235.6c2.1,2.7,4.7,3.7,7.7,4.3C69.1,241.5,64.7,239.1,64,235.6z"/>
	<path class="st10" d="M67.3,241.7c-0.2,0.2-0.3,0.4-0.5,0.5c0,0-0.1-0.1-0.1-0.1C66.9,241.9,67.1,241.8,67.3,241.7L67.3,241.7z"/>
	<path class="st10" d="M34,221c0.1-0.3,0.2-0.5,0.3-0.8C34.2,220.5,34.1,220.8,34,221z"/>
	<path class="st10" d="M34.8,233.5c-0.1-0.3-0.2-0.5-0.3-0.8C34.6,233,34.7,233.2,34.8,233.5z"/>
	<path class="st10" d="M67.2,241.6c0,0,0.1-0.1,0.1-0.1C67.3,241.6,67.3,241.6,67.2,241.6C67.3,241.7,67.2,241.6,67.2,241.6z"/>
	<path class="st10" d="M80.6,200.2c0,0-0.1-0.1-0.1-0.1C80.5,200.1,80.5,200.1,80.6,200.2C80.6,200.1,80.6,200.1,80.6,200.2
		L80.6,200.2z"/>
</g>
</svg>
